<?xml version="1.0" encoding="utf-8"?>
<!-- Generator: Adobe Illustrator 21.1.0, SVG Export Plug-In . SVG Version: 6.00 Build 0)  -->
<svg version="1.1" id="layer_1" xmlns="http://www.w3.org/2000/svg" xmlns:xlink="http://www.w3.org/1999/xlink" x="0px" y="0px"
	 viewBox="0 0 355.3 297.5" style="enable-background:new 0 0 355.3 297.5;" xml:space="preserve">
<style type="text/css">
	.st0{fill:#F1E1E1;}
	.st1{fill:#FFFFFF;}
	.st2{fill:#FF6161;}
	.st3{fill:#F7B75D;}
	.st4{fill:#B24F57;}
	.st5{fill:#2143AF;}
	.st6{fill:#E5E9FF;}
	.st7{fill:#121F55;}
	.st8{fill:#C9A6A6;}
	.st9{fill:#566CD3;}
	.st10{fill:#F99AB6;}
	.st11{fill:#FFFEFF;}
	.st12{fill:#84575D;}
	.st13{fill:#B8B9F1;}
</style>
<g>
	<g>
		<g>
			<g>
				<path class="st0" d="M259.7,169.6h69.3c-5.1,0-9.8,2-13.1,5.4c-3.4,3.4-5.4,7.4-5.4,12.6c0,10.3,8.3,18,18.6,18h-69.3
					c5.1,0,9.8-1.5,13.1-4.8c3.4-3.4,5.4-7.7,5.4-12.8C278.2,177.6,269.9,169.6,259.7,169.6z"/>
			</g>
			<g>
				<g>
					<circle class="st0" cx="176.7" cy="151.9" r="134.8"/>
				</g>
			</g>
			<g>
				<g>
					<path class="st0" d="M70.7,230H126c5.7,0,10.3,4.6,10.3,10.3l0,0c0,5.7-4.6,10.3-10.3,10.3H70.7c-5.7,0-10.3-4.6-10.3-10.3l0,0
						C60.3,234.6,65,230,70.7,230z"/>
				</g>
			</g>
			<g>
				<g>
					<path class="st0" d="M57.3,270.6h82c3.7,0,6.7,3,6.7,6.7l0,0c0,3.7-3,6.7-6.7,6.7h-82c-3.7,0-6.7-3-6.7-6.7l0,0
						C50.6,273.6,53.6,270.6,57.3,270.6z"/>
				</g>
			</g>
			<g>
				<g>
					<path class="st0" d="M236.4,284.1H249c3.7,0,6.7,3,6.7,6.7l0,0c0,3.7-3,6.7-6.7,6.7h-12.5c-3.7,0-6.7-3-6.7-6.7l0,0
						C229.7,287.1,232.7,284.1,236.4,284.1z"/>
				</g>
			</g>
			<g>
				<g>
					<path class="st0" d="M230.2,244.5h60.9c6.1,0,11,4.9,11,11l0,0c0,6.1-4.9,11-11,11h-60.9c-6.1,0-11-4.9-11-11l0,0
						C219.2,249.4,224.2,244.5,230.2,244.5z"/>
				</g>
			</g>
			<g>
				<g>
					<path class="st0" d="M233.4,132.5h99.4c10.2,0,18.6,8.3,18.6,18.6l0,0c0,10.2-8.3,18.6-18.6,18.6h-99.4
						c-10.2,0-18.6-8.3-18.6-18.6l0,0C214.8,140.8,223.1,132.5,233.4,132.5z"/>
				</g>
			</g>
			<g>
				<path class="st0" d="M80.2,250.6h38.6c-2.8,0-5.4,1.2-7.3,3.1c-1.9,1.9-3,4.1-3,6.9c0,5.7,4.6,10,10.3,10H80.2
					c2.8,0,5.4-0.8,7.3-2.6c1.9-1.9,3-4.3,3-7.2C90.5,255.1,85.9,250.6,80.2,250.6z"/>
			</g>
			<g>
				<g>
					<path class="st0" d="M196,205.7h147.3c6.6,0,12,5.4,12,12l0,0c0,6.6-5.4,12-12,12H196c-6.6,0-12-5.4-12-12l0,0
						C183.9,211.1,189.3,205.7,196,205.7z"/>
				</g>
			</g>
			<g>
				<g>
					<path class="st0" d="M148.3,116.4H31.8c-10.9,0-19.7-8.8-19.7-19.7l0,0c0-10.9,8.8-19.7,19.7-19.7h116.5
						c10.9,0,19.7,8.8,19.7,19.7l0,0C168,107.6,159.2,116.4,148.3,116.4z"/>
				</g>
			</g>
			<g>
				<g>
					<path class="st0" d="M196.8,230.5H28.5C12.7,230.5,0,217.7,0,202v0c0-15.7,12.7-28.5,28.5-28.5h168.3
						c15.7,0,28.5,12.7,28.5,28.5v0C225.3,217.7,212.5,230.5,196.8,230.5z"/>
				</g>
			</g>
			<g>
				<g>
					<path class="st0" d="M292,71.1h-92.9c-8.7,0-15.7-7-15.7-15.7l0,0c0-8.7,7-15.7,15.7-15.7H292c8.7,0,15.7,7,15.7,15.7l0,0
						C307.8,64.1,300.7,71.1,292,71.1z"/>
				</g>
			</g>
			<g>
				<g>
					<path class="st0" d="M182.1,45.6H62.7c-7.9,0-14.2-6.4-14.2-14.2l0,0c0-7.9,6.4-14.2,14.2-14.2h119.4c7.9,0,14.2,6.4,14.2,14.2
						l0,0C196.3,39.2,189.9,45.6,182.1,45.6z"/>
				</g>
			</g>
			<g>
				<g>
					<path class="st0" d="M263.5,17.1h-22.1c-4.7,0-8.6-3.8-8.6-8.6l0,0c0-4.7,3.8-8.6,8.6-8.6h22.1c4.7,0,8.6,3.8,8.6,8.6l0,0
						C272,13.3,268.2,17.1,263.5,17.1z"/>
				</g>
			</g>
		</g>
		<g>
			<g>
				<path class="st1" d="M158,112.8c-1.3,0-2.6-0.5-3.5-1.4c-1.5-1.4-3.9-1.4-5.3,0c-0.3,0.2-0.6,0.2-0.9,0c-0.2-0.3-0.2-0.6,0-0.9
					c1.9-1.8,5.1-1.8,7,0c1.5,1.4,3.9,1.4,5.3,0c1.9-1.8,5.1-1.8,7,0c1.5,1.4,3.9,1.4,5.3,0c1.9-1.8,5.1-1.8,7,0
					c0.3,0.2,0.3,0.6,0,0.9c-0.2,0.3-0.6,0.3-0.9,0c-1.5-1.4-3.9-1.4-5.3,0c-1.9,1.8-5.1,1.8-7,0c-1.5-1.4-3.9-1.4-5.3,0
					C160.6,112.3,159.3,112.8,158,112.8z"/>
			</g>
		</g>
		<g>
			<g>
				<path class="st1" d="M211.1,75.5c-1.3,0-2.6-0.5-3.5-1.4c-1.5-1.4-3.9-1.4-5.3,0c-0.3,0.2-0.6,0.2-0.9,0c-0.2-0.3-0.2-0.6,0-0.9
					c1.9-1.8,5.1-1.8,7,0c1.5,1.4,3.9,1.4,5.3,0c1.9-1.8,5.1-1.8,7,0c1.5,1.4,3.9,1.4,5.3,0c1.9-1.8,5.1-1.8,7,0
					c0.3,0.2,0.3,0.6,0,0.9c-0.2,0.3-0.6,0.3-0.9,0c-1.5-1.4-3.9-1.4-5.3,0c-1.9,1.8-5.1,1.8-7,0c-1.5-1.4-3.9-1.4-5.3,0
					C213.7,75,212.4,75.5,211.1,75.5z"/>
			</g>
		</g>
		<g>
			<g>
				<g>
					<rect x="185" y="87" class="st1" width="50.1" height="40.5"/>
				</g>
			</g>
			<g>
				<g>
					<g>
						<rect x="189.6" y="91.7" class="st2" width="41.2" height="30.9"/>
					</g>
				</g>
			</g>
			<g>
				<g>
					<g>
						<path class="st3" d="M223.4,112.3l-1.1,1.9l-16.4-9.4l-16.3,8.5v-2.5l15.8-8.2c0.3-0.2,0.7-0.2,1.1,0L223.4,112.3z"/>
					</g>
				</g>
			</g>
			<g>
				<g>
					<path class="st3" d="M230.8,107.2v2.7l-7.6-4.9l-4.7,4.2l-0.9,0.8l-1.5-1.7l0.4-0.3l5.9-5.3c0.4-0.3,0.9-0.4,1.4-0.1
						L230.8,107.2z"/>
				</g>
			</g>
			<g>
				<g>
					<g>
						<circle class="st3" cx="214.3" cy="98.1" r="3.9"/>
					</g>
				</g>
			</g>
		</g>
		<g>
			<g>
				<path class="st1" d="M272.1,89.6c0,0-8.9,5.9-8.9,14.9h-9.8c0-9-8.9-14.9-8.9-14.9l13.8-16L272.1,89.6z"/>
			</g>
			<g>
				<g>
					<path class="st4" d="M259,87.7V74.9l-0.9-1.4l-1.1,1.6v12.7c-1,0.5-1.8,1.6-1.8,2.8c0,1.7,1.4,3.1,3.1,3.1
						c1.7,0,2.8-1.4,2.8-3.1C261.2,89.3,261,88.2,259,87.7z"/>
				</g>
			</g>
			<g>
				<g>
					<g>
						<path class="st4" d="M250.6,210v5.7c0,4.3,3.5,7.8,7.8,7.8l0,0c4.3,0,7.8-3.5,7.8-7.8V210H250.6z"/>
					</g>
				</g>
			</g>
			<g>
				<g>
					<g>
						<path class="st2" d="M263.6,126.2v-21.6H253v21.6l0,0c-1.4,0-2.5,1.1-2.5,2.5V210h15.5v-81.2
							C266.1,127.4,265,126.2,263.6,126.2z"/>
					</g>
				</g>
			</g>
			<g>
				<g>
					<g>
						<path class="st5" d="M84.2,210v5.7c0,4.3,3.5,7.8,7.8,7.8l0,0c4.3,0,7.8-3.5,7.8-7.8V210H84.2z"/>
					</g>
				</g>
				<g>
					<g>
						<path class="st5" d="M84.2,210v5.7c0,4.3,3.5,7.8,7.8,7.8l0,0c4.3,0,7.8-3.5,7.8-7.8V210H84.2z"/>
					</g>
				</g>
				<g>
					<g>
						<g>
							<path class="st2" d="M97.2,147.5L97.2,147.5v-10.3H86.7v10.3l0,0c-1.4,0-2.5,1.1-2.5,2.5V210h15.5V150
								C99.7,148.7,98.6,147.5,97.2,147.5z"/>
						</g>
					</g>
				</g>
				<g>
					<path class="st1" d="M92,73.5L92,73.5c-4.1,0-7.5,3.4-7.5,7.5v11.9c0,2.1,1.8,3.9,3.9,3.9l0,0v33.4h7.3V96.8h0.1
						c2.1,0,3.8-1.7,3.8-3.8V81C99.5,76.9,96.1,73.5,92,73.5z"/>
				</g>
				<g>
					<path class="st1" d="M96.5,137.2h-9.1c-2.1,0-3.9-1.7-3.9-3.9l0,0c0-2.1,1.7-3.9,3.9-3.9h9.1c2.1,0,3.9,1.7,3.9,3.9l0,0
						C100.4,135.5,98.6,137.2,96.5,137.2z"/>
				</g>
			</g>
		</g>
		<g>
			<g>
				<g>
					<g>
						<g>
							<g>
								<g>
									<path class="st4" d="M245.8,215.8v-81.4c0-4.5-3.6-8.2-8-8.2H114c-4.4,0-8,3.7-8,8.2v81.4H245.8z"/>
								</g>
							</g>
						</g>
					</g>
					<g>
						<g>
							<path class="st4" d="M232.7,174.8H271c3.9,0,7.1,3.2,7.1,7.1l0,0c0,3.9-3.2,7.1-7.1,7.1h-38.3c-3.9,0-7.1-3.2-7.1-7.1l0,0
								C225.5,178,228.7,174.8,232.7,174.8z"/>
						</g>
						<g>
							<path class="st4" d="M236.2,146.7H257c3.9,0,7.1,3.2,7.1,7.1l0,0c0,3.9-3.2,7.1-7.1,7.1h-20.8c-3.9,0-7.1-3.2-7.1-7.1l0,0
								C229.1,149.9,232.3,146.7,236.2,146.7z"/>
						</g>
						<g>
							<path class="st4" d="M223.5,201.8h56.7c2.6,0,4.6,2.3,4.6,5.2l0,0c0,2.9-2.1,5.2-4.6,5.2h-56.7c-2.6,0-4.6-2.3-4.6-5.2l0,0
								C218.8,204.1,220.9,201.8,223.5,201.8z"/>
						</g>
						<g>
							<path class="st4" d="M264.8,133.4h20.5c2.6,0,4.6,2.1,4.6,4.6l0,0c0,2.6-2.1,4.6-4.6,4.6h-20.5c-2.6,0-4.6-2.1-4.6-4.6l0,0
								C260.2,135.5,262.3,133.4,264.8,133.4z"/>
						</g>
						<g>
							<path class="st4" d="M238.4,188.4H266c-2,0-3.9,0.8-5.2,2.1c-1.3,1.3-2.2,2.8-2.2,4.7c0,3.9,3.3,6.8,7.4,6.8h-27.6
								c2,0,3.9-0.5,5.2-1.8c1.3-1.3,2.2-3,2.2-4.9C245.8,191.5,242.5,188.4,238.4,188.4z"/>
						</g>
					</g>
				</g>
			</g>
			<g>
				<g>
					<g>
						<g>
							<rect x="112.3" y="133.6" class="st1" width="127.3" height="75.9"/>
						</g>
					</g>
				</g>
			</g>
			<g>
				<g>
					<rect x="220.7" y="137.8" class="st0" width="13.7" height="21.5"/>
				</g>
				<g>
					<rect x="117.5" y="137.8" class="st0" width="98.8" height="21.5"/>
				</g>
				<g>
					<rect x="117.5" y="166.1" class="st0" width="27.4" height="21.5"/>
				</g>
				<g>
					<rect x="150" y="178.6" class="st0" width="84.4" height="9.1"/>
				</g>
				<g>
					<rect x="150" y="166.1" class="st0" width="84.4" height="9.1"/>
				</g>
				<g>
					<rect x="117.5" y="191.9" class="st0" width="116.9" height="13.3"/>
				</g>
			</g>
			<g>
				<g>
					<g>
						<g>
							<ellipse class="st6" cx="175.8" cy="129.8" rx="2.1" ry="2.1"/>
						</g>
					</g>
				</g>
			</g>
			<g>
				<g>
					<g>
						<g>
							<ellipse class="st7" cx="179.3" cy="129.8" rx="0.9" ry="0.9"/>
						</g>
					</g>
				</g>
			</g>
			<g>
				<g>
					<g>
						<g>
							<path class="st1" d="M98,215.8v3.9c0,2.1,1.7,3.9,3.8,3.9H250c2.1,0,3.8-1.7,3.8-3.9v-3.9H98z"/>
						</g>
					</g>
				</g>
			</g>
			<g>
				<g>
					<path class="st2" d="M196.7,189h-41.5c-6.5,0-11.9-5.3-11.9-11.9v-11.2c0-6.5,5.3-11.9,11.9-11.9h41.5
						c6.5,0,11.9,5.3,11.9,11.9v11.2C208.5,183.7,203.2,189,196.7,189z"/>
				</g>
			</g>
			<g>
				<g>
					<path class="st1" d="M164.7,173.7l3.2,1c-0.5,1.8-1.3,3.1-2.4,3.9c-1.1,0.9-2.6,1.3-4.3,1.3c-2.2,0-3.9-0.7-5.3-2.2
						c-1.4-1.5-2.1-3.5-2.1-6c0-2.7,0.7-4.8,2.1-6.3c1.4-1.5,3.2-2.2,5.5-2.2c2,0,3.6,0.6,4.8,1.8c0.7,0.7,1.3,1.7,1.7,3l-3.2,0.8
						c-0.2-0.8-0.6-1.5-1.2-2c-0.6-0.5-1.3-0.7-2.2-0.7c-1.2,0-2.2,0.4-2.9,1.3c-0.7,0.9-1.1,2.3-1.1,4.2c0,2,0.4,3.5,1.1,4.4
						c0.7,0.9,1.7,1.3,2.9,1.3c0.9,0,1.6-0.3,2.2-0.8C164,175.7,164.4,174.8,164.7,173.7z"/>
				</g>
				<g>
					<path class="st1" d="M169.8,174.3l3.2-0.3c0.2,1.1,0.6,1.9,1.2,2.4c0.6,0.5,1.4,0.8,2.4,0.8c1.1,0,1.8-0.2,2.4-0.7
						c0.5-0.4,0.8-1,0.8-1.6c0-0.4-0.1-0.7-0.3-1c-0.2-0.3-0.6-0.5-1.2-0.7c-0.4-0.1-1.3-0.4-2.6-0.7c-1.8-0.4-3-1-3.7-1.6
						c-1-0.9-1.5-2-1.5-3.3c0-0.8,0.2-1.6,0.7-2.3c0.5-0.7,1.1-1.3,2-1.6c0.9-0.4,1.9-0.6,3.2-0.6c2,0,3.6,0.4,4.6,1.3
						c1,0.9,1.6,2.1,1.6,3.6l-3.3,0.1c-0.1-0.8-0.4-1.4-0.9-1.8c-0.5-0.4-1.2-0.5-2.1-0.5c-1,0-1.7,0.2-2.2,0.6
						c-0.3,0.3-0.5,0.6-0.5,1c0,0.4,0.2,0.7,0.5,1c0.4,0.3,1.4,0.7,3,1.1c1.6,0.4,2.8,0.8,3.5,1.2c0.8,0.4,1.4,1,1.8,1.6
						c0.4,0.7,0.6,1.6,0.6,2.6c0,0.9-0.3,1.8-0.8,2.6c-0.5,0.8-1.2,1.4-2.2,1.8c-0.9,0.4-2.1,0.6-3.5,0.6c-2,0-3.6-0.5-4.7-1.4
						C170.7,177.5,170.1,176.1,169.8,174.3z"/>
				</g>
				<g>
					<path class="st1" d="M184.9,174.3l3.2-0.3c0.2,1.1,0.6,1.9,1.2,2.4c0.6,0.5,1.4,0.8,2.4,0.8c1.1,0,1.8-0.2,2.4-0.7
						c0.5-0.4,0.8-1,0.8-1.6c0-0.4-0.1-0.7-0.3-1c-0.2-0.3-0.6-0.5-1.2-0.7c-0.4-0.1-1.3-0.4-2.6-0.7c-1.8-0.4-3-1-3.7-1.6
						c-1-0.9-1.5-2-1.5-3.3c0-0.8,0.2-1.6,0.7-2.3c0.5-0.7,1.1-1.3,2-1.6c0.9-0.4,1.9-0.6,3.2-0.6c2,0,3.6,0.4,4.6,1.3
						c1,0.9,1.6,2.1,1.6,3.6l-3.3,0.1c-0.1-0.8-0.4-1.4-0.9-1.8c-0.5-0.4-1.2-0.5-2.1-0.5c-1,0-1.7,0.2-2.2,0.6
						c-0.3,0.3-0.5,0.6-0.5,1c0,0.4,0.2,0.7,0.5,1c0.4,0.3,1.4,0.7,3,1.1c1.6,0.4,2.8,0.8,3.5,1.2c0.8,0.4,1.4,1,1.8,1.6
						c0.4,0.7,0.6,1.6,0.6,2.6c0,0.9-0.3,1.8-0.8,2.6c-0.5,0.8-1.2,1.4-2.2,1.8c-0.9,0.4-2.1,0.6-3.5,0.6c-2,0-3.6-0.5-4.7-1.4
						C185.8,177.5,185.2,176.1,184.9,174.3z"/>
				</g>
			</g>
		</g>
		<g>
			<g>
				<g>
					<path class="st8" d="M102.5,223.5L102.5,223.5c3.1,0,5.7-2.5,5.7-5.7V187c0-3.1-2.5-5.7-5.7-5.7l0,0c-3.1,0-5.7,2.5-5.7,5.7
						v30.8C96.8,221,99.3,223.5,102.5,223.5z"/>
				</g>
				<g>
					<circle class="st8" cx="102.5" cy="218.5" r="1.9"/>
				</g>
			</g>
			<g>
				<g>
					<path class="st4" d="M105.3,222.7L105.3,222.7c2.7-1.6,3.6-5,2.1-7.7l-15.4-26.7c-1.6-2.7-5-3.6-7.7-2.1h0
						c-2.7,1.6-3.6,5-2.1,7.7l15.4,26.7C99.1,223.4,102.6,224.3,105.3,222.7z"/>
				</g>
				<g>
					<path class="st3" d="M95,216.2L82.1,194c-1.6-2.7-0.6-6.2,2.1-7.7l0,0c2.7-1.6,6.2-0.6,7.7,2.1l12.8,22.2L95,216.2z"/>
				</g>
				<g>
					
						<ellipse transform="matrix(0.866 -0.5001 0.5001 0.866 -95.4307 80.6529)" class="st9" cx="102.8" cy="218.4" rx="1.9" ry="1.9"/>
				</g>
			</g>
			<g>
				<g>
					<path class="st4" d="M107.4,220.7L107.4,220.7c1.6-2.7,0.6-6.2-2.1-7.7l-26.7-15.4c-2.7-1.6-6.2-0.6-7.7,2.1l0,0
						c-1.6,2.7-0.6,6.2,2.1,7.7l26.7,15.4C102.3,224.3,105.8,223.4,107.4,220.7z"/>
				</g>
				<g>
					<g>
						<path class="st2" d="M95.1,220.1l-22.2-12.8c-2.7-1.6-3.6-5-2.1-7.7l0,0c1.6-2.7,5-3.6,7.7-2.1l22.2,12.8L95.1,220.1z"/>
					</g>
				</g>
				<g>
					<ellipse transform="matrix(0.5 -0.866 0.866 0.5 -137.4348 198.2562)" class="st9" cx="103" cy="218.2" rx="1.9" ry="1.9"/>
				</g>
			</g>
			<g>
				<g>
					<path class="st4" d="M108.1,217.9L108.1,217.9c0-3.1-2.5-5.7-5.7-5.7H71.6c-3.1,0-5.7,2.5-5.7,5.7l0,0c0,3.1,2.5,5.7,5.7,5.7
						h30.8C105.6,223.5,108.1,221,108.1,217.9z"/>
				</g>
				<g>
					<g>
						<path class="st4" d="M97.3,223.5H71.6c-3.1,0-5.7-2.5-5.7-5.7l0,0c0-3.1,2.5-5.7,5.7-5.7h25.6V223.5z"/>
					</g>
				</g>
				<g>
					<circle class="st2" cx="103.1" cy="217.9" r="1.9"/>
				</g>
			</g>
		</g>
		<g>
			<g>
				<g>
					<path class="st1" d="M184.7,106.3c0.4-0.6-0.1-1.6,0.2-2.8c1-3.5-0.2-5.1-0.2-5.1c0-1.3-1.1-2.4-2.7-3
						c-0.8-0.3-1.6-0.4-2.6-0.5c-1.4,0-2.7,0.3-3.7,0.9c-1,0.6-1.8,1.5-1.7,2.5c0.1,0.7,0.8,1.6,0,2.8c-1.9,2.9-1.1,4.6-0.1,5.1
						c0.9,0.5,2,0.5,2.5,0.8C179.3,108.7,183.2,108.4,184.7,106.3z"/>
				</g>
			</g>
			<g>
				<path class="st10" d="M193.4,119.2c0.6-0.1,1.3-0.2,2-0.3c0.5-0.1,0.8-0.6,0.7-1.1c-0.1-0.5-0.6-0.8-1.1-0.7
					c-3.2,0.7-5.8,0.4-7.7-0.9c-3-2.1-3.5-5.9-3.5-5.9c-0.1-0.5-0.5-0.9-1-0.8c-0.5,0.1-0.9,0.5-0.8,1c0,0.2,0.7,4.7,4.3,7.2
					C188.1,119,190.5,119.6,193.4,119.2z"/>
			</g>
			<g>
				<path d="M184.1,111.6c0.2,0,0.4,0,0.5,0.1c-0.3-0.9-0.4-1.5-0.4-1.5c-0.1-0.7-0.7-1.3-1.5-1.3c-0.1,0-0.1,0-0.2,0
					c-0.8,0.1-1.4,0.8-1.3,1.7c0,0.1,0.2,1.2,0.7,2.6C182.3,112.3,183,111.6,184.1,111.6z"/>
			</g>
			<g>
				<g>
					<path class="st10" d="M182.4,110.9c0.5-0.2,0.9-1,0.3-1.6c-0.6-0.7-1.4-1-2.4-1l-0.2,0c-0.8,0-1.6,0.3-2.1,0.9
						C178.4,110.3,181.1,111.4,182.4,110.9z"/>
				</g>
			</g>
			<g>
				<g>
					<path class="st10" d="M180.8,106.3l0,1l0,2l-1.5,0l0-2.5l0-1C179.7,106.2,180.3,106.3,180.8,106.3z"/>
				</g>
			</g>
			<g>
				<g>
					<g>
						<path class="st10" d="M180.8,106.6l0,1c-0.5-0.1-1.2-0.3-1.5-0.7l0-0.8C179.7,106.4,180.3,106.6,180.8,106.6z"/>
					</g>
				</g>
			</g>
			<g>
				<g>
					<path class="st10" d="M180.4,107.1L180.4,107.1c-1.4,0-2.7-0.7-3.5-1.8c-0.5-0.7-0.9-1.7-0.9-2.7l0-1.7c0-1.3,0.6-2.4,1.4-3.2
						c0.8-0.7,1.9-1.2,3-1.2l0,0c0.8,0,1.5,0.2,2.1,0.6c1.3,0.8,2.2,2.2,2.2,3.9l0,1.7c0,1.6-0.9,3-2.1,3.7
						C182,106.9,181.3,107.1,180.4,107.1z"/>
				</g>
			</g>
			<g>
				<g>
					<path class="st3" d="M185.1,121.4c0.5,2.2-2.3,4.5-4.5,5c-2.2,0.5-4.5-0.9-5-3.1c-0.5-2.2,0.9-4.5,3.1-5
						C181,117.8,184.6,119.2,185.1,121.4z"/>
				</g>
			</g>
			<g>
				<g>
					<path class="st11" d="M180.7,104.8c0.1,0.5,0.6,1,1.1,1c0.6,0,1.1-0.4,1.2-0.9L180.7,104.8z"/>
				</g>
			</g>
			<g>
				<g>
					<path d="M184.8,111.9c0.3,0.8-0.5,1.7-1.3,1.8c-0.8,0.1-1.8-1-1.9-1.8c-0.1-0.8,1.1-2.7,1.6-2
						C183.6,110.6,184.6,111.2,184.8,111.9z"/>
				</g>
			</g>
			<g>
				<g>
					<path d="M178,109.1c-0.4,0.4-0.6,1-0.6,1.6c0,0,1.4,6.5-1.5,10c0,0,5.2,3.1,9.3,1c0-3-1.8-5-1.5-9.8c0.1-1-0.3-1.9-1-2.6
						C182.6,110.8,179.5,108.9,178,109.1z"/>
				</g>
			</g>
			<g>
				<g>
					<g>
						<g>
							<path class="st4" d="M182.4,142.3c0.1,1-0.1,1.8,0,2c0.1,0.4,1.9,0.8,2.1,1.9c0.3,1.5,2.3,1.7,2.6,1.7
								c0.8,0.2,1.6-0.3,1.1-1.1c-0.5-0.9-1-1.1-1.7-2.2c-1-1.7-1.1-2.8-1.6-3.8c-0.1-0.2-0.6-0.8-1.3-0.7
								C183,140.2,182.3,141.1,182.4,142.3z"/>
						</g>
					</g>
				</g>
				<g>
					<g>
						<g>
							<path class="st10" d="M185.4,145.2c-0.6-0.8-1.5-3.5-1.4-4.1c0.1-0.8,1.6-1.1,1.8-0.5c0.4,1.1,0.2,3.1,1.5,5
								C187.3,146.2,186,146.2,185.4,145.2z"/>
						</g>
					</g>
				</g>
			</g>
			<g>
				<g>
					<g>
						<g>
							<path class="st4" d="M209.1,129.4c0.7-0.7,1.5-1,1.6-1.2c0.3-0.3-0.5-2,0.3-2.8c1-1.2,0-2.9-0.2-3.2
								c-0.4-0.8-1.1-1.1-1.5-0.3c-0.4,1-0.3,1.5-0.8,2.7c-0.7,1.8-1.6,2.5-2.1,3.6c-0.1,0.2-0.3,0.9,0.2,1.5
								C207.1,130.2,208.2,130.2,209.1,129.4z"/>
						</g>
					</g>
				</g>
				<g>
					<g>
						<g>
							<path class="st10" d="M209.7,125.3c-0.3,0.9-1.9,3.3-2.5,3.6c-0.7,0.3-1.8-0.7-1.5-1.2c0.6-0.9,2.3-2,3.1-4.2
								C209.3,123.2,210.1,124.2,209.7,125.3z"/>
						</g>
					</g>
				</g>
			</g>
			<g>
				<path class="st3" d="M189.5,127.4L189.5,127.4l-9.9-4.6c-0.9-0.4-2,0-2.5,0.9c-0.4,0.9,0,2,0.9,2.5c0,0,0,0,0,0l8.5,3.8l-3,10.3
					l2.6,0.9l4.3-11.6C190.7,128.7,190.3,127.8,189.5,127.4z"/>
			</g>
			<g>
				<path class="st10" d="M180.4,121.8c0.5,0,1,0,1.5-0.1c0.5-0.1,0.9-0.5,0.8-1c-0.1-0.5-0.5-0.9-1-0.8c-1.7,0.2-3.9,0.1-4.7-1.2
					c-1.2-2,1.1-6.4,2-7.8c0.3-0.4,0.2-1-0.3-1.3c-0.4-0.3-1-0.2-1.3,0.3c-0.4,0.7-4.1,6.5-2,9.8C176.3,121.1,178,121.8,180.4,121.8
					z"/>
			</g>
			<g>
				<g>
					<path class="st1" d="M175.6,101.4c0,0,3.1,1.1,5.1-0.2c1.9-1.4,2.8-3.4,2-4.7c-0.9-1.2-3.1-1.1-5.1,0.2
						C175.6,98.1,175.6,101.4,175.6,101.4z"/>
				</g>
			</g>
			<g>
				<path class="st3" d="M179.5,122.4c0,0,1.7,0,4.3,0.2c1.3,0.1,2.8,0.1,4.4,0.2c1.6,0.1,3.3,0.2,5.1,0.3l0.6,0l0.2,0l0,0l0.2,0
					l0.1,0l0.3,0l0.6,0.1l0,0l0.2,0l0,0l0.1,0l0.2,0l0.3,0.1c0.8,0.2,1.6,0.4,2.4,0.6c0.8,0.2,1.5,0.4,2.3,0.6
					c0.7,0.2,1.4,0.4,2,0.5c1.3,0.3,2.3,0.6,3,0.8c0.7,0.2,1.1,0.3,1.1,0.3l-0.5,2.3c0,0-0.4-0.1-1.2-0.2c-0.7-0.1-1.8-0.3-3.1-0.5
					c-0.6-0.1-1.3-0.2-2.1-0.4c-0.7-0.1-1.5-0.3-2.3-0.4c-0.8-0.2-1.6-0.3-2.4-0.5l-0.3-0.1l-0.2,0l-0.1,0l0,0c0,0,0.3,0,0.1,0l0,0
					l0,0l-0.6-0.1l-0.3,0l-0.1,0l0,0c0,0,0.3,0,0.1,0l0,0l0,0l-0.2,0l-0.6,0c-1.7-0.1-3.4-0.1-5.1-0.2c-1.6-0.1-3.1-0.2-4.4-0.2
					c-2.6-0.1-4.3-0.3-4.3-0.3L179.5,122.4z"/>
			</g>
			<g>
				<g>
					<path class="st7" d="M180,123.5c0-0.3,0.3-0.6,0.6-0.6h20.3c0.4,0,0.8,0.3,0.8,0.6c0,0.3-0.3,0.6-0.8,0.6h-20.3
						C180.3,124.1,180,123.8,180,123.5L180,123.5z"/>
				</g>
				<g>
					<path class="st1" d="M179.2,123.5c0,0.3,0.3,0.6,0.6,0.6h7.7c0.3,0,0.6-0.3,0.6-0.6c0-0.3-0.3-0.6-0.6-0.6h-7.7
						C179.5,123,179.2,123.2,179.2,123.5z"/>
				</g>
				<g>
					<path class="st1" d="M201.6,112.5v10.2c0,0.5-0.4,0.8-0.8,0.8h-13.5c-0.5,0-0.8-0.4-0.8-0.8v-10.2c0-0.5,0.4-0.8,0.8-0.8h13.5
						C201.2,111.7,201.6,112,201.6,112.5z"/>
				</g>
				<g>
					<path class="st1" d="M202.2,112.5v10.2c0,0.5-0.4,0.8-0.8,0.8h-13.5c-0.5,0-0.8-0.4-0.8-0.8v-10.2c0-0.5,0.4-0.8,0.8-0.8h13.5
						C201.9,111.7,202.2,112,202.2,112.5z"/>
				</g>
				<g>
					<path class="st0" d="M192.4,117.6L192.4,117.6c0-0.5,0.4-0.9,0.9-0.9h2.7c0.5,0,0.9,0.4,0.9,0.9l0,0c0,0.5-0.4,0.9-0.9,0.9
						h-2.7C192.8,118.5,192.4,118.1,192.4,117.6z"/>
				</g>
			</g>
			<g>
				<path d="M176.5,111.5c1.1,0,1.8,0.6,2.1,1.4c0.3-0.7,0.7-1.3,1-1.7c0.4-0.7,0.3-1.6-0.4-2c-0.2-0.2-0.5-0.2-0.8-0.2
					c-0.5,0-1,0.3-1.2,0.7c-0.2,0.3-0.7,1.1-1.1,2C176.1,111.5,176.3,111.5,176.5,111.5z"/>
			</g>
			<g>
				<g>
					<path class="st10" d="M186,120c0.2,0.5,0.2,1,0.1,1.5L183,123c-0.5-0.2-0.9-0.6-1.1-1.1c-0.5-1.1,0-2.5,1.1-3
						C184.2,118.4,185.5,118.9,186,120z"/>
				</g>
			</g>
		</g>
		<g>
			<g>
				<g>
					<path class="st4" d="M118.7,85.9l0.7-0.7l1.2,1.2c0.2,0.2,0.6,0.5,0.8,0.2l1.1-1.1l-0.8-0.8c-0.2-0.2-0.2-0.4,0.1-0.7l1.2-1.2
						c0.2-0.2,0.4-0.3,0.7-0.1l0.8,0.8l0.9-0.9c0.2-0.2,0.2-0.8-0.1-1l-1.2-1.2l0.6-0.6c0.2-0.2,0.3-0.6,0-0.8l-1.3-1.3
						c-0.2-0.2-0.6-0.2-0.8,0l-0.6,0.6l-1.1-1.1c-0.2-0.2-0.7-0.2-0.9,0l-0.9,0.9l0.6,0.6c0.2,0.2,0.4,0.7,0.2,0.9l-1.2,1.2
						c-0.2,0.2-0.7,0-0.9-0.2l-0.6-0.6l-1.1,1.1c-0.2,0.2-0.1,0.5,0.1,0.7l1.1,1.1l-0.7,0.7c-0.2,0.2-0.2,0.6,0,0.8l1.3,1.3
						C118.1,86.2,118.5,86.1,118.7,85.9z"/>
				</g>
			</g>
			<g>
				<g>
					<path class="st2" d="M118,77.2l-0.8-0.8l1.3-1.3c0.2-0.2,0.5-0.7,0.3-0.9l-1.1-1.1l-0.9,0.9c-0.2,0.2-0.3,0.2-0.5,0l-1.2-1.2
						c-0.2-0.2-0.4-0.4-0.2-0.6l0.9-0.9l-0.9-0.9c-0.2-0.2-0.8,0-1,0.2l-1.3,1.3l-0.7-0.7c-0.2-0.2-0.6-0.4-0.9-0.1l-1.3,1.3
						c-0.2,0.2-0.2,0.7,0.1,0.9l0.7,0.7l-1,1c-0.2,0.2-0.2,0.6,0,0.8l0.9,0.9l0.5-0.5c0.2-0.2,0.8-0.4,1-0.2l1.2,1.2
						c0.2,0.2-0.1,0.7-0.3,0.9l-0.5,0.5l1.1,1.1c0.2,0.2,0.4,0.1,0.7-0.1l1-1l0.8,0.8c0.2,0.2,0.6,0.2,0.8,0l1.3-1.3
						C118.3,77.7,118.3,77.4,118,77.2z"/>
				</g>
			</g>
			<g>
				<g>
					<g>
						<g>
							<path class="st3" d="M120,81l0,1.5c0,0.1,0,0.2-0.1,0.2c-0.1,0.1-0.1,0.1-0.2,0.1l-1.5,0l0-0.7l1.2,0l0-1.2L120,81z"/>
						</g>
					</g>
					<g>
						<g>
							
								<rect x="116.9" y="76.7" transform="matrix(0.7072 -0.707 0.707 0.7072 -22.3396 106.3629)" class="st3" width="0.7" height="6.9"/>
						</g>
					</g>
				</g>
				<g>
					<g>
						<g>
							<path class="st3" d="M115.8,74.5C115.8,74.5,115.8,74.5,115.8,74.5l1.5,0l0,0.7l-1.2,0l0,1.2l-0.7,0l0-1.5
								c0-0.1,0-0.2,0.1-0.2C115.6,74.5,115.7,74.5,115.8,74.5z"/>
						</g>
					</g>
					<g>
						<g>
							
								<rect x="117.9" y="73.8" transform="matrix(0.7071 -0.7071 0.7071 0.7071 -19.9641 106.239)" class="st3" width="0.7" height="6.9"/>
						</g>
					</g>
				</g>
			</g>
		</g>
		<g>
			<g>
				<g>
					<path class="st3" d="M210.5,193.1l-2.1,8l-6.8,2.8l1,2.3l7.4-3.1c0.4-0.2,0.6-0.5,0.7-0.8l2.2-8.6c0.2-0.7-0.2-1.3-0.9-1.5l0,0
						C211.4,192.1,210.7,192.4,210.5,193.1z"/>
				</g>
			</g>
			<g>
				<g>
					<path class="st12" d="M206.3,215.9c0.6-0.4,0.8-1.2,0.5-1.8c0,0-0.2-0.4-0.5-1c-0.3-0.6-0.8-1.6-1.4-2.7
						c-0.5-1-1.2-2.1-1.8-3.3c0.8,0.2,1.6,0.3,2.3,0.5c0.8,0.2,1.5,0.3,2.2,0.5c0.7,0.1,1.4,0.3,2,0.4c1.2,0.2,2.3,0.4,3,0.6
						c0.7,0.1,1.1,0.2,1.1,0.2c1.1,0.2,2.1-0.5,2.3-1.6c0.2-1-0.5-2-1.5-2.3c0,0-0.4-0.1-1.1-0.3c-0.7-0.2-1.7-0.4-3-0.7
						c-0.6-0.1-1.3-0.3-2-0.4c-0.7-0.1-1.4-0.3-2.2-0.5c-1.5-0.3-3.2-0.6-4.8-0.9l-0.6-0.1l-0.2,0l-0.1,0l0,0l-0.2,0l0,0l0,0
						c-0.7-0.1-1.2,0.1-1.7,0.4c-0.5,0.3-0.8,0.8-0.9,1.3c-0.2,0.5-0.1,1.2,0.1,1.7c0.2,0.3,0.1,0.3,0.2,0.3l0.1,0.1l0.2,0.3
						c0.4,0.7,0.9,1.4,1.3,2c0.9,1.3,1.7,2.5,2.4,3.6c0.7,1,1.3,1.9,1.7,2.5c0.4,0.6,0.7,0.9,0.7,0.9
						C204.8,216.2,205.7,216.4,206.3,215.9z"/>
				</g>
			</g>
			<g id="_x38_._Right_shoe_108_">
				<g>
					<g>
						
							<ellipse transform="matrix(0.5779 -0.8161 0.8161 0.5779 -88.1321 258.3032)" class="st3" cx="205.7" cy="214.4" rx="2" ry="2"/>
					</g>
				</g>
				<g>
					<g>
						<path class="st3" d="M202.9,221.7l4.4-6.2c0.5-0.7,0.3-1.6-0.3-2l0,0c-0.7-0.5-2.7-0.6-3.2,0l-2.5,7.3
							c-0.3,0.8,0.6,1.6,1.3,1.2C202.7,221.9,202.8,221.8,202.9,221.7z"/>
					</g>
				</g>
				<g>
					<g>
						<path class="st1" d="M203.3,216.3L203.3,216.3c0-0.2-0.2-0.3-0.4-0.3l-0.7,0.2c-0.2,0.1-0.3,0.2-0.2,0.4l0,0
							c0,0.2,0.2,0.3,0.4,0.3l0.7-0.2C203.3,216.6,203.4,216.5,203.3,216.3z"/>
					</g>
				</g>
				<g>
					<g>
						<path class="st1" d="M203.5,217.4L203.5,217.4c0-0.2-0.2-0.3-0.4-0.3l-0.7,0.2c-0.2,0-0.3,0.2-0.2,0.4l0,0
							c0,0.2,0.2,0.3,0.4,0.3l0.7-0.2C203.4,217.7,203.5,217.6,203.5,217.4z"/>
					</g>
				</g>
				<g>
					<g>
						
							<ellipse transform="matrix(0.578 -0.816 0.816 0.578 -88.1372 258.2677)" class="st12" cx="205.7" cy="214.4" rx="1.2" ry="1.2"/>
					</g>
				</g>
			</g>
			<g>
				<g>
					<path class="st3" d="M214.3,188l0.2,1.7l0.4-0.1c0.3-0.1,0.5-0.3,0.5-0.6l0,0c0-0.2,0.1-0.4,0.2-0.5l0.9-1
						c0.4-0.4,0.7-0.9,0.7-1.5c0.1-0.4,0-0.9-0.2-1.2c-0.4-0.5,0.9-1.8,0-2.9c-0.4-0.5-1-0.9-1.3-1.4c-0.9-1.8-2.2-1.6-3.1-1
						c-0.8,0.6-1.2-0.6-2.8-0.4c-1.2,0.2-1.7,1-1.6,1.8c0,0-2.1,0.1-2.1,2.5s2.5,2.7,2.5,2.7L214.3,188z"/>
				</g>
			</g>
			<g>
				<g>
					<polygon class="st10" points="211.7,186.2 212,190.2 212.3,192.8 215.3,192.6 214.6,186.2 214.4,184.4 					"/>
				</g>
			</g>
			<g>
				<g>
					<g>
						<path class="st10" d="M214.1,188.2v0.6c-0.5,0.6-1.3,1.1-2.1,1.4l-0.2-2H214.1z"/>
					</g>
				</g>
			</g>
			<g>
				<g>
					<path class="st10" d="M210.9,190.1h-0.5c-1.1,0-2.4-2.1-2.4-3.2c0-1.3,0.1-2,0-2.8c-0.2-1.2,1-2.2,2.2-2.2h2.4
						c0.9,0,1.7,0.7,1.7,1.7v4C214.3,188.9,212.3,190.1,210.9,190.1z"/>
				</g>
			</g>
			<g>
				<g>
					<path class="st3" d="M210.6,181.9c0,0-0.2,1.8,2.8,1.7c0,0-0.1,3.6,1.5,3.8l0.3-1.2c0,0,0.7-3.9-0.8-4.6
						C212.9,181,210.6,181.9,210.6,181.9z"/>
				</g>
			</g>
			<g>
				<g>
					<path class="st10" d="M215.9,190.9c-0.3-0.2-0.7-0.3-1.2-0.2l-1.4,0.2c-0.7,0.1-1.2,0.4-1.7,0.7
						C213.1,191.9,214.8,191.7,215.9,190.9z"/>
				</g>
			</g>
			<g>
				<g>
					<path class="st3" d="M218.1,193.3c-0.1-1.1-1.1-2.1-2.1-2.4c-1.1,0.9-2.8,1.1-4.3,0.7c-1.1,0.8-1.7,2.3-1.5,3.7l1.4,8.1l7.3-1
						C218.9,202.4,218.3,195.7,218.1,193.3z"/>
				</g>
			</g>
			<g>
				<g>
					<path class="st12" d="M191.1,216.4c0,0,0.3-0.3,0.8-0.9c0.5-0.5,1.2-1.3,2.1-2.2c0.9-0.9,5.7-5.8,5.7-5.8l0.1-0.1
						c0.1-0.1,0.1-0.1,0.2-0.2c0.2-0.1,0.3-0.2,0.5-0.3c0.3-0.2,0.7-0.3,1.1-0.4c0.1,0,0.2,0,0.3-0.1c0,0,8.2-0.8,8.9-0.9
						c1.2-0.3,0.8-2.6,0.8-2.6l7.3-1.1c0.1,1,0.7,2.1,0.9,2.8c0.3,1.1,0.1,2.2-0.4,3.1c-0.5,0.9-1.4,1.6-2.5,1.9
						c-0.5,0.1-1.1,0.2-1.6,0.1c-0.2,0-0.5,0-0.9,0.1c-0.7,0.1-1.8,0.1-3,0.2c-0.6,0-1.3,0.1-2,0.1c-0.7,0-1.5,0.1-2.3,0.1
						c-0.8,0-1.6,0.1-2.4,0.1c-0.7,0-1.4,0.1-2.2,0.1c0,0-0.1,0-0.1,0c0,0,0,0,0,0l0,0c0,0,0,0,0,0l0,0l0,0
						c-0.3,0.3-0.6,0.6-0.9,0.8c-0.6,0.6-1.2,1.1-1.8,1.6c-1.2,1.1-2.3,2-3.2,2.8c-1,0.8-1.8,1.5-2.3,2c-0.6,0.5-0.9,0.7-0.9,0.7
						c-0.5,0.4-1.4,0.4-1.9,0C190.6,218,190.5,217,191.1,216.4z"/>
				</g>
			</g>
			<g id="_x38_._Right_shoe_107_">
				<g>
					<g>
						<ellipse transform="matrix(0.315 -0.9491 0.9491 0.315 -75.4965 331.361)" class="st3" cx="191.8" cy="218" rx="2" ry="2"/>
					</g>
				</g>
				<g>
					<g>
						<path class="st3" d="M183.9,217.5l7.2,2.4c0.8,0.3,1.6-0.2,1.8-0.9l0,0c0.3-0.8-0.2-2.8-0.9-3l-7.7-0.3c-0.8,0-1.3,1-0.7,1.6
							C183.7,217.4,183.8,217.4,183.9,217.5z"/>
					</g>
				</g>
				<g>
					<g>
						<path class="st1" d="M189.5,216.8L189.5,216.8c0.2,0,0.4-0.2,0.3-0.4l-0.1-0.8c0-0.2-0.2-0.3-0.3-0.3l0,0
							c-0.2,0-0.4,0.2-0.3,0.4l0.1,0.8C189.2,216.7,189.4,216.8,189.5,216.8z"/>
					</g>
				</g>
				<g>
					<g>
						<path class="st1" d="M188.4,216.8L188.4,216.8c0.2,0,0.4-0.2,0.3-0.4l-0.1-0.8c0-0.2-0.2-0.3-0.3-0.3l0,0
							c-0.2,0-0.4,0.2-0.3,0.4l0.1,0.8C188.1,216.7,188.3,216.8,188.4,216.8z"/>
					</g>
				</g>
				<g>
					<g>
						
							<ellipse transform="matrix(0.3149 -0.9491 0.9491 0.3149 -75.489 331.3788)" class="st12" cx="191.8" cy="218" rx="1.2" ry="1.2"/>
					</g>
				</g>
			</g>
			<g>
				<g>
					<path class="st11" d="M211.5,188.1c-0.1,0.5-0.6,0.9-1.1,0.9c-0.6,0-1-0.4-1.1-0.9H211.5z"/>
				</g>
			</g>
			<g>
				<g>
					<path class="st10" d="M197.5,202.7c0.5-0.1,1-0.3,1.3-0.7l-0.5-3.2c-0.4-0.3-0.9-0.4-1.4-0.3c-1.2,0.2-2,1.3-1.8,2.5
						C195.2,202,196.3,202.8,197.5,202.7z"/>
				</g>
			</g>
			<g>
				<g>
					<path class="st3" d="M217.9,202.9c0.3-0.1,0.5-0.3,0.7-0.6c0.2-0.3,0.2-0.6,0.1-1l-2.8-9.1l-2.4,0.7l2.4,7.9l-5.9,1.6l0.7,2.4
						L217.9,202.9C217.8,202.9,217.8,202.9,217.9,202.9z"/>
				</g>
			</g>
			<g>
				<g>
					<polygon class="st3" points="218.6,200.8 216.5,193.4 216.1,193.5 218.2,200.9 					"/>
				</g>
			</g>
			<g>
				<g>
					<polygon class="st3" points="215.3,198.6 214.1,194.2 213.6,194.3 214.9,198.7 					"/>
				</g>
			</g>
			<g>
				<g>
					<path class="st10" d="M207,203.4c-0.1,0.5,0.1,1,0.3,1.4l3.2,0.4c0.4-0.3,0.6-0.8,0.7-1.3c0.2-1.2-0.7-2.3-1.8-2.4
						C208.2,201.4,207.1,202.2,207,203.4z"/>
				</g>
			</g>
			<g>
				<g>
					<path class="st2" d="M212.8,205c0-0.3-0.2-0.5-0.5-0.5h-19.4c-0.4,0-0.7,0.2-0.7,0.5c0,0.3,0.3,0.5,0.7,0.5h19.4
						C212.5,205.6,212.8,205.3,212.8,205L212.8,205z"/>
				</g>
				<g>
					<path class="st1" d="M213.5,205c0,0.3-0.3,0.5-0.6,0.5h-7.4c-0.3,0-0.6-0.2-0.6-0.5c0-0.3,0.3-0.5,0.6-0.5h7.4
						C213.3,204.5,213.5,204.7,213.5,205z"/>
				</g>
				<g>
					<path class="st1" d="M192.1,194.5v9.8c0,0.4,0.4,0.8,0.8,0.8h12.9c0.4,0,0.8-0.4,0.8-0.8v-9.8c0-0.4-0.4-0.8-0.8-0.8h-12.9
						C192.5,193.7,192.1,194,192.1,194.5z"/>
				</g>
				<g>
					<g>
						<path class="st2" d="M191.5,194.5v9.8c0,0.4,0.4,0.8,0.8,0.8h12.9c0.4,0,0.8-0.4,0.8-0.8v-9.8c0-0.4-0.4-0.8-0.8-0.8h-12.9
							C191.9,193.7,191.5,194,191.5,194.5z"/>
					</g>
				</g>
				<g>
					<path class="st1" d="M200.9,199.3L200.9,199.3c0-0.5-0.4-0.8-0.8-0.8h-2.6c-0.5,0-0.8,0.4-0.8,0.8l0,0c0,0.5,0.4,0.8,0.8,0.8
						h2.6C200.5,200.2,200.9,199.8,200.9,199.3z"/>
				</g>
			</g>
		</g>
		<g>
			<g id="_x38_._Right_shoe_106_">
				<g>
					<g>
						
							<ellipse transform="matrix(0.2743 -0.9616 0.9616 0.2743 -28.6905 396.4904)" class="st3" cx="248.4" cy="217.3" rx="2.2" ry="2.2"/>
					</g>
				</g>
				<g>
					<g>
						<path class="st3" d="M239.7,217.1l8,2.3c0.8,0.2,1.7-0.2,2-1.1l0,0c0.2-0.8-0.3-3-1.2-3.2l-8.4,0.1c-0.9,0-1.4,1.2-0.7,1.8
							C239.5,217,239.6,217,239.7,217.1z"/>
					</g>
				</g>
				<g>
					<g>
						<path class="st1" d="M245.8,216L245.8,216c0.2,0,0.4-0.2,0.3-0.5l-0.2-0.8c0-0.2-0.2-0.3-0.4-0.3l0,0c-0.2,0-0.4,0.2-0.3,0.5
							l0.2,0.8C245.5,215.9,245.6,216.1,245.8,216z"/>
					</g>
				</g>
				<g>
					<g>
						<path class="st1" d="M244.6,216.1L244.6,216.1c0.2,0,0.4-0.2,0.3-0.5l-0.2-0.8c0-0.2-0.2-0.3-0.4-0.3l0,0
							c-0.2,0-0.4,0.2-0.3,0.5l0.2,0.8C244.3,216,244.5,216.1,244.6,216.1z"/>
					</g>
				</g>
			</g>
			<g>
				<g>
					<path class="st12" d="M250.8,201.7L250.8,201.7l12-7.1l3.6,3.9l-12.6,6.7l-2.9,12.8l-0.1,0l-3.4-3.1l2.3-11.8
						C249.8,202.6,250.2,202,250.8,201.7z"/>
				</g>
			</g>
			<g id="_x38_._Right_shoe_105_">
				<g>
					<g>
						
							<ellipse transform="matrix(1 -2.460111e-03 2.460111e-03 1 -0.5438 0.6818)" class="st3" cx="276.9" cy="221.4" rx="2" ry="2"/>
					</g>
				</g>
				<g>
					<g>
						<path class="st3" d="M269.4,223.4l7.5,0c0.8,0,1.4-0.6,1.4-1.4l0,0c0-0.8-1-2.5-1.8-2.5l-7.2,2.1c-0.8,0.2-0.9,1.4-0.2,1.7
							C269.1,223.4,269.2,223.4,269.4,223.4z"/>
					</g>
				</g>
				<g>
					<g>
						<path class="st1" d="M274.4,221L274.4,221c0.2-0.1,0.3-0.3,0.2-0.5l-0.4-0.7c-0.1-0.1-0.2-0.2-0.4-0.2l0,0
							c-0.2,0.1-0.3,0.3-0.2,0.5l0.4,0.7C274,221,274.2,221,274.4,221z"/>
					</g>
				</g>
				<g>
					<g>
						<path class="st1" d="M273.3,221.3L273.3,221.3c0.2-0.1,0.3-0.3,0.2-0.5l-0.4-0.7c-0.1-0.1-0.2-0.2-0.4-0.2l0,0
							c-0.2,0.1-0.3,0.3-0.2,0.5l0.4,0.7C273,221.3,273.2,221.4,273.3,221.3z"/>
					</g>
				</g>
			</g>
			<g>
				<g>
					<path class="st12" d="M261.1,192.9l7.9-0.9c0.5,0.6,1.1,2.3,1.3,3.1c0.3,1.2,0,2.5-0.6,3.5c-0.6,1-1.6,1.8-2.9,2
						c-0.6,0.1-3.6,0.2-5-1.2C259.7,197.4,261.1,192.9,261.1,192.9z"/>
				</g>
			</g>
			<g>
				<g>
					<path class="st12" d="M266,197.1h5.1l-2,12.2l8.6,10.1l-4.5,1.3l-8.2-9.2c-0.4-0.5-0.6-1.1-0.5-1.7L266,197.1z"/>
				</g>
			</g>
			<g>
				<g>
					<path d="M245.1,192l11.8-0.2c0.5,0,1-0.3,1.2-0.8l4.6-9.2l-2.5-1.3l-4.3,8.5l-11,0.2L245.1,192z"/>
				</g>
			</g>
			<g>
				<g>
					<polygon class="st10" points="262,173.2 262.4,180.7 265.8,180.5 265.3,173.3 265.2,171.2 					"/>
				</g>
			</g>
			<g>
				<g>
					<g>
						<path class="st10" d="M264.7,175.5c0,0-0.8,1.9-2.4,2.4l-0.1-2.5L264.7,175.5z"/>
					</g>
				</g>
			</g>
			<g>
				<g>
					<path class="st10" d="M260.9,177.6c-0.1,0-0.4-0.1-0.5-0.1c-1.3-0.4-2.6-2.5-2.5-3.7c0.1-1.5,0.2-2.2,0.1-3.2
						c-0.1-1.4,1.2-2.4,2.6-2.4l2.8,0.1c1,0,1.8,0.9,1.8,2l-0.2,4.5C264.8,176.4,262.5,177.9,260.9,177.6z"/>
				</g>
			</g>
			<g>
				<g>
					<path class="st10" d="M266.6,178.6c-0.4-0.2-0.8-0.4-1.3-0.3l-1.5,0.2c-0.7,0.1-1.4,0.4-2,0.8
						C263.3,179.7,265.3,179.5,266.6,178.6z"/>
				</g>
			</g>
			<g>
				<g>
					<path d="M269,181.6c-0.1-1.2-1.1-2.8-2.4-3c-2.2,0.3-4.2,0.4-5,0.6c-1.3,0.9-2.1,2.5-1.9,4.1l0.2,13.8
						c4.2,2.9,11.8,1.8,11.8,1.8C271.6,192.9,269.1,183.9,269,181.6z"/>
				</g>
			</g>
			<g>
				<g>
					<path d="M253.4,191.9l9.7,0.1c0.7,0,1.3-0.5,1.4-1.2l1.6-10.6l-2.8-0.4l-1.4,9.4l-8.4-0.1L253.4,191.9z"/>
				</g>
			</g>
			<g>
				<g>
					<path class="st3" d="M261.9,179.1c0.6-0.2,1.8-0.2,3.5-0.4c-1,2.3-3.7,4.3-4.5,7C260.6,185.2,260.7,180,261.9,179.1z"/>
				</g>
			</g>
			<g>
				<g>
					<path class="st2" d="M262.1,179.5c0.1-0.1,0.5-0.4,0.5-0.5c0.3,0,0.2,0.1,0.6,0c-1.1,1-0.5,2.7-0.9,4.2c-0.5,0.8-1,1.6-1.3,2.5
						c-0.2-0.3-0.3-2-0.1-3.6C260.9,181.9,261.2,180.5,262.1,179.5z"/>
				</g>
			</g>
			<g>
				<path class="st13" d="M261.9,179.8c0.1,0.2,0.7,0.3,0.9,0.1c0.2-0.1,0.3-0.8,0.3-0.8l-1.3-0.2
					C261.8,178.9,261.8,179.6,261.9,179.8z"/>
			</g>
			<g>
				<g>
					<path class="st4" d="M259.6,171c-5.3-1.2-1.5-4.6-1.5-4.6s0.1,1.3,1.1,0.9c2-0.8,6.3-1.3,7.5,1.3c0.9,2-0.8,6.4-1.1,7.6
						c-0.5-0.3-0.1-5.5-2.3-5.3C262.1,170.9,260.7,171.2,259.6,171z"/>
				</g>
			</g>
			<g>
				<g>
					<path class="st11" d="M260.4,176.5c-1.1,0-0.4-1.8,0-1.8C260.8,174.7,261.4,176.5,260.4,176.5z"/>
				</g>
			</g>
			<g>
				<polygon class="st1" points="263.9,180.4 266.6,178.6 265.7,177.6 262.4,179 				"/>
			</g>
			<g>
				<polygon class="st1" points="261.6,179.7 261.8,179.1 262.3,178.6 262.5,179 				"/>
			</g>
			<g>
				<g>
					<path class="st2" d="M264,188.6c0-0.3-0.3-0.6-0.6-0.6h-21.6c-0.5,0-0.8,0.3-0.8,0.6c0,0.3,0.4,0.6,0.8,0.6h21.6
						C263.8,189.2,264,188.9,264,188.6L264,188.6z"/>
				</g>
				<g>
					<path class="st6" d="M264.9,188.6c0,0.3-0.3,0.6-0.6,0.6H256c-0.4,0-0.6-0.3-0.6-0.6c0-0.3,0.3-0.6,0.6-0.6h8.2
						C264.6,188,264.9,188.3,264.9,188.6z"/>
				</g>
				<g>
					<path class="st6" d="M241.1,176.8v10.9c0,0.5,0.4,0.9,0.9,0.9h14.4c0.5,0,0.9-0.4,0.9-0.9v-10.9c0-0.5-0.4-0.9-0.9-0.9h-14.4
						C241.5,176,241.1,176.3,241.1,176.8z"/>
				</g>
				<g>
					<path class="st1" d="M240.4,176.8v10.9c0,0.5,0.4,0.9,0.9,0.9h14.4c0.5,0,0.9-0.4,0.9-0.9v-10.9c0-0.5-0.4-0.9-0.9-0.9h-14.4
						C240.8,176,240.4,176.3,240.4,176.8z"/>
				</g>
				<g>
					<path class="st0" d="M250.8,182.3L250.8,182.3c0-0.5-0.4-0.9-0.9-0.9H247c-0.5,0-0.9,0.4-0.9,0.9l0,0c0,0.5,0.4,0.9,0.9,0.9
						h2.9C250.4,183.2,250.8,182.8,250.8,182.3z"/>
				</g>
			</g>
			<g>
				<g>
					<path class="st10" d="M254.4,190.5c0.1-0.6,0-1.2-0.3-1.6l-3.6-0.6c-0.4,0.4-0.7,0.9-0.8,1.4c-0.2,1.3,0.7,2.6,2,2.8
						C252.9,192.7,254.1,191.8,254.4,190.5z"/>
				</g>
			</g>
			<g>
				<g>
					<path class="st10" d="M246.7,189.8c0-0.6-0.1-1.2-0.4-1.6l-3.7-0.3c-0.4,0.4-0.7,0.9-0.7,1.5c-0.1,1.3,0.9,2.5,2.2,2.6
						C245.4,192.1,246.6,191.1,246.7,189.8z"/>
				</g>
			</g>
		</g>
		<g>
			<g>
				<g>
					
						<ellipse transform="matrix(3.598350e-03 -1 1 3.598350e-03 18.1463 215.9642)" class="st4" cx="117.4" cy="98.9" rx="3.7" ry="2.3"/>
				</g>
			</g>
			<g>
				<g>
					<path class="st4" d="M128.8,104.4c-1.5-0.9-3.2-3-2.5-4.9c1.5-4.5-2-6.1-3.7-6.4c-1.7-0.3-3.2,0.1-4.2,0.9
						c-1.6,1.2-1.1,3.4-0.2,5.1c-0.9,0.5-1.4,1.7-0.9,2.6c1.2,1.9,0.2,4.4-0.5,6c-1.1,2.4,0.4,5.5,3.2,6.8c2.7,1.4,6.3,1.2,9.1,0
						c1.4-0.6,2.6-1.5,3.2-2.7C133.6,109.2,131.7,106,128.8,104.4z"/>
				</g>
			</g>
			<g>
				<g>
					<path class="st10" d="M109.9,121.5c-0.7,0.1-1.3,0.2-2.1,0.2c-0.5,0-1-0.4-1-0.9c0-0.5,0.4-1,0.9-1c3.4-0.1,5.9-1.1,7.5-2.9
						c2.4-2.8,2-6.8,2-6.8c-0.1-0.5,0.3-1,0.8-1.1c0.5-0.1,1,0.3,1.1,0.8c0,0.2,0.6,4.8-2.4,8.3C115.1,119.9,112.8,121,109.9,121.5z
						"/>
				</g>
			</g>
			<g>
				<path class="st3" d="M117.9,108.2c-0.9,0.1-1.5,1-1.4,1.8c0,0,0.4,3.7-1.8,6.3c-1.1,1.3-2.7,2.1-4.7,2.5c0.6,1,0.7,2.3,0.2,3.3
					c3-0.5,5.3-1.7,7-3.6c3.2-3.7,2.6-8.6,2.6-8.9C119.7,108.7,118.9,108.1,117.9,108.2z"/>
			</g>
			<g>
				<g>
					<path class="st10" d="M118.2,109.8c-0.5-0.2-0.9-1-0.3-1.7c0.6-0.7,1.5-1,2.4-1.1l0.2,0c0.8,0,1.6,0.3,2.1,0.9
						C122.3,109.3,119.5,110.3,118.2,109.8z"/>
				</g>
			</g>
			<g>
				<g>
					<path class="st10" d="M119.8,105.1l0,1.1l0,2l1.6,0l0-2.6l0-1C120.9,105,120.4,105.2,119.8,105.1z"/>
				</g>
			</g>
			<g>
				<g>
					<g>
						<path class="st10" d="M119.8,105.4l0,1.1c0.6-0.1,1.2-0.3,1.6-0.7l0-0.8C120.9,105.3,120.4,105.4,119.8,105.4z"/>
					</g>
				</g>
			</g>
			<g>
				<g>
					<path class="st10" d="M120.2,106L120.2,106c1.5,0,2.8-0.7,3.6-1.8c0.6-0.8,0.9-1.7,0.9-2.7l0-1.8c0-1.3-0.6-2.5-1.4-3.3
						c-0.8-0.8-1.9-1.2-3.1-1.2l0,0c-0.8,0-1.5,0.2-2.2,0.6c-1.4,0.8-2.3,2.3-2.3,4l0,1.8c0,1.6,0.9,3.1,2.2,3.8
						C118.5,105.7,119.3,106,120.2,106z"/>
				</g>
			</g>
			<g>
				<g>
					
						<ellipse transform="matrix(0.222 -0.975 0.975 0.222 -24.5025 212.5624)" class="st12" cx="121" cy="121.6" rx="4.3" ry="4.3"/>
				</g>
			</g>
			<g>
				<g>
					<path class="st11" d="M119.9,103.6c-0.1,0.6-0.6,1-1.2,1c-0.6,0-1.1-0.4-1.2-1L119.9,103.6z"/>
				</g>
			</g>
			<g>
				<g>
					<path class="st3" d="M115.9,110.5c-0.3,0.8,0.5,1.6,1.4,1.7c0.9,0.1,1.6-0.5,1.7-1.4c0.1-0.9-1.2-2.7-1.7-2
						C116.9,109.5,116.2,109.8,115.9,110.5z"/>
				</g>
			</g>
			<g>
				<g>
					<path class="st3" d="M122.9,108.5c0.4,0.4,0.6,0.9,0.6,1.5c0,0-0.4,6.8,1.5,9.9l-7.9,0.7l0.2-9.4c0-1,0.3-1.9,1-2.6
						C118.3,110.2,121.4,108.4,122.9,108.5z"/>
				</g>
			</g>
			<g>
				<g>
					<g>
						<g>
							<path class="st3" d="M117.2,139.5c-0.8,0-1.1,0.7-1.2,1c-0.4,1.1-0.2,2.3-0.9,4.1c-0.5,1.3-1,1.5-1.3,2.6
								c-0.3,0.9,0.5,1.2,1.3,0.9c0.3-0.1,2.3-0.6,2.4-2.2c0-1.2-0.1-2.1,0.3-3.1c0.4-1,0.7-0.4,0.8-0.1c0.1,0.2,0.4,0.8,0.4,1
								c0,0.1,0.1,0.1,0.2,0.1l0,0c0.1,0,0.1-0.1,0.1-0.2c-0.1-0.2-0.3-1-0.4-2C118.7,140.3,117.8,139.5,117.2,139.5z"/>
						</g>
					</g>
				</g>
				<g>
					<g>
						<g>
							<path class="st10" d="M116.4,145c0.4-0.9,0.9-3.8,0.7-4.4c-0.3-0.7-1.8-0.8-1.9-0.1c-0.2,1.2,0.3,3.2-0.6,5.3
								C114.6,146.3,115.9,146.1,116.4,145z"/>
						</g>
					</g>
				</g>
			</g>
			<g>
				<g>
					<path class="st12" d="M122.3,125.6l-10.1,4.7l1-2.3l3.7,12.2c0.2,0.7-0.2,1.5-0.9,1.7c-0.7,0.2-1.5-0.2-1.7-0.8l-4.6-11.9
						c-0.3-0.9,0.1-1.8,0.9-2.2l0.1,0l10.1-4.8c1-0.5,2.1-0.1,2.6,0.9C123.7,124,123.3,125.1,122.3,125.6
						C122.3,125.6,122.3,125.6,122.3,125.6z"/>
				</g>
			</g>
			<g>
				<g>
					<g>
						<g>
							<path class="st3" d="M110.4,135.7c-0.7-0.3-1.4,0.1-1.5,0.3c-0.8,0.8-1.3,1.9-2.8,3.2c-1,0.9-1.6,0.9-2.4,1.7
								c-0.7,0.7-0.1,1.3,0.8,1.4c0.3,0,2.4,0.5,3.1-0.9c0.6-1,0.9-1.9,1.7-2.6c0.8-0.7,0.8-0.1,0.8,0.3c0,0.2-0.1,0.9-0.1,1.1
								c0,0.1,0.1,0.1,0.1,0.2l0,0c0.1,0,0.2-0.1,0.2-0.1c0-0.3,0.2-1,0.6-2C111.4,137.1,111,136,110.4,135.7z"/>
						</g>
					</g>
				</g>
				<g>
					<g>
						<g>
							<path class="st10" d="M107.1,140.2c0.8-0.6,2.6-2.9,2.7-3.6c0.1-0.8-1.3-1.6-1.7-1c-0.7,0.9-1.2,2.9-3,4.4
								C104.9,140.5,106.1,140.9,107.1,140.2z"/>
						</g>
					</g>
				</g>
			</g>
			<g>
				<g>
					<path class="st12" d="M121.6,125.9l-11.1-0.6l1.9-1.6l-2.4,12.5c-0.1,0.8-0.9,1.3-1.6,1.1c-0.7-0.1-1.2-0.8-1.1-1.5l1.5-12.6
						c0.1-0.9,0.9-1.6,1.8-1.6l0.1,0l11.2,0.4c1.1,0,1.9,0.9,1.8,2C123.6,125.1,122.7,125.9,121.6,125.9
						C121.6,125.9,121.6,125.9,121.6,125.9z"/>
				</g>
			</g>
			<g>
				<g>
					<path class="st10" d="M122.4,121.6c-0.5,0.1-1,0.1-1.6,0.2c-0.5,0-1-0.4-1-0.9c0-0.5,0.4-1,0.9-1c1.8-0.1,4-0.5,4.6-2
						c0.9-2.3-2.2-6.4-3.4-7.6c-0.4-0.4-0.3-1,0.1-1.4c0.4-0.4,1-0.3,1.4,0.1c0.5,0.6,5.2,5.9,3.7,9.6
						C126.4,120.2,124.8,121.2,122.4,121.6z"/>
				</g>
			</g>
			<g>
				<path class="st3" d="M124,109c-0.4-0.4-0.9-0.6-1.4-0.5c-0.4,0.1-0.7,0.2-0.9,0.5c-0.5,0.6-0.5,1.6,0.1,2.2
					c1.3,1.4,3.7,4.9,3.1,6.6c-0.1,0.3-0.4,0.5-0.7,0.7c-0.6,0.4-0.9,1-0.8,1.7c0,0,0,0,0,0c0.2,1,1.4,1.6,2.3,1.1
					c1-0.6,1.7-1.3,2.1-2.3C129.3,115.1,124.9,110,124,109z"/>
			</g>
			<g>
				<g>
					<path class="st10" d="M116.7,120.7c0,0.6,0.3,1.1,0.7,1.4l3.5-0.3c0.3-0.4,0.5-1,0.4-1.5c-0.1-1.3-1.2-2.2-2.5-2.1
						C117.6,118.3,116.6,119.4,116.7,120.7z"/>
				</g>
			</g>
			<g>
				<g>
					<path class="st10" d="M104.8,121.1c0,0.6,0.2,1.1,0.6,1.5l3.5-0.1c0.3-0.4,0.5-0.9,0.5-1.5c-0.1-1.3-1.1-2.3-2.4-2.2
						C105.8,118.8,104.8,119.9,104.8,121.1z"/>
				</g>
			</g>
			<g>
				<g>
					
						<ellipse transform="matrix(0.331 -0.9436 0.9436 0.331 -10.6321 179.4958)" class="st4" cx="121.3" cy="97.2" rx="2.8" ry="4.4"/>
				</g>
			</g>
			<g>
				<g>
					<path class="st4" d="M123,122c0-0.3-0.3-0.6-0.6-0.6h-20.9c-0.4,0-0.8,0.3-0.8,0.6c0,0.3,0.4,0.6,0.8,0.6h20.9
						C122.8,122.6,123,122.4,123,122L123,122z"/>
				</g>
				<g>
					<path class="st1" d="M123.8,122c0,0.3-0.3,0.6-0.6,0.6h-7.9c-0.3,0-0.6-0.3-0.6-0.6c0-0.3,0.3-0.6,0.6-0.6h7.9
						C123.6,121.5,123.8,121.7,123.8,122z"/>
				</g>
				<g>
					<path class="st1" d="M100.8,110.7v10.5c0,0.5,0.4,0.8,0.8,0.8h13.9c0.5,0,0.8-0.4,0.8-0.8v-10.5c0-0.5-0.4-0.8-0.8-0.8h-13.9
						C101.2,109.8,100.8,110.2,100.8,110.7z"/>
				</g>
				<g>
					<g>
						<path class="st4" d="M100.2,110.7v10.5c0,0.5,0.4,0.8,0.8,0.8h13.9c0.5,0,0.8-0.4,0.8-0.8v-10.5c0-0.5-0.4-0.8-0.8-0.8H101
							C100.6,109.8,100.2,110.2,100.2,110.7z"/>
					</g>
				</g>
				<g>
					<path class="st1" d="M110.3,115.9L110.3,115.9c0-0.5-0.4-0.9-0.9-0.9h-2.8c-0.5,0-0.9,0.4-0.9,0.9l0,0c0,0.5,0.4,0.9,0.9,0.9
						h2.8C109.9,116.8,110.3,116.4,110.3,115.9z"/>
				</g>
			</g>
		</g>
		<g>
			<g>
				<g>
					<path class="st2" d="M137.1,119.5l2.2,3.1c0,0.1,0.1,0.2,0.2,0.3c0.1,0,0.2,0.1,0.2,0.1c0.1,0,0.2,0,0.2-0.1
						c0.1-0.1,0.1-0.2,0.2-0.3l2.2-3.1c0.1-0.2,0.1-0.4-0.1-0.5c-0.2-0.1-0.4-0.1-0.5,0.1l-1.9,2.8l-1.9-2.8
						c-0.1-0.2-0.3-0.2-0.5-0.1C137,119.1,137,119.3,137.1,119.5z"/>
				</g>
			</g>
			<g>
				<g>
					<path class="st2" d="M137.1,116.2l2.2,3.1c0,0.1,0.1,0.2,0.2,0.3c0.1,0,0.2,0.1,0.2,0.1c0.1,0,0.2,0,0.2-0.1
						c0.1-0.1,0.1-0.2,0.2-0.3l2.2-3.1c0.1-0.2,0.1-0.4-0.1-0.5c-0.2-0.1-0.4-0.1-0.5,0.1l-1.9,2.8l-1.9-2.8
						c-0.1-0.2-0.3-0.2-0.5-0.1C137,115.8,137,116,137.1,116.2z"/>
				</g>
			</g>
			<g>
				<g>
					<path class="st2" d="M136.9,112.8l2.2,3.1c0,0.1,0.1,0.2,0.2,0.3c0.1,0.1,0.2,0.1,0.2,0.1c0.1,0,0.2,0,0.2-0.1
						c0.1-0.1,0.1-0.2,0.2-0.3l2.2-3.1c0.1-0.2,0.1-0.4-0.1-0.5c-0.2-0.1-0.4-0.1-0.5,0.1l-1.9,2.8l-1.9-2.8
						c-0.1-0.2-0.3-0.2-0.5-0.1C136.9,112.4,136.8,112.7,136.9,112.8z"/>
				</g>
			</g>
			<g>
				<g>
					<path class="st2" d="M136.9,109.5l2.2,3.1c0,0.1,0.1,0.2,0.2,0.3c0.1,0,0.2,0.1,0.2,0.1c0.1,0,0.2,0,0.2-0.1
						c0.1-0.1,0.1-0.2,0.2-0.3l2.2-3.1c0.1-0.2,0.1-0.4-0.1-0.5c-0.2-0.1-0.4-0.1-0.5,0.1l-1.9,2.8l-1.9-2.8
						c-0.1-0.2-0.3-0.2-0.5-0.1C136.9,109.1,136.8,109.4,136.9,109.5z"/>
				</g>
			</g>
		</g>
		<g>
			<g>
				<g>
					<path class="st2" d="M175.8,79.5l3.6,5.2c0,0.2,0.1,0.3,0.3,0.4c0.1,0.1,0.3,0.1,0.4,0.1c0.1,0,0.3,0,0.4-0.1
						c0.1-0.1,0.2-0.3,0.3-0.4l3.6-5.2c0.2-0.3,0.1-0.7-0.2-0.9c-0.3-0.2-0.7-0.1-0.9,0.2l-3.2,4.7l-3.2-4.7
						c-0.2-0.3-0.6-0.3-0.9-0.2C175.7,78.8,175.6,79.2,175.8,79.5z"/>
				</g>
			</g>
			<g>
				<g>
					<path class="st2" d="M175.8,73.9l3.6,5.2c0,0.2,0.1,0.3,0.3,0.4c0.1,0.1,0.3,0.1,0.4,0.1c0.1,0,0.3,0,0.4-0.1
						c0.1-0.1,0.2-0.3,0.3-0.4l3.6-5.2c0.2-0.3,0.1-0.7-0.2-0.9c-0.3-0.2-0.7-0.1-0.9,0.2l-3.2,4.7l-3.2-4.7
						c-0.2-0.3-0.6-0.3-0.9-0.2C175.7,73.2,175.6,73.6,175.8,73.9z"/>
				</g>
			</g>
			<g>
				<g>
					<path class="st2" d="M175.6,68.3l3.6,5.2c0,0.2,0.1,0.3,0.3,0.4c0.1,0.1,0.3,0.1,0.4,0.1c0.1,0,0.3,0,0.4-0.1
						c0.1-0.1,0.2-0.3,0.3-0.4l3.6-5.2c0.2-0.3,0.1-0.7-0.2-0.9c-0.3-0.2-0.7-0.1-0.9,0.2l-3.2,4.7l-3.2-4.7
						c-0.2-0.3-0.6-0.3-0.9-0.2C175.5,67.7,175.4,68.1,175.6,68.3z"/>
				</g>
			</g>
			<g>
				<g>
					<path class="st2" d="M175.6,62.8l3.6,5.2c0,0.2,0.1,0.3,0.3,0.4c0.1,0.1,0.3,0.1,0.4,0.1c0.1,0,0.3,0,0.4-0.1
						c0.1-0.1,0.2-0.3,0.3-0.4l3.6-5.2c0.2-0.3,0.1-0.7-0.2-0.9c-0.3-0.2-0.7-0.1-0.9,0.2l-3.2,4.7l-3.2-4.7
						c-0.2-0.3-0.6-0.4-0.9-0.2C175.5,62.1,175.4,62.5,175.6,62.8z"/>
				</g>
			</g>
		</g>
		<g>
			<g>
				<g>
					<g>
						<g>
							<g>
								<path class="st2" d="M164.8,71.6h-26.7c-1.9,0-3.4,1.5-3.4,3.4v14.9c0,1.9,1.5,3.4,3.4,3.4h14.3v8.3l8.2-8.3h4.2
									c1.9,0,3.4-1.5,3.4-3.4V75C168.2,73.1,166.7,71.6,164.8,71.6z"/>
							</g>
						</g>
					</g>
				</g>
			</g>
			<g>
				<g>
					<g>
						<g>
							<g>
								<path class="st3" d="M144.6,87.4l-3.9-3.9c-0.2-0.2-0.2-0.6,0-0.8l3.8-3.8l0.8,0.8l-3.4,3.4l3.5,3.5L144.6,87.4z"/>
							</g>
						</g>
					</g>
					<g>
						<g>
							<g>
								<path class="st3" d="M158.3,87.5l-0.8-0.8l3.5-3.5l-3.5-3.5l0.8-0.8l3.9,3.9c0.1,0.1,0.2,0.3,0.2,0.4c0,0.2-0.1,0.3-0.2,0.4
									L158.3,87.5z"/>
							</g>
						</g>
					</g>
					<g>
						<g>
							<g>
								
									<rect x="144.2" y="82.6" transform="matrix(0.4061 -0.9138 0.9138 0.4061 14.1482 188.0489)" class="st3" width="15" height="1.1"/>
							</g>
						</g>
					</g>
				</g>
			</g>
		</g>
		<g>
			<g>
				<path class="st2" d="M305.5,226.3H46.2c-0.8,0-1.5-0.7-1.5-1.5c0-0.8,0.7-1.5,1.5-1.5h259.3c0.8,0,1.5,0.7,1.5,1.5
					C307,225.6,306.3,226.3,305.5,226.3z"/>
			</g>
		</g>
		<g>
			<g>
				<path class="st2" d="M157.2,237.9h-40c-0.8,0-1.5-0.7-1.5-1.5s0.7-1.5,1.5-1.5h40c0.8,0,1.5,0.7,1.5,1.5S158,237.9,157.2,237.9z
					"/>
			</g>
			<g>
				<path class="st2" d="M105.2,237.9h-10c-0.8,0-1.5-0.7-1.5-1.5s0.7-1.5,1.5-1.5h10c0.8,0,1.5,0.7,1.5,1.5S106,237.9,105.2,237.9z
					"/>
			</g>
		</g>
		<g>
			<g>
				<g>
					<g>
						<path d="M129.7,229.9c-0.5,0-1-0.2-1.3-0.7l-5.7-7.7c-0.4-0.6-0.4-1.4,0.1-2l7.4-9c0.6-0.7,1.6-0.8,2.3-0.2
							c0.7,0.6,0.8,1.6,0.2,2.3l-6.6,8l4.9,6.7c0.5,0.7,0.4,1.8-0.4,2.3C130.3,229.8,130,229.9,129.7,229.9z"/>
					</g>
				</g>
			</g>
			<g>
				<g>
					<g>
						<path d="M140.5,229.9c-0.3,0-0.7-0.1-1-0.3c-0.7-0.5-0.9-1.6-0.4-2.3l4.9-6.7l-6.6-8c-0.6-0.7-0.5-1.7,0.2-2.3
							c0.7-0.6,1.7-0.5,2.3,0.2l7.4,8.9c0.5,0.6,0.5,1.4,0.1,2l-5.7,7.8C141.5,229.7,141,229.9,140.5,229.9z"/>
					</g>
				</g>
			</g>
			<g>
				<g>
					<g>
						<circle class="st3" cx="135.2" cy="200.6" r="4.7"/>
					</g>
				</g>
			</g>
			<g>
				<g>
					<g>
						<polygon class="st10" points="137,206.3 137,210.8 136.9,213.8 133.5,213.7 133.7,206.6 133.7,204.5 						"/>
					</g>
				</g>
			</g>
			<g>
				<g>
					<g>
						<path d="M130.1,213.4c0-1.4,1.2-2.8,2.5-3.4c1.9-1,4.8-0.3,5.7,0.3c1.6,0.9,2.5,2.8,2.4,4.8l0.1,10.4h-11.1
							C129.7,225.4,130.1,216.5,130.1,213.4z"/>
					</g>
				</g>
			</g>
			<g>
				<g>
					<g>
						<path class="st10" d="M137.7,210c-1.4-0.6-3.3-0.8-4.8-0.1l1.2,1.2c0.7,0.7,1.9,0.7,2.6,0C137,210.7,137.3,210.3,137.7,210z"
							/>
					</g>
				</g>
			</g>
			<g>
				<g>
					<g>
						<path class="st10" d="M136.1,197.9h-1.8c-1.6,0-3.1,1.3-2.9,2.9c0.1,1.1,0,2,0,3.7c0,1.4,1.7,4.2,3.1,4.2h1.3
							c1.4,0,3.1-2.8,3.1-4.2c0-1.7-0.1-2.5,0-3.7C139.2,199.2,137.7,197.9,136.1,197.9z"/>
					</g>
				</g>
			</g>
			<g>
				<g>
					<g>
						<path class="st11" d="M133.8,206c0.1,0.7,0.7,1.2,1.4,1.2c0.7,0,1.3-0.5,1.4-1.2H133.8z"/>
					</g>
				</g>
			</g>
			<g>
				<g>
					<g>
						<path class="st9" d="M137,235.4h-3.6c-2.6,0-4.5-2.3-4-4.9l0.2-5.1h11.1l0.2,5.1C141.5,233.1,139.6,235.4,137,235.4z"/>
					</g>
				</g>
			</g>
			<g>
				<g>
					<g>
						<path class="st12" d="M119,229.7l15.1-1.4l0.4,4.5l-15.1,1.4c-1.2,0.1-2.3-0.8-2.5-2l0,0C116.9,230.9,117.8,229.8,119,229.7z"
							/>
					</g>
				</g>
			</g>
			<g>
				<g>
					<g>
						<path class="st12" d="M149.2,229.7l-15.1-1.4l-0.4,4.5l15.1,1.4c1.2,0.1,2.3-0.8,2.5-2l0,0
							C151.4,230.9,150.5,229.8,149.2,229.7z"/>
					</g>
				</g>
			</g>
			<g>
				<g>
					<g>
						<path class="st1" d="M141.5,232.7H129c-0.6,0-1.2-0.5-1.2-1.2v-8.3c0-0.6,0.5-1.2,1.2-1.2h12.6c0.6,0,1.2,0.5,1.2,1.2v8.3
							C142.7,232.2,142.2,232.7,141.5,232.7z"/>
					</g>
				</g>
			</g>
			<g>
				<g>
					<g>
						<path class="st2" d="M141.5,233.2H129c-0.6,0-1.2-0.5-1.2-1.2v-8.3c0-0.6,0.5-1.2,1.2-1.2h12.6c0.6,0,1.2,0.5,1.2,1.2v8.3
							C142.7,232.7,142.2,233.2,141.5,233.2z"/>
					</g>
				</g>
			</g>
			<g>
				<g>
					<g>
						<path class="st1" d="M137,228.8h-3.4c-0.5,0-0.9-0.4-0.9-0.9v0c0-0.5,0.4-0.9,0.9-0.9h3.4c0.5,0,0.9,0.4,0.9,0.9v0
							C137.8,228.4,137.4,228.8,137,228.8z"/>
					</g>
				</g>
			</g>
			<g>
				<g>
					<g>
						<g>
							<path class="st1" d="M129.3,237.4l4.4-0.3l0,0.1c0,0.3,0.2,0.5,0.4,0.5c0.2,0,0.4-0.2,0.4-0.3l0-0.3l0.5,0l0,0.1
								c0,0.3,0.2,0.5,0.4,0.5c0.2,0,0.4-0.2,0.4-0.3l0.1-0.3l2.8-0.2c0.1,0,0.1-0.1,0.2-0.1c0.1,0,0.2-0.1,0.3-0.1
								c1.3-0.5,1.9-1.9,1.5-3.1c-0.5-1.3-1.9-1.9-3.1-1.5c0,0,0,0,0,0c0,0,0,0,0,0l-8.8,3.2c-0.1,0-0.3,0.1-0.4,0.2
								C127.6,236.2,128.2,237.5,129.3,237.4z"/>
						</g>
					</g>
				</g>
				<g id="_x38_._Right_shoe_104_">
					<g>
						<g>
							<g>
								
									<ellipse transform="matrix(0.9403 -0.3403 0.3403 0.9403 -71.6928 61.0906)" class="st3" cx="138.3" cy="234.9" rx="2.5" ry="2.5"/>
							</g>
						</g>
					</g>
					<g>
						<g>
							<g>
								<path class="st3" d="M128.7,235.8l8.8-3.2c0.9-0.3,1.9,0.1,2.3,1.1l0,0c0.3,0.9-0.1,3.4-1.1,3.7l-9.4,0.6
									c-1,0.1-1.7-1.2-1-1.9C128.4,236,128.5,235.9,128.7,235.8z"/>
							</g>
						</g>
					</g>
					<g>
						<g>
							<g>
								<path class="st1" d="M135.6,236.5L135.6,236.5c0.3,0,0.5,0.2,0.4,0.5l-0.2,0.9c0,0.2-0.2,0.3-0.4,0.3l0,0
									c-0.3,0-0.5-0.2-0.4-0.5l0.2-0.9C135.2,236.6,135.4,236.5,135.6,236.5z"/>
							</g>
						</g>
					</g>
					<g>
						<g>
							<g>
								<path class="st1" d="M134.2,236.5L134.2,236.5c0.3,0,0.5,0.2,0.4,0.5l-0.2,0.9c0,0.2-0.2,0.3-0.4,0.3l0,0
									c-0.3,0-0.5-0.2-0.4-0.5l0.2-0.9C133.9,236.7,134,236.5,134.2,236.5z"/>
							</g>
						</g>
					</g>
				</g>
			</g>
			<g>
				<g>
					<g>
						<path class="st10" d="M148.3,230.7l-10.2,2.8c-1,0.3-1.6,1.3-1.3,2.3l0,0c0.3,1,1.3,1.6,2.3,1.3l10.2-2.8
							c1-0.3,1.6-1.3,1.3-2.3l0,0C150.3,231,149.3,230.4,148.3,230.7z"/>
					</g>
				</g>
			</g>
			<g>
				<g>
					<g>
						<g>
							<path class="st1" d="M139,237.4l-4.4-0.3l0,0.1c0,0.3-0.2,0.5-0.4,0.5c-0.2,0-0.4-0.2-0.4-0.3l0-0.3l-0.5,0l0,0.1
								c0,0.3-0.2,0.5-0.4,0.5c-0.2,0-0.4-0.2-0.4-0.3l-0.1-0.3l-2.8-0.2c-0.1,0-0.1-0.1-0.2-0.1c-0.1,0-0.2-0.1-0.3-0.1
								c-1.3-0.5-1.9-1.9-1.5-3.1c0.5-1.3,1.9-1.9,3.1-1.5c0,0,0,0,0,0c0,0,0,0,0,0l8.8,3.2c0.1,0,0.3,0.1,0.4,0.2
								C140.7,236.2,140,237.5,139,237.4z"/>
						</g>
					</g>
				</g>
				<g id="_x38_._Right_shoe_103_">
					<g>
						<g>
							<g>
								
									<ellipse transform="matrix(0.3403 -0.9403 0.9403 0.3403 -135.2115 277.177)" class="st3" cx="129.9" cy="234.9" rx="2.5" ry="2.5"/>
							</g>
						</g>
					</g>
					<g>
						<g>
							<g>
								<path class="st3" d="M139.6,235.8l-8.8-3.2c-0.9-0.3-1.9,0.1-2.3,1.1l0,0c-0.3,0.9,0.1,3.4,1.1,3.7l9.4,0.6
									c1,0.1,1.7-1.2,1-1.9C139.8,236,139.7,235.9,139.6,235.8z"/>
							</g>
						</g>
					</g>
					<g>
						<g>
							<g>
								<path class="st1" d="M132.7,236.5L132.7,236.5c-0.3,0-0.5,0.2-0.4,0.5l0.2,0.9c0,0.2,0.2,0.3,0.4,0.3l0,0
									c0.3,0,0.5-0.2,0.4-0.5l-0.2-0.9C133,236.6,132.9,236.5,132.7,236.5z"/>
							</g>
						</g>
					</g>
					<g>
						<g>
							<g>
								<path class="st1" d="M134,236.5L134,236.5c-0.3,0-0.5,0.2-0.4,0.5l0.2,0.9c0,0.2,0.2,0.3,0.4,0.3l0,0c0.3,0,0.5-0.2,0.4-0.5
									l-0.2-0.9C134.4,236.7,134.2,236.5,134,236.5z"/>
							</g>
						</g>
					</g>
				</g>
			</g>
			<g>
				<g>
					<g>
						<path class="st10" d="M119.9,230.7l10.2,2.8c1,0.3,1.6,1.3,1.3,2.3l0,0c-0.3,1-1.3,1.6-2.3,1.3l-10.2-2.8
							c-1-0.3-1.6-1.3-1.3-2.3l0,0C117.9,231,118.9,230.4,119.9,230.7z"/>
					</g>
				</g>
			</g>
			<g>
				<g>
					<g>
						<path class="st3" d="M135.2,195.9c-3.1,0-5.8,3.3-5.8,3.3c3.9,2.4,6.7,0.6,7.6-0.1c0.3-0.2,0.8-0.7,0.8-1.3L135.2,195.9z"/>
					</g>
				</g>
			</g>
		</g>
	</g>
</g>
</svg>
