<svg width="100%" height="80%" viewBox="0 0 358 298" version="1.1" xmlns="http://www.w3.org/2000/svg" xmlns:xlink="http://www.w3.org/1999/xlink">
    <!-- Generator: Sketch 53.1 (72631) - https://sketchapp.com -->
    <title>css-img</title>
    <desc>Created with Sketch.</desc>
    <g id="Page-1" stroke="none" stroke-width="1" fill="none" fill-rule="evenodd">
        <g id="css-img" fill-rule="nonzero">
            <g id="bacgkoround" fill="#F1E1E1">
                <circle id="Oval" cx="177.6" cy="152.1" r="134.8"></circle>
                <path d="M177,44.4 L90.9,44.4 C83.6,44.4 77.7,38.5 77.7,31.2 L77.7,31.2 C77.7,23.9 83.6,18 90.9,18 L177,18 C184.3,18 190.2,23.9 190.2,31.2 L190.2,31.2 C190.2,38.5 184.3,44.4 177,44.4 Z" id="topleft"></path>
                <g id="leftbottom" transform="translate(30.000000, 213.000000)">
                    <path d="M17.6,0 L72.9,0 C78.6,0 83.2,4.6 83.2,10.3 L83.2,10.3 C83.2,16 78.6,20.6 72.9,20.6 L17.6,20.6 C11.9,20.6 7.3,16 7.3,10.3 L7.3,10.3 C7.3,4.6 11.9,0 17.6,0 Z" id="top"></path>
                    <path d="M6.7,38.5 L88.7,38.5 C92.4,38.5 95.4,41.5 95.4,45.2 L95.4,45.2 C95.4,48.9 92.4,51.9 88.7,51.9 L6.7,51.9 C3,51.9 0,48.9 0,45.2 L0,45.2 C0,41.5 3,38.5 6.7,38.5 Z" id="bottom"></path>
                    <path d="M29.4,20.5 L68,20.5 C65.2,20.5 62.6,21.7 60.7,23.6 C58.8,25.5 57.7,27.7 57.7,30.5 C57.7,36.2 62.3,40.5 68,40.5 L29.4,40.5 C32.2,40.5 34.8,39.7 36.7,37.9 C38.6,36 39.7,33.6 39.7,30.7 C39.7,25 35.1,20.5 29.4,20.5 Z" id="Path"></path>
                </g>
                <path d="M236.9,284.2 L250.2,284.2 C253.7,284.2 256.5,287 256.5,290.5 L256.5,291.3 C256.5,294.8 253.7,297.6 250.2,297.6 L236.9,297.6 C233.4,297.6 230.6,294.8 230.6,291.3 L230.6,290.5 C230.6,287 233.4,284.2 236.9,284.2 Z" id="bottom"></path>
                <path d="M168.5,244.6 L292,244.6 C298.1,244.6 303,249.5 303,255.6 L303,255.6 C303,261.7 298.1,266.6 292,266.6 L168.5,266.6 C162.4,266.6 157.5,261.7 157.5,255.6 L157.5,255.6 C157.6,249.5 162.5,244.6 168.5,244.6 Z" id="rightbottom"></path>
                <g id="rightcenter" transform="translate(184.800000, 132.600000)">
                    <path d="M54.4,0 L153.8,0 C164,0 172.4,8.3 172.4,18.6 L172.4,18.6 C172.4,28.8 164.1,37.2 153.8,37.2 L54.4,37.2 C44.2,37.2 35.8,28.9 35.8,18.6 L35.8,18.6 C35.9,8.4 44.2,0 54.4,0 Z" id="top"></path>
                    <path d="M12,72.2 L159.3,72.2 C165.9,72.2 171.3,77.6 171.3,84.2 L171.3,84.2 C171.3,90.8 165.9,96.2 159.3,96.2 L12,96.2 C5.4,96.2 2.84217094e-14,90.8 2.84217094e-14,84.2 L2.84217094e-14,84.2 C2.84217094e-14,77.6 5.4,72.2 12,72.2 Z" id="bottom"></path>
                    <path d="M76.8,37.3 L146.1,37.3 C141,37.3 136.3,39.3 133,42.7 C129.6,46.1 127.6,50 127.6,55.2 C127.6,65.4 135.9,73.1 146.2,73.1 L76.9,73.1 C82,73.1 86.7,71.7 90,68.3 C93.4,64.9 95.4,60.7 95.4,55.6 C95.3,45.2 87,37.3 76.8,37.3 Z" id="Path"></path>
                </g>
                <path d="M149.1,116.5 L32.7,116.5 C21.8,116.5 13,107.7 13,96.8 L13,96.8 C13,85.9 21.8,77.1 32.7,77.1 L149.2,77.1 C160.1,77.1 168.9,85.9 168.9,96.8 L168.9,96.8 C168.8,107.7 160,116.5 149.1,116.5 Z" id="lefttopcenter"></path>
                <path d="M196.9,198 L28.5,198 C12.8,198 0,185.3 0,169.5 L0,169.5 C0,153.8 12.7,141 28.5,141 L196.8,141 C212.5,141 225.3,153.7 225.3,169.5 L225.3,169.5 C225.3,185.2 212.6,198 196.9,198 Z" id="leftcenter"></path>
                <path d="M292.9,71.6 L200,71.6 C191.3,71.6 184.3,64.6 184.3,55.9 L184.3,55.9 C184.3,47.2 191.3,40.2 200,40.2 L292.9,40.2 C301.6,40.2 308.6,47.2 308.6,55.9 L308.6,55.9 C308.6,64.6 301.6,71.6 292.9,71.6 Z" id="topright"></path>
                <path d="M264.3,17.2 L242.2,17.2 C237.5,17.2 233.6,13.4 233.6,8.6 L233.6,8.6 C233.6,3.9 237.4,0 242.2,0 L264.3,0 C269,0 272.9,3.8 272.9,8.6 L272.9,8.6 C272.9,13.4 269,17.2 264.3,17.2 Z" id="topalone"></path>
            </g>
            <path d="M154,108.8 C152.7,108.8 151.4,108.3 150.5,107.4 C149,106 146.6,106 145.2,107.4 C144.9,107.6 144.6,107.6 144.3,107.4 C144.1,107.1 144.1,106.8 144.3,106.5 C146.2,104.7 149.4,104.7 151.3,106.5 C152.8,107.9 155.2,107.9 156.6,106.5 C158.5,104.7 161.7,104.7 163.6,106.5 C165.1,107.9 167.5,107.9 168.9,106.5 C170.8,104.7 174,104.7 175.9,106.5 C176.2,106.7 176.2,107.1 175.9,107.4 C175.7,107.7 175.3,107.7 175,107.4 C173.5,106 171.1,106 169.7,107.4 C167.8,109.2 164.6,109.2 162.7,107.4 C161.2,106 158.8,106 157.4,107.4 C156.6,108.3 155.3,108.8 154,108.8 Z" id="Path" fill="#FFFFFF"></path>
            <path d="M207.1,71.5 C205.8,71.5 204.5,71 203.6,70.1 C202.1,68.7 199.7,68.7 198.3,70.1 C198,70.3 197.7,70.3 197.4,70.1 C197.2,69.8 197.2,69.5 197.4,69.2 C199.3,67.4 202.5,67.4 204.4,69.2 C205.9,70.6 208.3,70.6 209.7,69.2 C211.6,67.4 214.8,67.4 216.7,69.2 C218.2,70.6 220.6,70.6 222,69.2 C223.9,67.4 227.1,67.4 229,69.2 C229.3,69.4 229.3,69.8 229,70.1 C228.8,70.4 228.4,70.4 228.1,70.1 C226.6,68.7 224.2,68.7 222.8,70.1 C220.9,71.9 217.7,71.9 215.8,70.1 C214.3,68.7 211.9,68.7 210.5,70.1 C209.7,71 208.4,71.5 207.1,71.5 Z" id="Path" fill="#FFFFFF"></path>
            <g id="Group" transform="translate(181.000000, 83.000000)">
                <rect id="Rectangle" fill="#FFFFFF" x="0" y="0" width="50.1" height="40.5"></rect>
                <rect id="Rectangle" fill="#FF6161" x="4.6" y="4.7" width="41.2" height="30.9"></rect>
                <path d="M38.4,25.3 L37.3,27.2 L20.9,17.8 L4.6,26.3 L4.6,23.8 L20.4,15.6 C20.7,15.4 21.1,15.4 21.5,15.6 L38.4,25.3 Z" id="Path" fill="#F7B75D"></path>
                <path d="M45.8,20.2 L45.8,22.9 L38.2,18 L33.5,22.2 L32.6,23 L31.1,21.3 L31.5,21 L37.4,15.7 C37.8,15.4 38.3,15.3 38.8,15.6 L45.8,20.2 Z" id="Path" fill="#F7B75D"></path>
                <circle id="Oval" fill="#F7B75D" cx="29.3" cy="11.1" r="3.9"></circle>
            </g>
            <g id="Group" transform="translate(79.000000, 69.000000)">
                <path d="M189.1,16.6 C189.1,16.6 180.2,22.5 180.2,31.5 L170.4,31.5 C170.4,22.5 161.5,16.6 161.5,16.6 L175.3,0.6 L189.1,16.6 Z" id="Path" fill="#FFFFFF"></path>
                <path d="M176,14.7 L176,1.9 L175.1,0.5 L174,2.1 L174,14.8 C173,15.3 172.2,16.4 172.2,17.6 C172.2,19.3 173.6,20.7 175.3,20.7 C177,20.7 178.1,19.3 178.1,17.6 C178.2,16.3 178,15.2 176,14.7 Z" id="Path" fill="#B24F57"></path>
                <path d="M167.6,137 L167.6,142.7 C167.6,147 171.1,150.5 175.4,150.5 L175.4,150.5 C179.7,150.5 183.2,147 183.2,142.7 L183.2,137 L167.6,137 Z" id="Path" fill="#B24F57"></path>
                <path d="M180.6,53.2 L180.6,31.6 L170,31.6 L170,53.2 L170,53.2 C168.6,53.2 167.5,54.3 167.5,55.7 L167.5,137 L183,137 L183,55.8 C183.1,54.4 182,53.2 180.6,53.2 Z" id="Path" fill="#FF6161"></path>
                <g id="Path">
                    <path d="M1.2,137 L1.2,142.7 C1.2,147 4.7,150.5 9,150.5 L9,150.5 C13.3,150.5 16.8,147 16.8,142.7 L16.8,137 L1.2,137 Z" fill="#2143AF"></path>
                    <path d="M1.2,137 L1.2,142.7 C1.2,147 4.7,150.5 9,150.5 L9,150.5 C13.3,150.5 16.8,147 16.8,142.7 L16.8,137 L1.2,137 Z" fill="#2143AF"></path>
                    <path d="M14.2,74.5 L14.2,74.5 L14.2,64.2 L3.7,64.2 L3.7,74.5 L3.7,74.5 C2.3,74.5 1.2,75.6 1.2,77 L1.2,137 L16.7,137 L16.7,77 C16.7,75.7 15.6,74.5 14.2,74.5 Z" fill="#FF6161"></path>
                    <path d="M9,0.5 L9,0.5 C4.9,0.5 1.5,3.9 1.5,8 L1.5,19.9 C1.5,22 3.3,23.8 5.4,23.8 L5.4,23.8 L5.4,57.2 L12.7,57.2 L12.7,23.8 L12.8,23.8 C14.9,23.8 16.6,22.1 16.6,20 L16.6,8 C16.5,3.9 13.1,0.5 9,0.5 Z" fill="#FFFFFF"></path>
                    <path d="M13.5,64.2 L4.4,64.2 C2.3,64.2 0.5,62.5 0.5,60.3 L0.5,60.3 C0.5,58.2 2.2,56.4 4.4,56.4 L13.5,56.4 C15.6,56.4 17.4,58.1 17.4,60.3 L17.4,60.3 C17.4,62.5 15.6,64.2 13.5,64.2 Z" fill="#FFFFFF"></path>
                </g>
            </g>
            <g id="Group" transform="translate(94.000000, 122.000000)">
                <g transform="translate(8.000000, 0.000000)" fill="#B24F57" id="Path">
                    <path d="M139.8,89.8 L139.8,8.4 C139.8,3.9 136.2,0.2 131.8,0.2 L8,0.2 C3.6,0.2 0,3.9 0,8.4 L0,89.8 L139.8,89.8 Z"></path>
                    <g transform="translate(112.000000, 7.000000)">
                        <path d="M14.7,41.8 L53,41.8 C56.9,41.8 60.1,45 60.1,48.9 L60.1,48.9 C60.1,52.8 56.9,56 53,56 L14.7,56 C10.8,56 7.6,52.8 7.6,48.9 L7.6,48.9 C7.5,45 10.7,41.8 14.7,41.8 Z"></path>
                        <path d="M18.2,13.7 L39,13.7 C42.9,13.7 46.1,16.9 46.1,20.8 L46.1,20.8 C46.1,24.7 42.9,27.9 39,27.9 L18.2,27.9 C14.3,27.9 11.1,24.7 11.1,20.8 L11.1,20.8 C11.1,16.9 14.3,13.7 18.2,13.7 Z"></path>
                        <path d="M5.5,68.8 L62.2,68.8 C64.8,68.8 66.8,71.1 66.8,74 L66.8,74 C66.8,76.9 64.7,79.2 62.2,79.2 L5.5,79.2 C2.9,79.2 0.9,76.9 0.9,74 L0.9,74 C0.8,71.1 2.9,68.8 5.5,68.8 Z"></path>
                        <path d="M46.8,0.4 L67.3,0.4 C69.9,0.4 71.9,2.5 71.9,5 L71.9,5 C71.9,7.6 69.8,9.6 67.3,9.6 L46.8,9.6 C44.2,9.6 42.2,7.5 42.2,5 L42.2,5 C42.2,2.5 44.3,0.4 46.8,0.4 Z"></path>
                        <path d="M20.4,55.4 L48,55.4 C46,55.4 44.1,56.2 42.8,57.5 C41.5,58.8 40.6,60.3 40.6,62.2 C40.6,66.1 43.9,69 48,69 L20.4,69 C22.4,69 24.3,68.5 25.6,67.2 C26.9,65.9 27.8,64.2 27.8,62.3 C27.8,58.5 24.5,55.4 20.4,55.4 Z"></path>
                    </g>
                </g>
                <rect id="Rectangle" fill="#FFFFFF" x="14.3" y="7.6" width="127.3" height="75.9"></rect>
                <g transform="translate(19.000000, 11.000000)" fill="#F1E1E1" id="Rectangle">
                    <rect x="103.7" y="0.8" width="13.7" height="21.5"></rect>
                    <rect x="0.5" y="0.8" width="98.8" height="21.5"></rect>
                    <rect x="0.5" y="29.1" width="27.4" height="21.5"></rect>
                    <rect x="33" y="41.6" width="84.4" height="9.1"></rect>
                    <rect x="33" y="29.1" width="84.4" height="9.1"></rect>
                    <rect x="0.5" y="54.9" width="116.9" height="13.3"></rect>
                </g>
                <circle id="Oval" fill="#E5E9FF" cx="77.8" cy="3.8" r="2.1"></circle>
                <circle id="Oval" fill="#121F55" cx="81.3" cy="3.8" r="1"></circle>
                <path d="M0,89.8 L0,93.7 C0,95.8 1.7,97.6 3.8,97.6 L152,97.6 C154.1,97.6 155.8,95.9 155.8,93.7 L155.8,89.8 L0,89.8 Z" id="Path" fill="#FFFFFF"></path>
                <path d="M98.7,63 L57.2,63 C50.7,63 45.3,57.7 45.3,51.1 L45.3,39.9 C45.3,33.4 50.6,28 57.2,28 L98.7,28 C105.2,28 110.6,33.3 110.6,39.9 L110.6,51.1 C110.5,57.7 105.2,63 98.7,63 Z" id="Path" fill="#FF6161"></path>
                <g transform="translate(55.000000, 37.000000)" fill="#FFFFFF" id="Path">
                    <path d="M11.7,10.7 L14.9,11.7 C14.4,13.5 13.6,14.8 12.5,15.6 C11.4,16.5 9.9,16.9 8.2,16.9 C6,16.9 4.3,16.2 2.9,14.7 C1.5,13.2 0.8,11.2 0.8,8.7 C0.8,6 1.5,3.9 2.9,2.4 C4.3,0.9 6.1,0.2 8.4,0.2 C10.4,0.2 12,0.8 13.2,2 C13.9,2.7 14.5,3.7 14.9,5 L11.7,5.8 C11.5,5 11.1,4.3 10.5,3.8 C9.9,3.3 9.2,3.1 8.3,3.1 C7.1,3.1 6.1,3.5 5.4,4.4 C4.7,5.3 4.3,6.7 4.3,8.6 C4.3,10.6 4.7,12.1 5.4,13 C6.1,13.9 7.1,14.3 8.3,14.3 C9.2,14.3 9.9,14 10.5,13.5 C11,12.7 11.4,11.8 11.7,10.7 Z"></path>
                    <path d="M16.8,11.3 L20,11 C20.2,12.1 20.6,12.9 21.2,13.4 C21.8,13.9 22.6,14.2 23.6,14.2 C24.7,14.2 25.4,14 26,13.5 C26.5,13.1 26.8,12.5 26.8,11.9 C26.8,11.5 26.7,11.2 26.5,10.9 C26.3,10.6 25.9,10.4 25.3,10.2 C24.9,10.1 24,9.8 22.7,9.5 C20.9,9.1 19.7,8.5 19,7.9 C18,7 17.5,5.9 17.5,4.6 C17.5,3.8 17.7,3 18.2,2.3 C18.7,1.6 19.3,1 20.2,0.7 C21.1,0.3 22.1,0.1 23.4,0.1 C25.4,0.1 27,0.5 28,1.4 C29,2.3 29.6,3.5 29.6,5 L26.3,5.1 C26.2,4.3 25.9,3.7 25.4,3.3 C24.9,2.9 24.2,2.8 23.3,2.8 C22.3,2.8 21.6,3 21.1,3.4 C20.8,3.7 20.6,4 20.6,4.4 C20.6,4.8 20.8,5.1 21.1,5.4 C21.5,5.7 22.5,6.1 24.1,6.5 C25.7,6.9 26.9,7.3 27.6,7.7 C28.4,8.1 29,8.7 29.4,9.3 C29.8,10 30,10.9 30,11.9 C30,12.8 29.7,13.7 29.2,14.5 C28.7,15.3 28,15.9 27,16.3 C26.1,16.7 24.9,16.9 23.5,16.9 C21.5,16.9 19.9,16.4 18.8,15.5 C17.7,14.5 17.1,13.1 16.8,11.3 Z"></path>
                    <path d="M31.9,11.3 L35.1,11 C35.3,12.1 35.7,12.9 36.3,13.4 C36.9,13.9 37.7,14.2 38.7,14.2 C39.8,14.2 40.5,14 41.1,13.5 C41.6,13.1 41.9,12.5 41.9,11.9 C41.9,11.5 41.8,11.2 41.6,10.9 C41.4,10.6 41,10.4 40.4,10.2 C40,10.1 39.1,9.8 37.8,9.5 C36,9.1 34.8,8.5 34.1,7.9 C33.1,7 32.6,5.9 32.6,4.6 C32.6,3.8 32.8,3 33.3,2.3 C33.8,1.6 34.4,1 35.3,0.7 C36.2,0.3 37.2,0.1 38.5,0.1 C40.5,0.1 42.1,0.5 43.1,1.4 C44.1,2.3 44.7,3.5 44.7,5 L41.4,5.1 C41.3,4.3 41,3.7 40.5,3.3 C40,2.9 39.3,2.8 38.4,2.8 C37.4,2.8 36.7,3 36.2,3.4 C35.9,3.7 35.7,4 35.7,4.4 C35.7,4.8 35.9,5.1 36.2,5.4 C36.6,5.7 37.6,6.1 39.2,6.5 C40.8,6.9 42,7.3 42.7,7.7 C43.5,8.1 44.1,8.7 44.5,9.3 C44.9,10 45.1,10.9 45.1,11.9 C45.1,12.8 44.8,13.7 44.3,14.5 C43.8,15.3 43.1,15.9 42.1,16.3 C41.2,16.7 40,16.9 38.6,16.9 C36.6,16.9 35,16.4 33.9,15.5 C32.8,14.5 32.2,13.1 31.9,11.3 Z"></path>
                </g>
            </g>
            <g id="Group" transform="translate(61.000000, 177.000000)">
                <g transform="translate(31.000000, 0.000000)" fill="#C9A6A6">
                    <path d="M6.5,42.5 L6.5,42.5 C9.6,42.5 12.2,40 12.2,36.8 L12.2,6 C12.2,2.9 9.7,0.3 6.5,0.3 L6.5,0.3 C3.4,0.3 0.8,2.8 0.8,6 L0.8,36.8 C0.8,40 3.3,42.5 6.5,42.5 Z" id="Path"></path>
                    <circle id="Oval" cx="6.5" cy="37.5" r="1.9"></circle>
                </g>
                <g transform="translate(16.000000, 4.000000)">
                    <path d="M24.3,37.7 L24.3,37.7 C27,36.1 27.9,32.7 26.4,30 L11,3.3 C9.4,0.6 6,-0.3 3.3,1.2 L3.3,1.2 C0.6,2.8 -0.3,6.2 1.2,8.9 L16.6,35.6 C18.1,38.4 21.6,39.3 24.3,37.7 Z" id="Path" fill="#B24F57"></path>
                    <path d="M14,31.2 L1.1,9 C-0.5,6.3 0.5,2.8 3.2,1.3 L3.2,1.3 C5.9,-0.3 9.4,0.7 10.9,3.4 L23.7,25.6 L14,31.2 Z" id="Path" fill="#F7B75D"></path>
                    <circle id="Oval" fill="#566CD3" transform="translate(21.815940, 33.377020) rotate(-30.005690) translate(-21.815940, -33.377020) " cx="21.81594" cy="33.37702" r="1.90005321"></circle>
                </g>
                <g transform="translate(5.000000, 15.000000)">
                    <path d="M37.4,24.7 L37.4,24.7 C39,22 38,18.5 35.3,17 L8.6,1.6 C5.9,0 2.4,1 0.9,3.7 L0.9,3.7 C-0.7,6.4 0.3,9.9 3,11.4 L29.7,26.8 C32.3,28.3 35.8,27.4 37.4,24.7 Z" id="Path" fill="#B24F57"></path>
                    <path d="M25.1,24.1 L2.9,11.3 C0.2,9.7 -0.7,6.3 0.8,3.6 L0.8,3.6 C2.4,0.9 5.8,-1.11022302e-16 8.5,1.5 L30.7,14.3 L25.1,24.1 Z" id="Path" fill="#FF6161"></path>
                    <circle id="Oval" fill="#566CD3" transform="translate(33.026400, 22.158200) rotate(-59.999272) translate(-33.026400, -22.158200) " cx="33.0264" cy="22.1582" r="1.8999582"></circle>
                </g>
                <g transform="translate(0.000000, 31.000000)">
                    <path d="M43.1,5.9 L43.1,5.9 C43.1,2.8 40.6,0.2 37.4,0.2 L6.6,0.2 C3.5,0.2 0.9,2.7 0.9,5.9 L0.9,5.9 C0.9,9 3.4,11.6 6.6,11.6 L37.4,11.6 C40.6,11.5 43.1,9 43.1,5.9 Z" id="Path" fill="#B24F57"></path>
                    <path d="M32.3,11.5 L6.6,11.5 C3.5,11.5 0.9,9 0.9,5.8 L0.9,5.8 C0.9,2.7 3.4,0.1 6.6,0.1 L32.2,0.1 L32.2,11.5 L32.3,11.5 Z" id="Path" fill="#B24F57"></path>
                    <circle id="Oval" fill="#FF6161" cx="38.1" cy="5.9" r="1.9"></circle>
                </g>
            </g>
            <g id="Group" transform="translate(168.000000, 90.000000)">
                <path d="M12.7,12.3 C13.1,11.7 12.6,10.7 12.9,9.5 C13.9,6 12.7,4.4 12.7,4.4 C12.7,3.1 11.6,2 10,1.4 C9.2,1.1 8.4,1 7.4,0.9 C6,0.9 4.7,1.2 3.7,1.8 C2.7,2.4 1.9,3.3 2,4.3 C2.1,5 2.8,5.9 2,7.1 C0.1,10 0.9,11.7 1.9,12.2 C2.8,12.7 3.9,12.7 4.4,13 C7.3,14.7 11.2,14.4 12.7,12.3 Z" id="Path" fill="#FFFFFF"></path>
                <path d="M21.4,25.2 C22,25.1 22.7,25 23.4,24.9 C23.9,24.8 24.2,24.3 24.1,23.8 C24,23.3 23.5,23 23,23.1 C19.8,23.8 17.2,23.5 15.3,22.2 C12.3,20.1 11.8,16.3 11.8,16.3 C11.7,15.8 11.3,15.4 10.8,15.5 C10.3,15.6 9.9,16 10,16.5 C10,16.7 10.7,21.2 14.3,23.7 C16.1,25 18.5,25.6 21.4,25.2 Z" id="Path" fill="#F99AB6"></path>
                <path d="M12.1,17.6 C12.3,17.6 12.5,17.6 12.6,17.7 C12.3,16.8 12.2,16.2 12.2,16.2 C12.1,15.5 11.5,14.9 10.7,14.9 C10.6,14.9 10.6,14.9 10.5,14.9 C9.7,15 9.1,15.7 9.2,16.6 C9.2,16.7 9.4,17.8 9.9,19.2 C10.3,18.3 11,17.6 12.1,17.6 Z" id="Path" fill="#000000"></path>
                <path d="M10.4,16.9 C10.9,16.7 11.3,15.9 10.7,15.3 C10.1,14.6 9.3,14.3 8.3,14.3 L8.1,14.3 C7.3,14.3 6.5,14.6 6,15.2 C6.4,16.3 9.1,17.4 10.4,16.9 Z" id="Path" fill="#F99AB6"></path>
                <path d="M8.8,12.3 L8.8,13.3 L8.8,15.3 L7.3,15.3 L7.3,12.8 L7.3,11.8 C7.7,12.2 8.3,12.3 8.8,12.3 Z" id="Path" fill="#F99AB6"></path>
                <path d="M8.8,12.6 L8.8,13.6 C8.3,13.5 7.6,13.3 7.3,12.9 L7.3,12.1 C7.7,12.4 8.3,12.6 8.8,12.6 Z" id="Path" fill="#F99AB6"></path>
                <path d="M8.4,13.1 L8.4,13.1 C7,13.1 5.7,12.4 4.9,11.3 C4.4,10.6 4,9.6 4,8.6 L4,6.9 C4,5.6 4.6,4.5 5.4,3.7 C6.2,3 7.3,2.5 8.4,2.5 L8.4,2.5 C9.2,2.5 9.9,2.7 10.5,3.1 C11.8,3.9 12.7,5.3 12.7,7 L12.7,8.7 C12.7,10.3 11.8,11.7 10.6,12.4 C10,12.9 9.3,13.1 8.4,13.1 Z" id="Path" fill="#F99AB6"></path>
                <path d="M13.1,27.4 C13.6,29.6 10.8,31.9 8.6,32.4 C6.4,32.9 4.1,31.5 3.6,29.3 C3.1,27.1 4.5,24.8 6.7,24.3 C9,23.8 12.6,25.2 13.1,27.4 Z" id="Path" fill="#F7B75D"></path>
                <path d="M8.7,10.8 C8.8,11.3 9.3,11.8 9.8,11.8 C10.4,11.8 10.9,11.4 11,10.9 L8.7,10.8 Z" id="Path" fill="#FFFEFF"></path>
                <path d="M12.8,17.9 C13.1,18.7 12.3,19.6 11.5,19.7 C10.7,19.8 9.7,18.7 9.6,17.9 C9.5,17.1 10.7,15.2 11.2,15.9 C11.6,16.6 12.6,17.2 12.8,17.9 Z" id="Path" fill="#000000"></path>
                <path d="M6,15.1 C5.6,15.5 5.4,16.1 5.4,16.7 C5.4,16.7 6.8,23.2 3.9,26.7 C3.9,26.7 9.1,29.8 13.2,27.7 C13.2,24.7 11.4,22.7 11.7,17.9 C11.8,16.9 11.4,16 10.7,15.3 C10.6,16.8 7.5,14.9 6,15.1 Z" id="Path" fill="#000000"></path>
                <g transform="translate(10.000000, 46.000000)" id="Path">
                    <path d="M0.4,2.3 C0.5,3.3 0.3,4.1 0.4,4.3 C0.5,4.7 2.3,5.1 2.5,6.2 C2.8,7.7 4.8,7.9 5.1,7.9 C5.9,8.1 6.7,7.6 6.2,6.8 C5.7,5.9 5.2,5.7 4.5,4.6 C3.5,2.9 3.4,1.8 2.9,0.8 C2.8,0.6 2.3,0 1.6,0.1 C1,0.2 0.3,1.1 0.4,2.3 Z" fill="#B24F57"></path>
                    <path d="M3.4,5.2 C2.8,4.4 1.9,1.7 2,1.1 C2.1,0.3 3.6,0 3.8,0.6 C4.2,1.7 4,3.7 5.3,5.6 C5.3,6.2 4,6.2 3.4,5.2 Z" fill="#F99AB6"></path>
                </g>
                <g transform="translate(33.000000, 27.000000)" id="Path">
                    <path d="M4.1,8.4 C4.8,7.7 5.6,7.4 5.7,7.2 C6,6.9 5.2,5.2 6,4.4 C7,3.2 6,1.5 5.8,1.2 C5.4,0.4 4.7,0.1 4.3,0.9 C3.9,1.9 4,2.4 3.5,3.6 C2.8,5.4 1.9,6.1 1.4,7.2 C1.3,7.4 1.1,8.1 1.6,8.7 C2.1,9.2 3.2,9.2 4.1,8.4 Z" fill="#B24F57"></path>
                    <path d="M4.7,4.3 C4.4,5.2 2.8,7.6 2.2,7.9 C1.5,8.2 0.4,7.2 0.7,6.7 C1.3,5.8 3,4.7 3.8,2.5 C4.3,2.2 5.1,3.2 4.7,4.3 Z" fill="#F99AB6"></path>
                </g>
                <path d="M17.5,33.4 L17.5,33.4 L7.6,28.8 C6.7,28.4 5.6,28.8 5.1,29.7 C4.7,30.6 5.1,31.7 6,32.2 C6,32.2 6,32.2 6,32.2 L14.5,36 L11.5,46.3 L14.1,47.2 L18.4,35.6 C18.7,34.7 18.3,33.8 17.5,33.4 Z" id="Path" fill="#F7B75D"></path>
                <path d="M8.4,27.8 C8.9,27.8 9.4,27.8 9.9,27.7 C10.4,27.6 10.8,27.2 10.7,26.7 C10.6,26.2 10.2,25.8 9.7,25.9 C8,26.1 5.8,26 5,24.7 C3.8,22.7 6.1,18.3 7,16.9 C7.3,16.5 7.2,15.9 6.7,15.6 C6.3,15.3 5.7,15.4 5.4,15.9 C5,16.6 1.3,22.4 3.4,25.7 C4.3,27.1 6,27.8 8.4,27.8 Z" id="Path" fill="#F99AB6"></path>
                <path d="M3.6,7.4 C3.6,7.4 6.7,8.5 8.7,7.2 C10.6,5.8 11.5,3.8 10.7,2.5 C9.8,1.3 7.6,1.4 5.6,2.7 C3.6,4.1 3.6,7.4 3.6,7.4 Z" id="Path" fill="#FFFFFF"></path>
                <path d="M7.5,28.4 C7.5,28.4 9.2,28.4 11.8,28.6 C13.1,28.7 14.6,28.7 16.2,28.8 C17.8,28.9 19.5,29 21.3,29.1 L21.9,29.1 L22.1,29.1 L22.1,29.1 L22.3,29.1 L22.4,29.1 L22.7,29.1 L23.3,29.2 L23.3,29.2 L23.5,29.2 L23.5,29.2 L23.6,29.2 L23.8,29.2 L24.1,29.3 C24.9,29.5 25.7,29.7 26.5,29.9 C27.3,30.1 28,30.3 28.8,30.5 C29.5,30.7 30.2,30.9 30.8,31 C32.1,31.3 33.1,31.6 33.8,31.8 C34.5,32 34.9,32.1 34.9,32.1 L34.4,34.4 C34.4,34.4 34,34.3 33.2,34.2 C32.5,34.1 31.4,33.9 30.1,33.7 C29.5,33.6 28.8,33.5 28,33.3 C27.3,33.2 26.5,33 25.7,32.9 C24.9,32.7 24.1,32.6 23.3,32.4 L23,32.3 L22.8,32.3 L22.7,32.3 L22.7,32.3 C22.7,32.3 23,32.3 22.8,32.3 L22.8,32.3 L22.8,32.3 L22.2,32.2 L21.9,32.2 L21.8,32.2 L21.8,32.2 C21.8,32.2 22.1,32.2 21.9,32.2 L21.9,32.2 L21.9,32.2 L21.7,32.2 L21.1,32.2 C19.4,32.1 17.7,32.1 16,32 C14.4,31.9 12.9,31.8 11.6,31.8 C9,31.7 7.3,31.5 7.3,31.5 L7.5,28.4 Z" id="Path" fill="#F7B75D"></path>
                <g transform="translate(7.000000, 17.000000)" id="Path">
                    <path d="M1,12.5 C1,12.2 1.3,11.9 1.6,11.9 L21.9,11.9 C22.3,11.9 22.7,12.2 22.7,12.5 C22.7,12.8 22.4,13.1 21.9,13.1 L1.6,13.1 C1.3,13.1 1,12.8 1,12.5 L1,12.5 Z" fill="#121F55"></path>
                    <path d="M0.2,12.5 C0.2,12.8 0.5,13.1 0.8,13.1 L8.5,13.1 C8.8,13.1 9.1,12.8 9.1,12.5 C9.1,12.2 8.8,11.9 8.5,11.9 L0.8,11.9 C0.5,12 0.2,12.2 0.2,12.5 Z" fill="#FFFFFF"></path>
                    <path d="M22.6,1.5 L22.6,11.7 C22.6,12.2 22.2,12.5 21.8,12.5 L8.3,12.5 C7.8,12.5 7.5,12.1 7.5,11.7 L7.5,1.5 C7.5,1 7.9,0.7 8.3,0.7 L21.8,0.7 C22.2,0.7 22.6,1 22.6,1.5 Z" fill="#FFFFFF"></path>
                    <path d="M23.2,1.5 L23.2,11.7 C23.2,12.2 22.8,12.5 22.4,12.5 L8.9,12.5 C8.4,12.5 8.1,12.1 8.1,11.7 L8.1,1.5 C8.1,1 8.5,0.7 8.9,0.7 L22.4,0.7 C22.9,0.7 23.2,1 23.2,1.5 Z" fill="#FFFFFF"></path>
                    <path d="M13.4,6.6 L13.4,6.6 C13.4,6.1 13.8,5.7 14.3,5.7 L17,5.7 C17.5,5.7 17.9,6.1 17.9,6.6 L17.9,6.6 C17.9,7.1 17.5,7.5 17,7.5 L14.3,7.5 C13.8,7.5 13.4,7.1 13.4,6.6 Z" fill="#F1E1E1"></path>
                </g>
                <path d="M4.5,17.5 C5.6,17.5 6.3,18.1 6.6,18.9 C6.9,18.2 7.3,17.6 7.6,17.2 C8,16.5 7.9,15.6 7.2,15.2 C7,15 6.7,15 6.4,15 C5.9,15 5.4,15.3 5.2,15.7 C5,16 4.5,16.8 4.1,17.7 C4.1,17.5 4.3,17.5 4.5,17.5 Z" id="Path" fill="#000000"></path>
                <path d="M14,26 C14.2,26.5 14.2,27 14.1,27.5 L11,29 C10.5,28.8 10.1,28.4 9.9,27.9 C9.4,26.8 9.9,25.4 11,24.9 C12.2,24.4 13.5,24.9 14,26 Z" id="Path" fill="#F99AB6"></path>
            </g>
            <g id="Group" transform="translate(105.000000, 66.000000)">
                <path d="M9.7,15.9 L10.4,15.2 L11.6,16.4 C11.8,16.6 12.2,16.9 12.4,16.6 L13.5,15.5 L12.7,14.7 C12.5,14.5 12.5,14.3 12.8,14 L14,12.8 C14.2,12.6 14.4,12.5 14.7,12.7 L15.5,13.5 L16.4,12.6 C16.6,12.4 16.6,11.8 16.3,11.6 L15.1,10.4 L15.7,9.8 C15.9,9.6 16,9.2 15.7,9 L14.4,7.7 C14.2,7.5 13.8,7.5 13.6,7.7 L13,8.3 L11.9,7.2 C11.7,7 11.2,7 11,7.2 L10.1,8.1 L10.7,8.7 C10.9,8.9 11.1,9.4 10.9,9.6 L9.7,10.8 C9.5,11 9,10.8 8.8,10.6 L8.2,10 L7.1,11.1 C6.9,11.3 7,11.6 7.2,11.8 L8.3,12.9 L7.6,13.6 C7.4,13.8 7.4,14.2 7.6,14.4 L8.9,15.7 C9.1,16.2 9.5,16.1 9.7,15.9 Z" id="Path" fill="#B24F57"></path>
                <path d="M9,7.2 L8.2,6.4 L9.5,5.1 C9.7,4.9 10,4.4 9.8,4.2 L8.7,3.1 L7.8,4 C7.6,4.2 7.5,4.2 7.3,4 L6.1,2.8 C5.9,2.6 5.7,2.4 5.9,2.2 L6.8,1.3 L5.9,0.4 C5.7,0.2 5.1,0.4 4.9,0.6 L3.6,1.9 L2.9,1.2 C2.7,1 2.3,0.8 2,1.1 L0.7,2.4 C0.5,2.6 0.5,3.1 0.8,3.3 L1.5,4 L0.5,5 C0.3,5.2 0.3,5.6 0.5,5.8 L1.4,6.7 L1.9,6.2 C2.1,6 2.7,5.8 2.9,6 L4.1,7.2 C4.3,7.4 4,7.9 3.8,8.1 L3.3,8.6 L4.4,9.7 C4.6,9.9 4.8,9.8 5.1,9.6 L6.1,8.6 L6.9,9.4 C7.1,9.6 7.5,9.6 7.7,9.4 L9,8.1 C9.3,7.7 9.3,7.4 9,7.2 Z" id="Path" fill="#FF6161"></path>
                <g transform="translate(5.000000, 4.000000)" fill="#F7B75D">
                    <g transform="translate(0.000000, 3.000000)">
                        <path d="M6,4 L6,5.5 C6,5.6 6,5.7 5.9,5.7 C5.8,5.8 5.8,5.8 5.7,5.8 L4.2,5.8 L4.2,5.1 L5.4,5.1 L5.4,3.9 L6,4 Z" id="Path"></path>
                        <rect id="Rectangle" transform="translate(3.245650, 3.149230) rotate(-44.991897) translate(-3.245650, -3.149230) " x="2.89565335" y="-0.300736949" width="1" height="6.8999339"></rect>
                    </g>
                    <g transform="translate(1.000000, 0.000000)">
                        <path d="M0.8,0.5 C0.8,0.5 0.8,0.5 0.8,0.5 L2.3,0.5 L2.3,1.2 L1.1,1.2 L1.1,2.4 L0.4,2.4 L0.4,0.9 C0.4,0.8 0.4,0.7 0.5,0.7 C0.6,0.5 0.7,0.5 0.8,0.5 Z" id="Path"></path>
                        <rect id="Rectangle" transform="translate(3.273950, 3.247900) rotate(-45.000000) translate(-3.273950, -3.247900) " x="2.92395336" y="-0.202066914" width="1" height="6.89993383"></rect>
                    </g>
                </g>
            </g>
            <g id="Group" transform="translate(179.000000, 175.000000)">
                <path d="M27.5,14.1 L25.4,22.1 L18.6,24.9 L19.6,27.2 L27,24.1 C27.4,23.9 27.6,23.6 27.7,23.3 L29.9,14.7 C30.1,14 29.7,13.4 29,13.2 L29,13.2 C28.4,13.1 27.7,13.4 27.5,14.1 Z" id="Path" fill="#F7B75D"></path>
                <path d="M23.3,36.9 C23.9,36.5 24.1,35.7 23.8,35.1 C23.8,35.1 23.6,34.7 23.3,34.1 C23,33.5 22.5,32.5 21.9,31.4 C21.4,30.4 20.7,29.3 20.1,28.1 C20.9,28.3 21.7,28.4 22.4,28.6 C23.2,28.8 23.9,28.9 24.6,29.1 C25.3,29.2 26,29.4 26.6,29.5 C27.8,29.7 28.9,29.9 29.6,30.1 C30.3,30.2 30.7,30.3 30.7,30.3 C31.8,30.5 32.8,29.8 33,28.7 C33.2,27.7 32.5,26.7 31.5,26.4 C31.5,26.4 31.1,26.3 30.4,26.1 C29.7,25.9 28.7,25.7 27.4,25.4 C26.8,25.3 26.1,25.1 25.4,25 C24.7,24.9 24,24.7 23.2,24.5 C21.7,24.2 20,23.9 18.4,23.6 L17.8,23.5 L17.6,23.5 L17.5,23.5 L17.5,23.5 L17.3,23.5 L17.3,23.5 L17.3,23.5 C16.6,23.4 16.1,23.6 15.6,23.9 C15.1,24.2 14.8,24.7 14.7,25.2 C14.5,25.7 14.6,26.4 14.8,26.9 C15,27.2 14.9,27.2 15,27.2 L15.1,27.3 L15.3,27.6 C15.7,28.3 16.2,29 16.6,29.6 C17.5,30.9 18.3,32.1 19,33.2 C19.7,34.2 20.3,35.1 20.7,35.7 C21.1,36.3 21.4,36.6 21.4,36.6 C21.8,37.2 22.7,37.4 23.3,36.9 Z" id="Path" fill="#84575D"></path>
                <g id="_x38_._Right_shoe_108_" transform="translate(18.000000, 32.000000)">
                    <circle id="Oval" fill="#F7B75D" transform="translate(4.713770, 3.333190) rotate(-54.696774) translate(-4.713770, -3.333190) " cx="4.71377" cy="3.33319" r="1.99998762"></circle>
                    <path d="M1.9,10.7 L6.3,4.5 C6.8,3.8 6.6,2.9 6,2.5 L6,2.5 C5.3,2 3.3,1.9 2.8,2.5 L0.3,9.8 C-2.77555756e-17,10.6 0.9,11.4 1.6,11 C1.7,10.9 1.8,10.8 1.9,10.7 Z" id="Path" fill="#F7B75D"></path>
                    <path d="M2.3,5.3 L2.3,5.3 C2.3,5.1 2.1,5 1.9,5 L1.2,5.2 C1,5.3 0.9,5.4 1,5.6 L1,5.6 C1,5.8 1.2,5.9 1.4,5.9 L2.1,5.7 C2.3,5.6 2.4,5.5 2.3,5.3 Z" id="Path" fill="#FFFFFF"></path>
                    <path d="M2.5,6.4 L2.5,6.4 C2.5,6.2 2.3,6.1 2.1,6.1 L1.4,6.3 C1.2,6.3 1.1,6.5 1.2,6.7 L1.2,6.7 C1.2,6.9 1.4,7 1.6,7 L2.3,6.8 C2.4,6.7 2.5,6.6 2.5,6.4 Z" id="Path" fill="#FFFFFF"></path>
                    <circle id="Oval" fill="#84575D" transform="translate(4.707800, 3.339700) rotate(-54.688787) translate(-4.707800, -3.339700) " cx="4.7078" cy="3.3397" r="1.199964"></circle>
                </g>
                <path d="M31.3,9 L31.5,10.7 L31.9,10.6 C32.2,10.5 32.4,10.3 32.4,10 L32.4,10 C32.4,9.8 32.5,9.6 32.6,9.5 L33.5,8.5 C33.9,8.1 34.2,7.6 34.2,7 C34.3,6.6 34.2,6.1 34,5.8 C33.6,5.3 34.9,4 34,2.9 C33.6,2.4 33,2 32.7,1.5 C31.8,-0.3 30.5,-0.1 29.6,0.5 C28.8,1.1 28.4,-0.1 26.8,0.1 C25.6,0.3 25.1,1.1 25.2,1.9 C25.2,1.9 23.1,2 23.1,4.4 C23.1,6.8 25.6,7.1 25.6,7.1 L31.3,9 Z" id="Path" fill="#F7B75D"></path>
                <polygon id="Path" fill="#F99AB6" points="28.7 7.2 29 11.2 29.3 13.8 32.3 13.6 31.6 7.2 31.4 5.4"></polygon>
                <path d="M31.1,9.2 L31.1,9.8 C30.6,10.4 29.8,10.9 29,11.2 L28.8,9.2 L31.1,9.2 Z" id="Path" fill="#F99AB6"></path>
                <path d="M27.9,11.1 L27.4,11.1 C26.3,11.1 25,9 25,7.9 C25,6.6 25.1,5.9 25,5.1 C24.8,3.9 26,2.9 27.2,2.9 L29.6,2.9 C30.5,2.9 31.3,3.6 31.3,4.6 L31.3,8.6 C31.3,9.9 29.3,11.1 27.9,11.1 Z" id="Path" fill="#F99AB6"></path>
                <path d="M27.6,2.9 C27.6,2.9 27.4,4.7 30.4,4.6 C30.4,4.6 30.3,8.2 31.9,8.4 L32.2,7.2 C32.2,7.2 32.9,3.3 31.4,2.6 C29.9,2 27.6,2.9 27.6,2.9 Z" id="Path" fill="#F7B75D"></path>
                <path d="M32.9,11.9 C32.6,11.7 32.2,11.6 31.7,11.7 L30.3,11.9 C29.6,12 29.1,12.3 28.6,12.6 C30.1,12.9 31.8,12.7 32.9,11.9 Z" id="Path" fill="#F99AB6"></path>
                <path d="M35.1,14.3 C35,13.2 34,12.2 33,11.9 C31.9,12.8 30.2,13 28.7,12.6 C27.6,13.4 27,14.9 27.2,16.3 L28.6,24.4 L35.9,23.4 C35.9,23.4 35.3,16.7 35.1,14.3 Z" id="Path" fill="#F7B75D"></path>
                <path d="M8.1,37.4 C8.1,37.4 8.4,37.1 8.9,36.5 C9.4,36 10.1,35.2 11,34.3 C11.9,33.4 16.7,28.5 16.7,28.5 L16.8,28.4 C16.9,28.3 16.9,28.3 17,28.2 C17.2,28.1 17.3,28 17.5,27.9 C17.8,27.7 18.2,27.6 18.6,27.5 C18.7,27.5 18.8,27.5 18.9,27.4 C18.9,27.4 27.1,26.6 27.8,26.5 C29,26.2 28.6,23.9 28.6,23.9 L35.9,22.8 C36,23.8 36.6,24.9 36.8,25.6 C37.1,26.7 36.9,27.8 36.4,28.7 C35.9,29.6 35,30.3 33.9,30.6 C33.4,30.7 32.8,30.8 32.3,30.7 C32.1,30.7 31.8,30.7 31.4,30.8 C30.7,30.9 29.6,30.9 28.4,31 C27.8,31 27.1,31.1 26.4,31.1 C25.7,31.1 24.9,31.2 24.1,31.2 C23.3,31.2 22.5,31.3 21.7,31.3 C21,31.3 20.3,31.4 19.5,31.4 C19.5,31.4 19.4,31.4 19.4,31.4 C19.4,31.4 19.4,31.4 19.4,31.4 L19.4,31.4 C19.4,31.4 19.4,31.4 19.4,31.4 L19.4,31.4 L19.4,31.4 C19.1,31.7 18.8,32 18.5,32.2 C17.9,32.8 17.3,33.3 16.7,33.8 C15.5,34.9 14.4,35.8 13.5,36.6 C12.5,37.4 11.7,38.1 11.2,38.6 C10.6,39.1 10.3,39.3 10.3,39.3 C9.8,39.7 8.9,39.7 8.4,39.3 C7.6,39 7.5,38 8.1,37.4 Z" id="Path" fill="#84575D"></path>
                <g id="_x38_._Right_shoe_107_" transform="translate(0.000000, 36.000000)">
                    <circle id="Oval" fill="#F7B75D" transform="translate(8.824300, 2.993620) rotate(-71.639337) translate(-8.824300, -2.993620) " cx="8.8243" cy="2.99362" r="2.00001581"></circle>
                    <path d="M0.9,2.5 L8.1,4.9 C8.9,5.2 9.7,4.7 9.9,4 L9.9,4 C10.2,3.2 9.7,1.2 9,1 L1.3,0.7 C0.5,0.7 0,1.7 0.6,2.3 C0.7,2.4 0.8,2.4 0.9,2.5 Z" id="Path" fill="#F7B75D"></path>
                    <path d="M6.5,1.8 L6.5,1.8 C6.7,1.8 6.9,1.6 6.8,1.4 L6.7,0.6 C6.7,0.4 6.5,0.3 6.4,0.3 L6.4,0.3 C6.2,0.3 6,0.5 6.1,0.7 L6.2,1.5 C6.2,1.7 6.4,1.8 6.5,1.8 Z" id="Path" fill="#FFFFFF"></path>
                    <path d="M5.4,1.8 L5.4,1.8 C5.6,1.8 5.8,1.6 5.7,1.4 L5.6,0.6 C5.6,0.4 5.4,0.3 5.3,0.3 L5.3,0.3 C5.1,0.3 4.9,0.5 5,0.7 L5.1,1.5 C5.1,1.7 5.3,1.8 5.4,1.8 Z" id="Path" fill="#FFFFFF"></path>
                    <circle id="Oval" fill="#84575D" transform="translate(8.812620, 2.989620) rotate(-71.644775) translate(-8.812620, -2.989620) " cx="8.81262" cy="2.98962" r="1.19997169"></circle>
                </g>
                <path d="M28.5,9.1 C28.4,9.6 27.9,10 27.4,10 C26.8,10 26.4,9.6 26.3,9.1 L28.5,9.1 Z" id="Path" fill="#FFFEFF"></path>
                <path d="M14.5,23.7 C15,23.6 15.5,23.4 15.8,23 L15.3,19.8 C14.9,19.5 14.4,19.4 13.9,19.5 C12.7,19.7 11.9,20.8 12.1,22 C12.2,23 13.3,23.8 14.5,23.7 Z" id="Path" fill="#F99AB6"></path>
                <path d="M34.9,23.9 C35.2,23.8 35.4,23.6 35.6,23.3 C35.8,23 35.8,22.7 35.7,22.3 L32.9,13.2 L30.5,13.9 L32.9,21.8 L27,23.4 L27.7,25.8 L34.9,23.9 C34.8,23.9 34.8,23.9 34.9,23.9 Z" id="Path" fill="#F7B75D"></path>
                <polygon id="Path" fill="#F7B75D" points="35.6 21.8 33.5 14.4 33.1 14.5 35.2 21.9"></polygon>
                <polygon id="Path" fill="#F7B75D" points="32.3 19.6 31.1 15.2 30.6 15.3 31.9 19.7"></polygon>
                <path d="M24,24.4 C23.9,24.9 24.1,25.4 24.3,25.8 L27.5,26.2 C27.9,25.9 28.1,25.4 28.2,24.9 C28.4,23.7 27.5,22.6 26.4,22.5 C25.2,22.4 24.1,23.2 24,24.4 Z" id="Path" fill="#F99AB6"></path>
                <g transform="translate(8.000000, 14.000000)" id="Path">
                    <path d="M21.8,12 C21.8,11.7 21.6,11.5 21.3,11.5 L1.9,11.5 C1.5,11.5 1.2,11.7 1.2,12 C1.2,12.3 1.5,12.5 1.9,12.5 L21.3,12.5 C21.5,12.6 21.8,12.3 21.8,12 L21.8,12 Z" fill="#FF6161"></path>
                    <path d="M22.5,12 C22.5,12.3 22.2,12.5 21.9,12.5 L14.5,12.5 C14.2,12.5 13.9,12.3 13.9,12 C13.9,11.7 14.2,11.5 14.5,11.5 L21.9,11.5 C22.3,11.5 22.5,11.7 22.5,12 Z" fill="#FFFFFF"></path>
                    <path d="M1.1,1.5 L1.1,11.3 C1.1,11.7 1.5,12.1 1.9,12.1 L14.8,12.1 C15.2,12.1 15.6,11.7 15.6,11.3 L15.6,1.5 C15.6,1.1 15.2,0.7 14.8,0.7 L1.9,0.7 C1.5,0.7 1.1,1 1.1,1.5 Z" fill="#FFFFFF"></path>
                    <path d="M0.5,1.5 L0.5,11.3 C0.5,11.7 0.9,12.1 1.3,12.1 L14.2,12.1 C14.6,12.1 15,11.7 15,11.3 L15,1.5 C15,1.1 14.6,0.7 14.2,0.7 L1.3,0.7 C0.9,0.7 0.5,1 0.5,1.5 Z" fill="#FF6161"></path>
                    <path d="M9.9,6.3 L9.9,6.3 C9.9,5.8 9.5,5.5 9.1,5.5 L6.5,5.5 C6,5.5 5.7,5.9 5.7,6.3 L5.7,6.3 C5.7,6.8 6.1,7.1 6.5,7.1 L9.1,7.1 C9.5,7.2 9.9,6.8 9.9,6.3 Z" fill="#FFFFFF"></path>
                </g>
            </g>
            <g id="Group" transform="translate(235.000000, 162.000000)">
                <g id="_x38_._Right_shoe_106_" transform="translate(0.000000, 48.000000)">
                    <circle id="Oval" fill="#F7B75D" transform="translate(9.401300, 3.234350) rotate(-74.079003) translate(-9.401300, -3.234350) " cx="9.4013" cy="3.23435" r="2.19990655"></circle>
                    <path d="M0.7,3.1 L8.7,5.4 C9.5,5.6 10.4,5.2 10.7,4.3 L10.7,4.3 C10.9,3.5 10.4,1.3 9.5,1.1 L1.1,1.2 C0.2,1.2 -0.3,2.4 0.4,3 C0.5,3 0.6,3 0.7,3.1 Z" id="Path" fill="#F7B75D"></path>
                    <path d="M6.8,2 L6.8,2 C7,2 7.2,1.8 7.1,1.5 L6.9,0.7 C6.9,0.5 6.7,0.4 6.5,0.4 L6.5,0.4 C6.3,0.4 6.1,0.6 6.2,0.9 L6.4,1.7 C6.5,1.9 6.6,2.1 6.8,2 Z" id="Path" fill="#FFFFFF"></path>
                    <path d="M5.6,2.1 L5.6,2.1 C5.8,2.1 6,1.9 5.9,1.6 L5.7,0.8 C5.7,0.6 5.5,0.5 5.3,0.5 L5.3,0.5 C5.1,0.5 4.9,0.7 5,1 L5.2,1.8 C5.3,2 5.5,2.1 5.6,2.1 Z" id="Path" fill="#FFFFFF"></path>
                </g>
                <path d="M11.8,35.7 L11.8,35.7 L23.8,28.6 L27.4,32.5 L14.8,39.2 L11.9,52 L11.8,52 L8.4,48.9 L10.7,37.1 C10.8,36.6 11.2,36 11.8,35.7 Z" id="Path" fill="#84575D"></path>
                <g id="_x38_._Right_shoe_105_" transform="translate(29.000000, 53.000000)">
                    <circle id="Oval" fill="#F7B75D" transform="translate(8.900869, 2.400595) rotate(-0.140954) translate(-8.900869, -2.400595) " cx="8.90086858" cy="2.40059526" r="2.00000605"></circle>
                    <path d="M1.4,4.4 L8.9,4.4 C9.7,4.4 10.3,3.8 10.3,3 L10.3,3 C10.3,2.2 9.3,0.5 8.5,0.5 L1.3,2.6 C0.5,2.8 0.4,4 1.1,4.3 C1.1,4.4 1.2,4.4 1.4,4.4 Z" id="Path" fill="#F7B75D"></path>
                    <path d="M6.4,2 L6.4,2 C6.6,1.9 6.7,1.7 6.6,1.5 L6.2,0.8 C6.1,0.7 6,0.6 5.8,0.6 L5.8,0.6 C5.6,0.7 5.5,0.9 5.6,1.1 L6,1.8 C6,2 6.2,2 6.4,2 Z" id="Path" fill="#FFFFFF"></path>
                    <path d="M5.3,2.3 L5.3,2.3 C5.5,2.2 5.6,2 5.5,1.8 L5.1,1.1 C5,1 4.9,0.9 4.7,0.9 L4.7,0.9 C4.5,1 4.4,1.2 4.5,1.4 L4.9,2.1 C5,2.3 5.2,2.4 5.3,2.3 Z" id="Path" fill="#FFFFFF"></path>
                </g>
                <path d="M22.1,26.9 L30,26 C30.5,26.6 31.1,28.3 31.3,29.1 C31.6,30.3 31.3,31.6 30.7,32.6 C30.1,33.6 29.1,34.4 27.8,34.6 C27.2,34.7 24.2,34.8 22.8,33.4 C20.7,31.4 22.1,26.9 22.1,26.9 Z" id="Path" fill="#84575D"></path>
                <path d="M27,31.1 L32.1,31.1 L30.1,43.3 L38.7,53.4 L34.2,54.7 L26,45.5 C25.6,45 25.4,44.4 25.5,43.8 L27,31.1 Z" id="Path" fill="#84575D"></path>
                <path d="M6.1,26 L17.9,25.8 C18.4,25.8 18.9,25.5 19.1,25 L23.7,15.8 L21.2,14.5 L16.9,23 L5.9,23.2 L6.1,26 Z" id="Path" fill="#000000"></path>
                <polygon id="Path" fill="#F99AB6" points="23 7.2 23.4 14.7 26.8 14.5 26.3 7.3 26.2 5.2"></polygon>
                <path d="M25.7,9.5 C25.7,9.5 24.9,11.4 23.3,11.9 L23.2,9.4 L25.7,9.5 Z" id="Path" fill="#F99AB6"></path>
                <path d="M21.9,11.6 C21.8,11.6 21.5,11.5 21.4,11.5 C20.1,11.1 18.8,9 18.9,7.8 C19,6.3 19.1,5.6 19,4.6 C18.9,3.2 20.2,2.2 21.6,2.2 L24.4,2.3 C25.4,2.3 26.2,3.2 26.2,4.3 L26,8.8 C25.8,10.4 23.5,11.9 21.9,11.6 Z" id="Path" fill="#F99AB6"></path>
                <path d="M27.6,12.6 C27.2,12.4 26.8,12.2 26.3,12.3 L24.8,12.5 C24.1,12.6 23.4,12.9 22.8,13.3 C24.3,13.7 26.3,13.5 27.6,12.6 Z" id="Path" fill="#F99AB6"></path>
                <path d="M30,15.6 C29.9,14.4 28.9,12.8 27.6,12.6 C25.4,12.9 23.4,13 22.6,13.2 C21.3,14.1 20.5,15.7 20.7,17.3 L20.9,31.1 C25.1,34 32.7,32.9 32.7,32.9 C32.6,26.9 30.1,17.9 30,15.6 Z" id="Path" fill="#000000"></path>
                <path d="M14.4,25.9 L24.1,26 C24.8,26 25.4,25.5 25.5,24.8 L27.1,14.2 L24.3,13.8 L22.9,23.2 L14.5,23.1 L14.4,25.9 Z" id="Path" fill="#000000"></path>
                <path d="M22.9,13.1 C23.5,12.9 24.7,12.9 26.4,12.7 C25.4,15 22.7,17 21.9,19.7 C21.6,19.2 21.7,14 22.9,13.1 Z" id="Path" fill="#F7B75D"></path>
                <path d="M23.1,13.5 C23.2,13.4 23.6,13.1 23.6,13 C23.9,13 23.8,13.1 24.2,13 C23.1,14 23.7,15.7 23.3,17.2 C22.8,18 22.3,18.8 22,19.7 C21.8,19.4 21.7,17.7 21.9,16.1 C21.9,15.9 22.2,14.5 23.1,13.5 Z" id="Path" fill="#FF6161"></path>
                <path d="M22.9,13.8 C23,14 23.6,14.1 23.8,13.9 C24,13.8 24.1,13.1 24.1,13.1 L22.8,12.9 C22.8,12.9 22.8,13.6 22.9,13.8 Z" id="Path" fill="#B8B9F1"></path>
                <path d="M20.6,5 C15.3,3.8 19.1,0.4 19.1,0.4 C19.1,0.4 19.2,1.7 20.2,1.3 C22.2,0.5 26.5,0 27.7,2.6 C28.6,4.6 26.9,9 26.6,10.2 C26.1,9.9 26.5,4.7 24.3,4.9 C23.1,4.9 21.7,5.2 20.6,5 Z" id="Path" fill="#B24F57"></path>
                <path d="M21.4,10.5 C20.3,10.5 21,8.7 21.4,8.7 C21.8,8.7 22.4,10.5 21.4,10.5 Z" id="Path" fill="#FFFEFF"></path>
                <polygon id="Path" fill="#FFFFFF" points="24.9 14.4 27.6 12.6 26.7 11.6 23.4 13"></polygon>
                <polygon id="Path" fill="#FFFFFF" points="22.6 13.7 22.8 13.1 23.3 12.6 23.5 13"></polygon>
                <g transform="translate(1.000000, 9.000000)" id="Path">
                    <path d="M24,13.6 C24,13.3 23.7,13 23.4,13 L1.8,13 C1.3,13 1,13.3 1,13.6 C1,13.9 1.4,14.2 1.8,14.2 L23.4,14.2 C23.8,14.2 24,13.9 24,13.6 L24,13.6 Z" fill="#FF6161"></path>
                    <path d="M24.9,13.6 C24.9,13.9 24.6,14.2 24.3,14.2 L16,14.2 C15.6,14.2 15.4,13.9 15.4,13.6 C15.4,13.3 15.7,13 16,13 L24.2,13 C24.6,13 24.9,13.3 24.9,13.6 Z" fill="#E5E9FF"></path>
                    <path d="M1.1,1.8 L1.1,12.7 C1.1,13.2 1.5,13.6 2,13.6 L16.4,13.6 C16.9,13.6 17.3,13.2 17.3,12.7 L17.3,1.8 C17.3,1.3 16.9,0.9 16.4,0.9 L2,0.9 C1.5,1 1.1,1.3 1.1,1.8 Z" fill="#E5E9FF"></path>
                    <path d="M0.4,1.8 L0.4,12.7 C0.4,13.2 0.8,13.6 1.3,13.6 L15.7,13.6 C16.2,13.6 16.6,13.2 16.6,12.7 L16.6,1.8 C16.6,1.3 16.2,0.9 15.7,0.9 L1.3,0.9 C0.8,1 0.4,1.3 0.4,1.8 Z" fill="#FFFFFF"></path>
                    <path d="M10.8,7.3 L10.8,7.3 C10.8,6.8 10.4,6.4 9.9,6.4 L7,6.4 C6.5,6.4 6.1,6.8 6.1,7.3 L6.1,7.3 C6.1,7.8 6.5,8.2 7,8.2 L9.9,8.2 C10.4,8.2 10.8,7.8 10.8,7.3 Z" fill="#F1E1E1"></path>
                </g>
                <path d="M15.4,24.5 C15.5,23.9 15.4,23.3 15.1,22.9 L11.5,22.3 C11.1,22.7 10.8,23.2 10.7,23.7 C10.5,25 11.4,26.3 12.7,26.5 C13.9,26.7 15.1,25.8 15.4,24.5 Z" id="Path" fill="#F99AB6"></path>
                <path d="M7.7,23.8 C7.7,23.2 7.6,22.6 7.3,22.2 L3.6,21.9 C3.2,22.3 2.9,22.8 2.9,23.4 C2.8,24.7 3.8,25.9 5.1,26 C6.4,26.1 7.6,25.1 7.7,23.8 Z" id="Path" fill="#F99AB6"></path>
            </g>
            <g id="Group" transform="translate(96.000000, 89.000000)">
                <ellipse id="Oval" fill="#B24F57" transform="translate(17.468746, 5.920077) rotate(-89.793831) translate(-17.468746, -5.920077) " cx="17.4687463" cy="5.92007682" rx="3.70002395" ry="2.30001489"></ellipse>
                <path d="M28.8,11.4 C27.3,10.5 25.6,8.4 26.3,6.5 C27.8,2 24.3,0.4 22.6,0.1 C20.9,-0.2 19.4,0.2 18.4,1 C16.8,2.2 17.3,4.4 18.2,6.1 C17.3,6.6 16.8,7.8 17.3,8.7 C18.5,10.6 17.5,13.1 16.8,14.7 C15.7,17.1 17.2,20.2 20,21.5 C22.7,22.9 26.3,22.7 29.1,21.5 C30.5,20.9 31.7,20 32.3,18.8 C33.6,16.2 31.7,13 28.8,11.4 Z" id="Path" fill="#B24F57"></path>
                <path d="M9.9,28.5 C9.2,28.6 8.6,28.7 7.8,28.7 C7.3,28.7 6.8,28.3 6.8,27.8 C6.8,27.3 7.2,26.8 7.7,26.8 C11.1,26.7 13.6,25.7 15.2,23.9 C17.6,21.1 17.2,17.1 17.2,17.1 C17.1,16.6 17.5,16.1 18,16 C18.5,15.9 19,16.3 19.1,16.8 C19.1,17 19.7,21.6 16.7,25.1 C15.1,26.9 12.8,28 9.9,28.5 Z" id="Path" fill="#F99AB6"></path>
                <path d="M17.9,15.2 C17,15.3 16.4,16.2 16.5,17 C16.5,17 16.9,20.7 14.7,23.3 C13.6,24.6 12,25.4 10,25.8 C10.6,26.8 10.7,28.1 10.2,29.1 C13.2,28.6 15.5,27.4 17.2,25.5 C20.4,21.8 19.8,16.9 19.8,16.6 C19.7,15.7 18.9,15.1 17.9,15.2 Z" id="Path" fill="#F7B75D"></path>
                <path d="M18.2,16.8 C17.7,16.6 17.3,15.8 17.9,15.1 C18.5,14.4 19.4,14.1 20.3,14 L20.5,14 C21.3,14 22.1,14.3 22.6,14.9 C22.3,16.3 19.5,17.3 18.2,16.8 Z" id="Path" fill="#F99AB6"></path>
                <path d="M19.8,12.1 L19.8,13.2 L19.8,15.2 L21.4,15.2 L21.4,12.6 L21.4,11.6 C20.9,12 20.4,12.2 19.8,12.1 Z" id="Path" fill="#F99AB6"></path>
                <path d="M19.8,12.4 L19.8,13.5 C20.4,13.4 21,13.2 21.4,12.8 L21.4,12 C20.9,12.3 20.4,12.4 19.8,12.4 Z" id="Path" fill="#F99AB6"></path>
                <path d="M20.2,13 L20.2,13 C21.7,13 23,12.3 23.8,11.2 C24.4,10.4 24.7,9.5 24.7,8.5 L24.7,6.7 C24.7,5.4 24.1,4.2 23.3,3.4 C22.5,2.6 21.4,2.2 20.2,2.2 L20.2,2.2 C19.4,2.2 18.7,2.4 18,2.8 C16.6,3.6 15.7,5.1 15.7,6.8 L15.7,8.6 C15.7,10.2 16.6,11.7 17.9,12.4 C18.5,12.7 19.3,13 20.2,13 Z" id="Path" fill="#F99AB6"></path>
                <circle id="Oval" fill="#84575D" transform="translate(20.919500, 28.582600) rotate(-77.172877) translate(-20.919500, -28.582600) " cx="20.9195" cy="28.5826" r="4.29980435"></circle>
                <path d="M19.9,10.6 C19.8,11.2 19.3,11.6 18.7,11.6 C18.1,11.6 17.6,11.2 17.5,10.6 L19.9,10.6 Z" id="Path" fill="#FFFEFF"></path>
                <path d="M15.9,17.5 C15.6,18.3 16.4,19.1 17.3,19.2 C18.2,19.3 18.9,18.7 19,17.8 C19.1,16.9 17.8,15.1 17.3,15.8 C16.9,16.5 16.2,16.8 15.9,17.5 Z" id="Path" fill="#F7B75D"></path>
                <path d="M22.9,15.5 C23.3,15.9 23.5,16.4 23.5,17 C23.5,17 23.1,23.8 25,26.9 L17.1,27.6 L17.3,18.2 C17.3,17.2 17.6,16.3 18.3,15.6 C18.3,17.2 21.4,15.4 22.9,15.5 Z" id="Path" fill="#F7B75D"></path>
                <g transform="translate(13.000000, 46.000000)" id="Path">
                    <path d="M4.2,0.5 C3.4,0.5 3.1,1.2 3,1.5 C2.6,2.6 2.8,3.8 2.1,5.6 C1.6,6.9 1.1,7.1 0.8,8.2 C0.5,9.1 1.3,9.4 2.1,9.1 C2.4,9 4.4,8.5 4.5,6.9 C4.5,5.7 4.4,4.8 4.8,3.8 C5.2,2.8 5.5,3.4 5.6,3.7 C5.7,3.9 6,4.5 6,4.7 C6,4.8 6.1,4.8 6.2,4.8 L6.2,4.8 C6.3,4.8 6.3,4.7 6.3,4.6 C6.2,4.4 6,3.6 5.9,2.6 C5.7,1.3 4.8,0.5 4.2,0.5 Z" fill="#F7B75D"></path>
                    <path d="M3.4,6 C3.8,5.1 4.3,2.2 4.1,1.6 C3.8,0.9 2.3,0.8 2.2,1.5 C2,2.7 2.5,4.7 1.6,6.8 C1.6,7.3 2.9,7.1 3.4,6 Z" fill="#F99AB6"></path>
                </g>
                <path d="M22.3,32.6 L12.2,37.3 L13.2,35 L16.9,47.2 C17.1,47.9 16.7,48.7 16,48.9 C15.3,49.1 14.5,48.7 14.3,48.1 L9.7,36.2 C9.4,35.3 9.8,34.4 10.6,34 L10.7,34 L20.8,29.2 C21.8,28.7 22.9,29.1 23.4,30.1 C23.7,31 23.3,32.1 22.3,32.6 C22.3,32.6 22.3,32.6 22.3,32.6 Z" id="Path" fill="#84575D"></path>
                <g transform="translate(3.000000, 42.000000)" id="Path">
                    <path d="M7.4,0.7 C6.7,0.4 6,0.8 5.9,1 C5.1,1.8 4.6,2.9 3.1,4.2 C2.1,5.1 1.5,5.1 0.7,5.9 C0,6.6 0.6,7.2 1.5,7.3 C1.8,7.3 3.9,7.8 4.6,6.4 C5.2,5.4 5.5,4.5 6.3,3.8 C7.1,3.1 7.1,3.7 7.1,4.1 C7.1,4.3 7,5 7,5.2 C7,5.3 7.1,5.3 7.1,5.4 L7.1,5.4 C7.2,5.4 7.3,5.3 7.3,5.3 C7.3,5 7.5,4.3 7.9,3.3 C8.4,2.1 8,1 7.4,0.7 Z" fill="#F7B75D"></path>
                    <path d="M4.1,5.2 C4.9,4.6 6.7,2.3 6.8,1.6 C6.9,0.8 5.5,5.55111512e-17 5.1,0.6 C4.4,1.5 3.9,3.5 2.1,5 C1.9,5.5 3.1,5.9 4.1,5.2 Z" fill="#F99AB6"></path>
                </g>
                <path d="M21.6,32.9 L10.5,32.3 L12.4,30.7 L10,43.2 C9.9,44 9.1,44.5 8.4,44.3 C7.7,44.2 7.2,43.5 7.3,42.8 L8.8,30.2 C8.9,29.3 9.7,28.6 10.6,28.6 L10.7,28.6 L21.9,29 C23,29 23.8,29.9 23.7,31 C23.6,32.1 22.7,32.9 21.6,32.9 C21.6,32.9 21.6,32.9 21.6,32.9 Z" id="Path" fill="#84575D"></path>
                <path d="M22.4,28.6 C21.9,28.7 21.4,28.7 20.8,28.8 C20.3,28.8 19.8,28.4 19.8,27.9 C19.8,27.4 20.2,26.9 20.7,26.9 C22.5,26.8 24.7,26.4 25.3,24.9 C26.2,22.6 23.1,18.5 21.9,17.3 C21.5,16.9 21.6,16.3 22,15.9 C22.4,15.5 23,15.6 23.4,16 C23.9,16.6 28.6,21.9 27.1,25.6 C26.4,27.2 24.8,28.2 22.4,28.6 Z" id="Path" fill="#F99AB6"></path>
                <path d="M24,16 C23.6,15.6 23.1,15.4 22.6,15.5 C22.2,15.6 21.9,15.7 21.7,16 C21.2,16.6 21.2,17.6 21.8,18.2 C23.1,19.6 25.5,23.1 24.9,24.8 C24.8,25.1 24.5,25.3 24.2,25.5 C23.6,25.9 23.3,26.5 23.4,27.2 C23.4,27.2 23.4,27.2 23.4,27.2 C23.6,28.2 24.8,28.8 25.7,28.3 C26.7,27.7 27.4,27 27.8,26 C29.3,22.1 24.9,17 24,16 Z" id="Path" fill="#F7B75D"></path>
                <path d="M16.7,27.7 C16.7,28.3 17,28.8 17.4,29.1 L20.9,28.8 C21.2,28.4 21.4,27.8 21.3,27.3 C21.2,26 20.1,25.1 18.8,25.2 C17.6,25.3 16.6,26.4 16.7,27.7 Z" id="Path" fill="#F99AB6"></path>
                <path d="M4.8,28.1 C4.8,28.7 5,29.2 5.4,29.6 L8.9,29.5 C9.2,29.1 9.4,28.6 9.4,28 C9.3,26.7 8.3,25.7 7,25.8 C5.8,25.8 4.8,26.9 4.8,28.1 Z" id="Path" fill="#F99AB6"></path>
                <ellipse id="Oval" fill="#B24F57" transform="translate(21.236120, 4.210320) rotate(-70.669934) translate(-21.236120, -4.210320) " cx="21.23612" cy="4.21032" rx="2.79991874" ry="4.39987231"></ellipse>
                <g transform="translate(0.000000, 16.000000)" id="Path">
                    <path d="M23,13 C23,12.7 22.7,12.4 22.4,12.4 L1.5,12.4 C1.1,12.4 0.7,12.7 0.7,13 C0.7,13.3 1.1,13.6 1.5,13.6 L22.4,13.6 C22.8,13.6 23,13.4 23,13 L23,13 Z" fill="#B24F57"></path>
                    <path d="M23.8,13 C23.8,13.3 23.5,13.6 23.2,13.6 L15.3,13.6 C15,13.6 14.7,13.3 14.7,13 C14.7,12.7 15,12.4 15.3,12.4 L23.2,12.4 C23.6,12.5 23.8,12.7 23.8,13 Z" fill="#FFFFFF"></path>
                    <path d="M0.8,1.7 L0.8,12.2 C0.8,12.7 1.2,13 1.6,13 L15.5,13 C16,13 16.3,12.6 16.3,12.2 L16.3,1.7 C16.3,1.2 15.9,0.9 15.5,0.9 L1.6,0.9 C1.2,0.8 0.8,1.2 0.8,1.7 Z" fill="#FFFFFF"></path>
                    <path d="M0.2,1.7 L0.2,12.2 C0.2,12.7 0.6,13 1,13 L14.9,13 C15.4,13 15.7,12.6 15.7,12.2 L15.7,1.7 C15.7,1.2 15.3,0.9 14.9,0.9 L1,0.9 C0.6,0.8 0.2,1.2 0.2,1.7 Z" fill="#B24F57"></path>
                    <path d="M10.3,6.9 L10.3,6.9 C10.3,6.4 9.9,6 9.4,6 L6.6,6 C6.1,6 5.7,6.4 5.7,6.9 L5.7,6.9 C5.7,7.4 6.1,7.8 6.6,7.8 L9.4,7.8 C9.9,7.8 10.3,7.4 10.3,6.9 Z" fill="#FFFFFF"></path>
                </g>
            </g>
            <g id="Group" transform="translate(132.000000, 104.000000)" fill="#FF6161">
                <path d="M1.1,11.5 L3.3,14.6 C3.3,14.7 3.4,14.8 3.5,14.9 C3.6,14.9 3.7,15 3.7,15 C3.8,15 3.9,15 3.9,14.9 C4,14.8 4,14.7 4.1,14.6 L6.3,11.5 C6.4,11.3 6.4,11.1 6.2,11 C6,10.9 5.8,10.9 5.7,11.1 L3.8,13.9 L1.9,11.1 C1.8,10.9 1.6,10.9 1.4,11 C1,11.1 1,11.3 1.1,11.5 Z" id="Path"></path>
                <path d="M1.1,8.2 L3.3,11.3 C3.3,11.4 3.4,11.5 3.5,11.6 C3.6,11.6 3.7,11.7 3.7,11.7 C3.8,11.7 3.9,11.7 3.9,11.6 C4,11.5 4,11.4 4.1,11.3 L6.3,8.2 C6.4,8 6.4,7.8 6.2,7.7 C6,7.6 5.8,7.6 5.7,7.8 L3.8,10.6 L1.9,7.8 C1.8,7.6 1.6,7.6 1.4,7.7 C1,7.8 1,8 1.1,8.2 Z" id="Path"></path>
                <path d="M0.9,4.8 L3.1,7.9 C3.1,8 3.2,8.1 3.3,8.2 C3.4,8.3 3.5,8.3 3.5,8.3 C3.6,8.3 3.7,8.3 3.7,8.2 C3.8,8.1 3.8,8 3.9,7.9 L6.1,4.8 C6.2,4.6 6.2,4.4 6,4.3 C5.8,4.2 5.6,4.2 5.5,4.4 L3.6,7.2 L1.7,4.4 C1.6,4.2 1.4,4.2 1.2,4.3 C0.9,4.4 0.8,4.7 0.9,4.8 Z" id="Path"></path>
                <path d="M0.9,1.5 L3.1,4.6 C3.1,4.7 3.2,4.8 3.3,4.9 C3.4,4.9 3.5,5 3.5,5 C3.6,5 3.7,5 3.7,4.9 C3.8,4.8 3.8,4.7 3.9,4.6 L6.1,1.5 C6.2,1.3 6.2,1.1 6,1 C5.8,0.9 5.6,0.9 5.5,1.1 L3.6,3.9 L1.7,1.1 C1.6,0.9 1.4,0.9 1.2,1 C0.9,1.1 0.8,1.4 0.9,1.5 Z" id="Path"></path>
            </g>
            <g id="Group" transform="translate(171.000000, 57.000000)" fill="#FF6161">
                <path d="M0.8,18.5 L4.4,23.7 C4.4,23.9 4.5,24 4.7,24.1 C4.8,24.2 5,24.2 5.1,24.2 C5.2,24.2 5.4,24.2 5.5,24.1 C5.6,24 5.7,23.8 5.8,23.7 L9.4,18.5 C9.6,18.2 9.5,17.8 9.2,17.6 C8.9,17.4 8.5,17.5 8.3,17.8 L5.1,22.5 L1.9,17.8 C1.7,17.5 1.3,17.5 1,17.6 C0.7,17.8 0.6,18.2 0.8,18.5 Z" id="Path"></path>
                <path d="M0.8,12.9 L4.4,18.1 C4.4,18.3 4.5,18.4 4.7,18.5 C4.8,18.6 5,18.6 5.1,18.6 C5.2,18.6 5.4,18.6 5.5,18.5 C5.6,18.4 5.7,18.2 5.8,18.1 L9.4,12.9 C9.6,12.6 9.5,12.2 9.2,12 C8.9,11.8 8.5,11.9 8.3,12.2 L5.1,16.9 L1.9,12.2 C1.7,11.9 1.3,11.9 1,12 C0.7,12.2 0.6,12.6 0.8,12.9 Z" id="Path"></path>
                <path d="M0.6,7.3 L4.2,12.5 C4.2,12.7 4.3,12.8 4.5,12.9 C4.6,13 4.8,13 4.9,13 C5,13 5.2,13 5.3,12.9 C5.4,12.8 5.5,12.6 5.6,12.5 L9.2,7.3 C9.4,7 9.3,6.6 9,6.4 C8.7,6.2 8.3,6.3 8.1,6.6 L4.9,11.3 L1.7,6.6 C1.5,6.3 1.1,6.3 0.8,6.4 C0.5,6.7 0.4,7.1 0.6,7.3 Z" id="Path"></path>
                <path d="M0.6,1.8 L4.2,7 C4.2,7.2 4.3,7.3 4.5,7.4 C4.6,7.5 4.8,7.5 4.9,7.5 C5,7.5 5.2,7.5 5.3,7.4 C5.4,7.3 5.5,7.1 5.6,7 L9.2,1.8 C9.4,1.5 9.3,1.1 9,0.9 C8.7,0.7 8.3,0.8 8.1,1.1 L4.9,5.8 L1.7,1.1 C1.5,0.8 1.1,0.7 0.8,0.9 C0.5,1.1 0.4,1.5 0.6,1.8 Z" id="Path"></path>
            </g>
            <g id="Group" transform="translate(130.000000, 67.000000)">
                <path d="M30.8,0.6 L4.1,0.6 C2.2,0.6 0.7,2.1 0.7,4 L0.7,18.9 C0.7,20.8 2.2,22.3 4.1,22.3 L18.4,22.3 L18.4,30.6 L26.6,22.3 L30.8,22.3 C32.7,22.3 34.2,20.8 34.2,18.9 L34.2,4 C34.2,2.1 32.7,0.6 30.8,0.6 Z" id="Path" fill="#FF6161"></path>
                <g transform="translate(6.000000, 5.000000)" fill="#F7B75D">
                    <path d="M4.6,11.4 L0.7,7.5 C0.5,7.3 0.5,6.9 0.7,6.7 L4.5,2.9 L5.3,3.7 L1.9,7.1 L5.4,10.6 L4.6,11.4 Z" id="Path"></path>
                    <path d="M18.3,11.5 L17.5,10.7 L21,7.2 L17.5,3.7 L18.3,2.9 L22.2,6.8 C22.3,6.9 22.4,7.1 22.4,7.2 C22.4,7.4 22.3,7.5 22.2,7.6 L18.3,11.5 Z" id="Path"></path>
                    <rect id="Rectangle" transform="translate(11.736040, 7.192655) rotate(-66.039256) translate(-11.736040, -7.192655) " x="4.23623632" y="6.6426694" width="14.9996074" height="1.09997121"></rect>
                </g>
            </g>
            <path d="M301.5,222.3 L42.2,222.3 C41.4,222.3 40.7,221.6 40.7,220.8 C40.7,220 41.4,219.3 42.2,219.3 L301.5,219.3 C302.3,219.3 303,220 303,220.8 C303,221.6 302.3,222.3 301.5,222.3 Z" id="Path" fill="#FF6161"></path>
            <g id="Group" transform="translate(89.000000, 230.000000)" fill="#FF6161">
                <path d="M64.2,3.9 L24.2,3.9 C23.4,3.9 22.7,3.2 22.7,2.4 C22.7,1.6 23.4,0.9 24.2,0.9 L64.2,0.9 C65,0.9 65.7,1.6 65.7,2.4 C65.7,3.2 65,3.9 64.2,3.9 Z" id="Path"></path>
                <path d="M12.2,3.9 L2.2,3.9 C1.4,3.9 0.7,3.2 0.7,2.4 C0.7,1.6 1.4,0.9 2.2,0.9 L12.2,0.9 C13,0.9 13.7,1.6 13.7,2.4 C13.7,3.2 13,3.9 12.2,3.9 Z" id="Path"></path>
            </g>
            <g id="Group" transform="translate(112.000000, 191.000000)">
                <path d="M13.7,34.9 C13.2,34.9 12.7,34.7 12.4,34.2 L6.7,26.5 C6.3,25.9 6.3,25.1 6.8,24.5 L14.2,15.5 C14.8,14.8 15.8,14.7 16.5,15.3 C17.2,15.9 17.3,16.9 16.7,17.6 L10.1,25.6 L15,32.3 C15.5,33 15.4,34.1 14.6,34.6 C14.3,34.8 14,34.9 13.7,34.9 Z" id="Path" fill="#000000"></path>
                <path d="M24.5,34.9 C24.2,34.9 23.8,34.8 23.5,34.6 C22.8,34.1 22.6,33 23.1,32.3 L28,25.6 L21.4,17.6 C20.8,16.9 20.9,15.9 21.6,15.3 C22.3,14.7 23.3,14.8 23.9,15.5 L31.3,24.4 C31.8,25 31.8,25.8 31.4,26.4 L25.7,34.2 C25.5,34.7 25,34.9 24.5,34.9 Z" id="Path" fill="#000000"></path>
                <circle id="Oval" fill="#F7B75D" cx="19.2" cy="5.6" r="4.7"></circle>
                <polygon id="Path" fill="#F99AB6" points="21 11.3 21 15.8 20.9 18.8 17.5 18.7 17.7 11.6 17.7 9.5"></polygon>
                <path d="M14.1,18.4 C14.1,17 15.3,15.6 16.6,15 C18.5,14 21.4,14.7 22.3,15.3 C23.9,16.2 24.8,18.1 24.7,20.1 L24.8,30.5 L13.7,30.5 C13.7,30.4 14.1,21.5 14.1,18.4 Z" id="Path" fill="#000000"></path>
                <path d="M21.7,15 C20.3,14.4 18.4,14.2 16.9,14.9 L18.1,16.1 C18.8,16.8 20,16.8 20.7,16.1 C21,15.7 21.3,15.3 21.7,15 Z" id="Path" fill="#F99AB6"></path>
                <path d="M20.1,2.9 L18.3,2.9 C16.7,2.9 15.2,4.2 15.4,5.8 C15.5,6.9 15.4,7.8 15.4,9.5 C15.4,10.9 17.1,13.7 18.5,13.7 L19.8,13.7 C21.2,13.7 22.9,10.9 22.9,9.5 C22.9,7.8 22.8,7 22.9,5.8 C23.2,4.2 21.7,2.9 20.1,2.9 Z" id="Path" fill="#F99AB6"></path>
                <path d="M17.8,11 C17.9,11.7 18.5,12.2 19.2,12.2 C19.9,12.2 20.5,11.7 20.6,11 L17.8,11 Z" id="Path" fill="#FFFEFF"></path>
                <path d="M21,40.4 L17.4,40.4 C14.8,40.4 12.9,38.1 13.4,35.5 L13.6,30.4 L24.7,30.4 L24.9,35.5 C25.5,38.1 23.6,40.4 21,40.4 Z" id="Path" fill="#566CD3"></path>
                <path d="M3,34.7 L18.1,33.3 L18.5,37.8 L3.4,39.2 C2.2,39.3 1.1,38.4 0.9,37.2 L0.9,37.2 C0.9,35.9 1.8,34.8 3,34.7 Z" id="Path" fill="#84575D"></path>
                <path d="M33.2,34.7 L18.1,33.3 L17.7,37.8 L32.8,39.2 C34,39.3 35.1,38.4 35.3,37.2 L35.3,37.2 C35.4,35.9 34.5,34.8 33.2,34.7 Z" id="Path" fill="#84575D"></path>
                <path d="M25.5,37.7 L13,37.7 C12.4,37.7 11.8,37.2 11.8,36.5 L11.8,28.2 C11.8,27.6 12.3,27 13,27 L25.6,27 C26.2,27 26.8,27.5 26.8,28.2 L26.8,36.5 C26.7,37.2 26.2,37.7 25.5,37.7 Z" id="Path" fill="#FFFFFF"></path>
                <path d="M25.5,38.2 L13,38.2 C12.4,38.2 11.8,37.7 11.8,37 L11.8,28.7 C11.8,28.1 12.3,27.5 13,27.5 L25.6,27.5 C26.2,27.5 26.8,28 26.8,28.7 L26.8,37 C26.7,37.7 26.2,38.2 25.5,38.2 Z" id="Path" fill="#FF6161"></path>
                <path d="M21,33.8 L17.6,33.8 C17.1,33.8 16.7,33.4 16.7,32.9 L16.7,32.9 C16.7,32.4 17.1,32 17.6,32 L21,32 C21.5,32 21.9,32.4 21.9,32.9 L21.9,32.9 C21.8,33.4 21.4,33.8 21,33.8 Z" id="Path" fill="#FFFFFF"></path>
                <g transform="translate(12.000000, 36.000000)">
                    <path d="M1.3,6.4 L5.7,6.1 L5.7,6.2 C5.7,6.5 5.9,6.7 6.1,6.7 C6.3,6.7 6.5,6.5 6.5,6.4 L6.5,6.1 L7,6.1 L7,6.2 C7,6.5 7.2,6.7 7.4,6.7 C7.6,6.7 7.8,6.5 7.8,6.4 L7.9,6.1 L10.7,5.9 C10.8,5.9 10.8,5.8 10.9,5.8 C11,5.8 11.1,5.7 11.2,5.7 C12.5,5.2 13.1,3.8 12.7,2.6 C12.2,1.3 10.8,0.7 9.6,1.1 C9.6,1.1 9.6,1.1 9.6,1.1 C9.6,1.1 9.6,1.1 9.6,1.1 L0.8,4.3 C0.7,4.3 0.5,4.4 0.4,4.5 C-0.4,5.2 0.2,6.5 1.3,6.4 Z" id="Path" fill="#FFFFFF"></path>
                    <g id="_x38_._Right_shoe_104_">
                        <circle id="Oval" fill="#F7B75D" transform="translate(10.287160, 3.903580) rotate(-19.895483) translate(-10.287160, -3.903580) " cx="10.28716" cy="3.90358" r="2.49996022"></circle>
                        <path d="M0.7,4.8 L9.5,1.6 C10.4,1.3 11.4,1.7 11.8,2.7 L11.8,2.7 C12.1,3.6 11.7,6.1 10.7,6.4 L1.3,7 C0.3,7.1 -0.4,5.8 0.3,5.1 C0.4,5 0.5,4.9 0.7,4.8 Z" id="Path" fill="#F7B75D"></path>
                        <path d="M7.6,5.5 L7.6,5.5 C7.9,5.5 8.1,5.7 8,6 L7.8,6.9 C7.8,7.1 7.6,7.2 7.4,7.2 L7.4,7.2 C7.1,7.2 6.9,7 7,6.7 L7.2,5.8 C7.2,5.6 7.4,5.5 7.6,5.5 Z" id="Path" fill="#FFFFFF"></path>
                        <path d="M6.2,5.5 L6.2,5.5 C6.5,5.5 6.7,5.7 6.6,6 L6.4,6.9 C6.4,7.1 6.2,7.2 6,7.2 L6,7.2 C5.7,7.2 5.5,7 5.6,6.7 L5.8,5.8 C5.9,5.7 6,5.5 6.2,5.5 Z" id="Path" fill="#FFFFFF"></path>
                    </g>
                </g>
                <path d="M32.3,35.7 L22.1,38.5 C21.1,38.8 20.5,39.8 20.8,40.8 L20.8,40.8 C21.1,41.8 22.1,42.4 23.1,42.1 L33.3,39.3 C34.3,39 34.9,38 34.6,37 L34.6,37 C34.3,36 33.3,35.4 32.3,35.7 Z" id="Path" fill="#F99AB6"></path>
                <g transform="translate(10.000000, 36.000000)">
                    <path d="M13,6.4 L8.6,6.1 L8.6,6.2 C8.6,6.5 8.4,6.7 8.2,6.7 C8,6.7 7.8,6.5 7.8,6.4 L7.8,6.1 L7.3,6.1 L7.3,6.2 C7.3,6.5 7.1,6.7 6.9,6.7 C6.7,6.7 6.5,6.5 6.5,6.4 L6.4,6.1 L3.6,5.9 C3.5,5.9 3.5,5.8 3.4,5.8 C3.3,5.8 3.2,5.7 3.1,5.7 C1.8,5.2 1.2,3.8 1.6,2.6 C2.1,1.3 3.5,0.7 4.7,1.1 C4.7,1.1 4.7,1.1 4.7,1.1 C4.7,1.1 4.7,1.1 4.7,1.1 L13.5,4.3 C13.6,4.3 13.8,4.4 13.9,4.5 C14.7,5.2 14,6.5 13,6.4 Z" id="Path" fill="#FFFFFF"></path>
                    <g id="_x38_._Right_shoe_103_">
                        <circle id="Oval" fill="#F7B75D" transform="translate(3.869940, 3.968500) rotate(-70.104517) translate(-3.869940, -3.968500) " cx="3.86994" cy="3.9685" r="2.49996022"></circle>
                        <path d="M13.6,4.8 L4.8,1.6 C3.9,1.3 2.9,1.7 2.5,2.7 L2.5,2.7 C2.2,3.6 2.6,6.1 3.6,6.4 L13,7 C14,7.1 14.7,5.8 14,5.1 C13.8,5 13.7,4.9 13.6,4.8 Z" id="Path" fill="#F7B75D"></path>
                        <path d="M6.7,5.5 L6.7,5.5 C6.4,5.5 6.2,5.7 6.3,6 L6.5,6.9 C6.5,7.1 6.7,7.2 6.9,7.2 L6.9,7.2 C7.2,7.2 7.4,7 7.3,6.7 L7.1,5.8 C7,5.6 6.9,5.5 6.7,5.5 Z" id="Path" fill="#FFFFFF"></path>
                        <path d="M8,5.5 L8,5.5 C7.7,5.5 7.5,5.7 7.6,6 L7.8,6.9 C7.8,7.1 8,7.2 8.2,7.2 L8.2,7.2 C8.5,7.2 8.7,7 8.6,6.7 L8.4,5.8 C8.4,5.7 8.2,5.5 8,5.5 Z" id="Path" fill="#FFFFFF"></path>
                    </g>
                </g>
                <path d="M3.9,35.7 L14.1,38.5 C15.1,38.8 15.7,39.8 15.4,40.8 L15.4,40.8 C15.1,41.8 14.1,42.4 13.1,42.1 L2.9,39.3 C1.9,39 1.3,38 1.6,37 L1.6,37 C1.9,36 2.9,35.4 3.9,35.7 Z" id="Path" fill="#F99AB6"></path>
                <path d="M19.2,0.9 C16.1,0.9 13.4,4.2 13.4,4.2 C17.3,6.6 20.1,4.8 21,4.1 C21.3,3.9 21.8,3.4 21.8,2.8 L19.2,0.9 Z" id="Path" fill="#F7B75D"></path>
            </g>
        </g>
    </g>
</svg>