<?xml version="1.0" encoding="utf-8"?>
<!-- Generator: Adobe Illustrator 21.1.0, SVG Export Plug-In . SVG Version: 6.00 Build 0)  -->
<svg version="1.1" xmlns="http://www.w3.org/2000/svg" xmlns:xlink="http://www.w3.org/1999/xlink" x="0px" y="0px"
	 viewBox="0 0 1750.2 1208.1" style="enable-background:new 0 0 1750.2 1208.1;" xml:space="preserve">
<style type="text/css">
	.st0{fill:#DDEDF2;}
</style>
<g id="Layer_2">
	<path class="st0" d="M148.6,736.9c-168.7-9.5-193.4-214.3-60.4-291.4c110.3-64,284.7-28.9,398.8-30
		c170.1-1.7,255.6-113.8,402.1-173c144.5-58.4,216.1-6.4,325.3,87.3c99.1,85,204.6,109.5,318.6,155.6
		c105.4,42.6,183.5,114.2,181,244.4c-2.6,135.3-135.8,180.9-243.2,185.7c-122.7,5.5-240.4,3.9-357.5,40.9
		c-175.4,55.3-351.3,69.5-526.2,11.1c-90-30-137.1-68.6-216.2-121.8C310.4,804.9,209.7,740.3,148.6,736.9z"/>
</g>
<g id="Layer_1">
</g>
</svg>
