<svg width="100%" height="80%" viewBox="0 0 358 298" version="1.1" xmlns="http://www.w3.org/2000/svg" xmlns:xlink="http://www.w3.org/1999/xlink">
    <!-- Generator: Sketch 53.1 (72631) - https://sketchapp.com -->
    <title>process3</title>
    <desc>Created with Sketch.</desc>
    <g id="Page-1" stroke="none" stroke-width="1" fill="none" fill-rule="evenodd">
        <g id="process3">
            <g id="Group">
                <g id="bacgkoround" fill="#F1E1E1" fill-rule="nonzero">
                    <circle id="Oval" cx="177.6" cy="152.1" r="134.8"></circle>
                    <path d="M177,44.4 L90.9,44.4 C83.6,44.4 77.7,38.5 77.7,31.2 L77.7,31.2 C77.7,23.9 83.6,18 90.9,18 L177,18 C184.3,18 190.2,23.9 190.2,31.2 L190.2,31.2 C190.2,38.5 184.3,44.4 177,44.4 Z" id="topleft"></path>
                    <g id="leftbottom" transform="translate(30.000000, 213.000000)">
                        <path d="M17.6,0 L72.9,0 C78.6,0 83.2,4.6 83.2,10.3 L83.2,10.3 C83.2,16 78.6,20.6 72.9,20.6 L17.6,20.6 C11.9,20.6 7.3,16 7.3,10.3 L7.3,10.3 C7.3,4.6 11.9,0 17.6,0 Z" id="top"></path>
                        <path d="M6.7,38.5 L88.7,38.5 C92.4,38.5 95.4,41.5 95.4,45.2 L95.4,45.2 C95.4,48.9 92.4,51.9 88.7,51.9 L6.7,51.9 C3,51.9 0,48.9 0,45.2 L0,45.2 C0,41.5 3,38.5 6.7,38.5 Z" id="bottom"></path>
                        <path d="M29.4,20.5 L68,20.5 C65.2,20.5 62.6,21.7 60.7,23.6 C58.8,25.5 57.7,27.7 57.7,30.5 C57.7,36.2 62.3,40.5 68,40.5 L29.4,40.5 C32.2,40.5 34.8,39.7 36.7,37.9 C38.6,36 39.7,33.6 39.7,30.7 C39.7,25 35.1,20.5 29.4,20.5 Z" id="Path"></path>
                    </g>
                    <path d="M236.9,284.2 L250.2,284.2 C253.7,284.2 256.5,287 256.5,290.5 L256.5,291.3 C256.5,294.8 253.7,297.6 250.2,297.6 L236.9,297.6 C233.4,297.6 230.6,294.8 230.6,291.3 L230.6,290.5 C230.6,287 233.4,284.2 236.9,284.2 Z" id="bottom"></path>
                    <path d="M168.5,244.6 L292,244.6 C298.1,244.6 303,249.5 303,255.6 L303,255.6 C303,261.7 298.1,266.6 292,266.6 L168.5,266.6 C162.4,266.6 157.5,261.7 157.5,255.6 L157.5,255.6 C157.6,249.5 162.5,244.6 168.5,244.6 Z" id="rightbottom"></path>
                    <g id="rightcenter" transform="translate(184.800000, 132.600000)">
                        <path d="M54.4,0 L153.8,0 C164,0 172.4,8.3 172.4,18.6 L172.4,18.6 C172.4,28.8 164.1,37.2 153.8,37.2 L54.4,37.2 C44.2,37.2 35.8,28.9 35.8,18.6 L35.8,18.6 C35.9,8.4 44.2,0 54.4,0 Z" id="top"></path>
                        <path d="M12,73.2 L159.3,73.2 C165.9,73.2 171.3,78.6 171.3,85.2 L171.3,85.2 C171.3,91.8 165.9,97.2 159.3,97.2 L12,97.2 C5.4,97.2 2.84217094e-14,91.8 2.84217094e-14,85.2 L2.84217094e-14,85.2 C2.84217094e-14,78.6 5.4,73.2 12,73.2 Z" id="bottom"></path>
                        <path d="M76.8,37.3 L146.1,37.3 C141,37.3 136.3,39.3 133,42.7 C129.6,46.1 127.6,50 127.6,55.2 C127.6,65.4 135.9,73.1 146.2,73.1 L76.9,73.1 C82,73.1 86.7,71.7 90,68.3 C93.4,64.9 95.4,60.7 95.4,55.6 C95.3,45.2 87,37.3 76.8,37.3 Z" id="Path"></path>
                    </g>
                    <path d="M149.1,116.5 L32.7,116.5 C21.8,116.5 13,107.7 13,96.8 L13,96.8 C13,85.9 21.8,77.1 32.7,77.1 L149.2,77.1 C160.1,77.1 168.9,85.9 168.9,96.8 L168.9,96.8 C168.8,107.7 160,116.5 149.1,116.5 Z" id="lefttopcenter"></path>
                    <path d="M196.9,198 L28.5,198 C12.8,198 0,185.3 0,169.5 L0,169.5 C0,153.8 12.7,141 28.5,141 L196.8,141 C212.5,141 225.3,153.7 225.3,169.5 L225.3,169.5 C225.3,185.2 212.6,198 196.9,198 Z" id="leftcenter"></path>
                    <path d="M292.9,71.6 L200,71.6 C191.3,71.6 184.3,64.6 184.3,55.9 L184.3,55.9 C184.3,47.2 191.3,40.2 200,40.2 L292.9,40.2 C301.6,40.2 308.6,47.2 308.6,55.9 L308.6,55.9 C308.6,64.6 301.6,71.6 292.9,71.6 Z" id="topright"></path>
                    <path d="M264.3,17.2 L242.2,17.2 C237.5,17.2 233.6,13.4 233.6,8.6 L233.6,8.6 C233.6,3.9 237.4,0 242.2,0 L264.3,0 C269,0 272.9,3.8 272.9,8.6 L272.9,8.6 C272.9,13.4 269,17.2 264.3,17.2 Z" id="topalone"></path>
                </g>
                <path d="M216.9,68.6 C215,68.6 213.1,67.9 211.6,66.6 C209.4,64.6 205.8,64.6 203.6,66.6 C203.2,66.9 202.6,66.9 202.3,66.6 C201.9,66.2 202,65.6 202.3,65.3 C205.2,62.6 209.9,62.6 212.8,65.3 C215,67.3 218.6,67.3 220.8,65.3 C223.7,62.6 228.4,62.6 231.3,65.3 C233.5,67.3 237.1,67.3 239.3,65.3 C242.2,62.6 246.9,62.6 249.8,65.3 C250.2,65.7 250.2,66.2 249.8,66.6 C249.4,67 248.9,67 248.5,66.6 C246.3,64.6 242.7,64.6 240.5,66.6 C237.6,69.3 232.9,69.3 230,66.6 C227.8,64.6 224.2,64.6 222,66.6 C220.7,68 218.8,68.6 216.9,68.6 Z" id="Path" fill="#FFFFFF" fill-rule="nonzero"></path>
                <path d="M224.1,150.3 C222.8,150.3 221.5,149.8 220.6,148.9 C219.1,147.5 216.7,147.5 215.3,148.9 C215,149.1 214.7,149.1 214.4,148.9 C214.2,148.6 214.2,148.3 214.4,148 C216.3,146.2 219.5,146.2 221.4,148 C222.9,149.4 225.3,149.4 226.7,148 C228.6,146.2 231.8,146.2 233.7,148 C235.2,149.4 237.6,149.4 239,148 C240.9,146.2 244.1,146.2 246,148 C246.3,148.2 246.3,148.6 246,148.9 C245.8,149.2 245.4,149.2 245.1,148.9 C243.6,147.5 241.2,147.5 239.8,148.9 C237.9,150.7 234.7,150.7 232.8,148.9 C231.3,147.5 228.9,147.5 227.5,148.9 C226.6,149.9 225.4,150.3 224.1,150.3 Z" id="Path" fill="#FFFFFF" fill-rule="nonzero"></path>
                <g transform="translate(146.000000, 96.000000)" fill-rule="nonzero" id="Path">
                    <path d="M69.5,27.2 C69.5,12.6 57.7,0.8 43.1,0.8 L43.1,0.8 C28.5,0.8 16.7,12.6 16.7,27.2 L16.7,30.7 C16.7,45.3 28.5,57.1 43.1,57.1 L43.1,57.1 C57.7,57.1 69.5,45.3 69.5,30.7 L69.5,27.2 Z" fill="#FFFFFF"></path>
                    <path d="M87.3,127.7 L87.3,91.2 C87.3,73.3 74.7,61.6 56.8,61.6 L28.1,61.6 C10.2,61.6 0.8,73.3 0.8,91.2 L0.8,127.7 L87.3,127.7 Z" fill="#FF6161"></path>
                </g>
                <g transform="translate(151.000000, 41.000000)" fill-rule="nonzero" id="Path">
                    <path d="M76.2,48.6 L76.2,30.6 L68.5,30.6 C68.4,27.6 66.6,25 66.5,24.8 L73.8,17 L61.2,4.2 L53.5,11.3 C53.3,11.2 50.3,9.3 48.3,9.2 L48.3,0.6 L30.3,0.6 L30.3,9.2 C30.3,9.3 26.2,11.1 26,11.2 L19,3.9 L6.5,16.5 L13.8,24.8 C13.7,25 11.9,27.6 11.9,30.6 L0.3,30.6 L0.3,48.6 L11.9,48.6 C12,48.6 13.8,52.1 13.9,52.3 L6.6,59 L21.2,58.9 C15.9,54 12.6,47 12.3,39.3 C11.7,25 24.9,12.8 38.8,12.8 C53.7,12.8 64.7,24.9 65.3,39.3 C65.6,46.8 62.1,53.8 56.7,58.7 L73.7,58.6 L66.5,52.4 C66.6,52.2 68.5,48.6 68.6,48.6 L76.2,48.6 L76.2,48.6 Z" fill="#FF6161"></path>
                    <path d="M62,39.1 C62,26.3 51.7,15.8 38.9,15.8 C26.1,15.8 15.9,26.2 15.9,39.1 C15.9,49.1 22.3,57.6 31.3,60.9 L31.3,68.7 L47.3,68.7 L47.3,60.7 C56.2,57.2 62,48.9 62,39.1 Z" fill="#F7B75D"></path>
                    <path d="M35.6,67.7 L35.6,67.7 C34.7,67.7 34,67 34,66.2 L34,50.7 C34,49.9 34.7,49.2 35.5,49.2 L35.5,49.2 C36.3,49.2 37,49.9 37,50.7 L37,66.1 C37.1,67 36.4,67.7 35.6,67.7 Z" fill="#B24F57"></path>
                    <path d="M43.3,67.7 L43.3,67.7 C42.4,67.7 41.7,67 41.7,66.2 L41.7,50.7 C41.7,49.9 42.4,49.2 43.2,49.2 L43.2,49.2 C44,49.2 44.7,49.9 44.7,50.7 L44.7,66.1 C44.8,67 44.1,67.7 43.3,67.7 Z" fill="#B24F57"></path>
                    <polygon fill="#E5E9FF" points="46.3 76.6 31.5 76.6 29.3 65.6 48.5 65.6"></polygon>
                </g>
                <g transform="translate(96.000000, 141.000000)" fill-rule="nonzero">
                    <g transform="translate(6.000000, 0.000000)" fill="#B24F57" id="Path">
                        <path d="M31,0.9 C33.3,0.9 35.1,2.8 35.1,5.2 C35.1,5.4 35.1,5.6 35.1,5.8 C35.9,4.8 37,4.2 38.3,4.2 C40.6,4.2 42.4,6.1 42.4,8.5 C42.4,9.3 42.2,10 41.8,10.7 C42.4,10.4 43,10.2 43.7,10.2 C46,10.2 47.8,12.1 47.8,14.5 C47.8,15.9 47.2,17.1 46.2,17.9 C46.4,17.9 46.6,17.8 46.9,17.8 C49.2,17.8 51,19.7 51,22.1 C51,23.8 50.1,25.3 48.7,26 C50.1,26.7 51,28.2 51,29.9 C51,32.3 49.2,34.2 46.9,34.2 C46.8,34.2 46.6,34.2 46.5,34.2 C47.3,35 47.8,36.1 47.8,37.4 C47.8,39.8 46,41.7 43.7,41.7 C43,41.7 42.4,41.5 41.9,41.2 C42.2,41.8 42.4,42.5 42.4,43.2 C42.4,45.6 40.6,47.5 38.3,47.5 C37,47.5 35.9,46.9 35.2,46 C35.1,48.3 33.3,50.1 31.1,50.1 C29,50.1 27.2,48.4 27,46.3 L27,46.3 L27,5.3 C26.9,2.8 28.8,0.9 31,0.9 Z"></path>
                        <path d="M20.6,0.9 C18.3,0.9 16.5,2.8 16.5,5.2 C16.5,5.4 16.5,5.6 16.5,5.8 C15.7,4.8 14.6,4.2 13.3,4.2 C11,4.2 9.2,6.1 9.2,8.5 C9.2,9.3 9.4,10 9.8,10.7 C9.2,10.4 8.6,10.2 7.9,10.2 C5.6,10.2 3.8,12.1 3.8,14.5 C3.8,15.9 4.4,17.1 5.4,17.9 C5.2,17.9 5,17.8 4.7,17.8 C2.4,17.8 0.6,19.7 0.6,22.1 C0.6,23.8 1.5,25.3 2.9,26 C1.5,26.7 0.6,28.2 0.6,29.9 C0.6,32.3 2.4,34.2 4.7,34.2 C4.8,34.2 5,34.2 5.1,34.2 C4.3,35 3.8,36.1 3.8,37.4 C3.8,39.8 5.6,41.7 7.9,41.7 C8.6,41.7 9.2,41.5 9.7,41.2 C9.4,41.8 9.2,42.5 9.2,43.2 C9.2,45.6 11,47.5 13.3,47.5 C14.6,47.5 15.7,46.9 16.4,46 C16.5,48.3 18.3,50.1 20.5,50.1 C22.6,50.1 24.4,48.4 24.6,46.3 L24.6,46.3 L24.6,5.3 C24.7,2.8 22.9,0.9 20.6,0.9 Z"></path>
                    </g>
                    <path d="M3.3,24.7 C1.7,28.5 0.8,32.6 0.8,37 C0.8,50.4 9.4,61.9 21.3,66.2 L21.3,71.7 L42.5,71.7 L42.5,66.3 C54.4,62 63.1,50.5 63.1,37 C63.1,32.6 62.2,28.5 60.6,24.7 L3.3,24.7 L3.3,24.7 Z" id="Path" fill="#FFFFFF"></path>
                    <path d="M18.7,24.7 C15.7,27.9 13.9,32.2 13.9,37 C13.9,44.5 18.7,51.3 25.7,53.9 L31.4,62 L32.3,62 L38,53.9 C45.1,51.3 49.9,44.5 49.9,37 C49.9,32.3 48.1,28 45,24.7 L18.7,24.7 Z" id="Path" fill="#F7B75D"></path>
                    <rect id="Rectangle" fill="#B24F57" x="21.3" y="71.5" width="21" height="11"></rect>
                </g>
                <g transform="translate(231.000000, 160.000000)">
                    <g id="XMLID_668_" fill="#FFFFFF" fill-rule="nonzero">
                        <g id="XMLID_669_">
                            <path d="M39.6,32.7 C41.9,29.1 43.1,25.5 43.1,21.5 C43.1,9.7 33.5,0.1 21.7,0.1 C9.9,0.1 0.3,9.7 0.3,21.5 C0.3,25.5 1.4,29.2 3.3,32.4 L3.2,32.4 C12,46 11.1,52.3 11.1,52.3 L21.7,52.3 L32.3,52.3 C32.3,52.3 32.4,43.8 39.6,32.7 Z" id="Path"></path>
                        </g>
                    </g>
                    <circle id="Oval" fill="#F7B75D" cx="21.7" cy="21.7" r="13.3"></circle>
                    <g id="XMLID_665_" transform="translate(16.000000, 31.000000)">
                        <polygon id="Path" fill="#B24F57" points="10.8 21.3 10.8 8.3 0.6 8.4 0.7 21.3"></polygon>
                        <polygon id="Path" fill="#A5ACC4" points="7.5 21.3 7.5 8.4 3.9 8.4 3.9 21.3"></polygon>
                        <g id="XMLID_666_" fill="#FFFFFF">
                            <g id="XMLID_2047_">
                                <path d="M5.7,0.2 C5.7,0.2 0.7,8.2 0.7,8.4 L0.7,8.4 L0.7,8.4 L0.7,8.4 C0.7,8.9 1.5,9.3 2.4,9.3 C3.3,9.3 4,9 4.1,8.5 C4.2,8.9 4.9,9.3 5.8,9.3 C6.7,9.3 7.4,9 7.5,8.5 C7.6,8.9 8.3,9.3 9.2,9.3 C10.1,9.3 10.9,8.9 10.9,8.4 C10.8,8.2 5.7,0.2 5.7,0.2 Z" id="Path"></path>
                            </g>
                        </g>
                        <g id="XMLID_109_" transform="translate(4.000000, 0.000000)" fill="#B24F57">
                            <g id="XMLID_114_">
                                <path d="M3.2,2.6 C2.3,1.2 1.7,0.2 1.7,0.2 C1.7,0.2 1,1.3 0.2,2.6 L3.2,2.6 Z" id="Path"></path>
                            </g>
                        </g>
                    </g>
                    <polygon id="Path" fill="#FF6161" fill-rule="nonzero" points="11.1 50.3 11.1 56.7 15 63.7 28.5 63.7 32.4 56.7 32.4 50.3"></polygon>
                </g>
                <g transform="translate(245.000000, 84.000000)" fill-rule="nonzero" id="Path">
                    <g transform="translate(4.000000, 8.000000)">
                        <path d="M22.6,13.4 L6.4,2.8 C6.1,2.6 5.8,2.6 5.5,2.7 C5.2,2.8 5,3.1 4.9,3.4 L3.7,8.5 L0.6,9.4 L2,13 L2.7,12.8 L1.3,16.1 L5.7,17.3 L22.6,13.4 Z" fill="#B24F57"></path>
                        <path d="M22.8,13.3 C22.8,13.2 22.8,13.1 22.7,13.1 L5.3,1.1 C5,0.9 4.7,0.9 4.4,1 C4.1,1.1 3.9,1.4 3.8,1.7 L0.6,15 C0.5,15.3 0.6,15.6 0.8,15.8 C1,16 1.3,16.1 1.6,16.1 L22.6,13.4 C22.7,13.4 22.7,13.4 22.8,13.3 Z" fill="#FFFFFF"></path>
                        <path d="M17.3,12.1 L1.6,11.1 L0.6,9.5 L2.6,6.8 L17.3,12 C17.4,12 17.4,12.1 17.4,12.1 C17.4,12 17.3,12.1 17.3,12.1 Z" fill="#B24F57"></path>
                    </g>
                    <path d="M1,15.7 C1,15.7 0.8,15 0.6,14.2 C0.4,13.5 0.3,12.7 0.3,12.7 C0.3,12.4 0.4,12.2 0.7,12.2 C1,12.2 1.2,12.3 1.2,12.6 C1.2,12.6 1.3,13.3 1.5,14 C1.7,14.7 1.9,15.4 1.9,15.4 C2,15.6 1.9,15.9 1.6,16 C1.3,16.1 1.1,16 1,15.7 L1,15.7 L1,15.7 Z" fill="#B24F57"></path>
                    <path d="M0.4,7.6 C0.4,7.6 0.5,7.4 0.5,7.2 C0.6,6.9 0.7,6.6 0.9,6.2 C1.1,5.8 1.2,5.5 1.4,5.2 C1.6,4.9 1.7,4.8 1.7,4.8 C1.8,4.6 2.1,4.5 2.3,4.7 C2.5,4.8 2.6,5.1 2.4,5.3 L2.4,5.3 C2.4,5.3 2.3,5.5 2.2,5.7 C2,5.9 1.9,6.2 1.7,6.6 C1.6,6.9 1.4,7.2 1.4,7.5 C1.3,7.8 1.3,7.9 1.3,7.9 C1.2,8.1 1,8.3 0.7,8.2 C0.5,8 0.3,7.8 0.4,7.6 L0.4,7.6 Z" fill="#B24F57"></path>
                    <path d="M5.8,1.5 C5.8,1.5 6,1.4 6.2,1.3 C6.4,1.2 6.8,1.1 7.2,1 C7.9,0.8 8.7,0.7 8.7,0.7 C8.9,0.7 9.1,0.8 9.2,1 C9.2,1.2 9.1,1.4 8.9,1.5 C8.9,1.5 8.2,1.6 7.5,1.8 C7.2,1.9 6.8,2 6.6,2.1 C6.3,2.2 6.2,2.3 6.2,2.3 C6,2.4 5.7,2.3 5.6,2.1 C5.4,1.8 5.5,1.6 5.8,1.5 L5.8,1.5 Z" fill="#B24F57"></path>
                    <path d="M13.8,0.4 C13.8,0.4 14.5,0.5 15.3,0.5 C16.1,0.6 16.8,0.7 16.8,0.7 C17,0.7 17.2,0.9 17.1,1.2 C17.1,1.4 16.9,1.6 16.7,1.5 L16.7,1.5 C16.7,1.5 16,1.4 15.2,1.3 C14.5,1.2 13.7,1.2 13.7,1.2 C13.5,1.2 13.3,1 13.3,0.8 C13.4,0.6 13.6,0.4 13.8,0.4 L13.8,0.4 Z" fill="#B24F57"></path>
                    <path d="M21.8,1.9 C21.8,1.9 22.5,2.1 23.2,2.4 C23.9,2.7 24.6,2.9 24.6,2.9 C24.8,3 24.9,3.2 24.8,3.4 C24.7,3.6 24.5,3.7 24.3,3.6 L24.3,3.6 C24.3,3.6 23.6,3.4 22.9,3.1 C22.2,2.9 21.5,2.7 21.5,2.7 C21.3,2.6 21.2,2.4 21.2,2.2 C21.3,1.9 21.6,1.8 21.8,1.9 L21.8,1.9 Z" fill="#B24F57"></path>
                    <path d="M29.2,4.9 C29.2,4.9 29.9,5.2 30.5,5.6 C31.2,6 31.8,6.4 31.8,6.4 C32,6.5 32,6.7 31.9,6.9 C31.8,7.1 31.6,7.1 31.4,7 L31.4,7 C31.4,7 30.8,6.6 30.1,6.3 C29.4,6 28.8,5.6 28.8,5.6 C28.6,5.5 28.6,5.3 28.6,5.1 C28.8,4.8 29.1,4.8 29.2,4.9 L29.2,4.9 Z" fill="#B24F57"></path>
                    <path d="M36,9.2 C36,9.2 36.6,9.7 37.1,10.2 C37.7,10.7 38.2,11.2 38.2,11.2 C38.3,11.3 38.3,11.5 38.2,11.7 C38.1,11.8 37.9,11.8 37.7,11.7 L37.7,11.7 C37.7,11.7 37.2,11.2 36.6,10.7 C36,10.2 35.5,9.7 35.5,9.7 C35.4,9.6 35.3,9.4 35.5,9.2 C35.7,9.1 35.9,9.1 36,9.2 L36,9.2 Z" fill="#B24F57"></path>
                    <path d="M41.5,15.2 C41.5,15.2 41.9,15.8 42.2,16.5 C42.5,17.2 42.8,17.9 42.8,17.9 C42.9,18.1 42.8,18.2 42.6,18.3 C42.4,18.4 42.3,18.3 42.2,18.1 C42.2,18.1 41.9,17.4 41.6,16.8 C41.3,16.2 40.9,15.5 40.9,15.5 C40.8,15.4 40.9,15.2 41,15.1 C41.2,15 41.4,15 41.5,15.2 L41.5,15.2 L41.5,15.2 Z" fill="#B24F57"></path>
                    <path d="M43.8,22.9 C43.8,22.9 43.8,23.1 43.8,23.4 C43.8,23.7 43.8,24.1 43.7,24.5 C43.7,24.6 43.7,24.7 43.7,24.8 C43.7,24.9 43.7,25 43.7,25.1 C43.7,25.3 43.6,25.4 43.6,25.6 C43.6,25.9 43.5,26.1 43.5,26.1 C43.5,26.3 43.3,26.4 43.2,26.3 C43,26.3 42.9,26.1 43,26 C43,26 43,25.8 43.1,25.5 C43.1,25.4 43.1,25.2 43.2,25 C43.2,24.9 43.2,24.8 43.2,24.7 C43.2,24.6 43.2,24.5 43.2,24.4 C43.2,24 43.3,23.7 43.3,23.4 C43.3,23.1 43.3,22.9 43.3,22.9 C43.3,22.7 43.4,22.6 43.6,22.6 C43.7,22.6 43.8,22.8 43.8,22.9 L43.8,22.9 Z" fill="#B24F57"></path>
                    <path d="M41.4,30.6 C41.4,30.6 41.3,30.7 41.1,31 C40.9,31.2 40.6,31.5 40.3,31.7 C40.1,31.8 40,31.9 39.8,32 C39.7,32.1 39.5,32.2 39.4,32.3 C39.1,32.4 39,32.5 39,32.5 C38.9,32.6 38.7,32.5 38.6,32.4 C38.5,32.3 38.6,32.1 38.7,32 L38.7,32 C38.7,32 38.9,31.9 39.1,31.8 C39.2,31.7 39.4,31.7 39.5,31.6 C39.6,31.5 39.8,31.4 39.9,31.3 C40.2,31.1 40.4,30.8 40.6,30.6 C40.8,30.4 40.9,30.2 40.9,30.2 C41,30.1 41.2,30.1 41.3,30.2 C41.5,30.3 41.5,30.5 41.4,30.6 L41.4,30.6 Z" fill="#B24F57"></path>
                    <path d="M33.9,32.5 C33.9,32.5 33.7,32.4 33.5,32.3 C33.2,32.2 32.9,32 32.6,31.8 C32.3,31.6 32,31.3 31.8,31.1 C31.6,30.9 31.4,30.8 31.4,30.8 C31.3,30.7 31.3,30.6 31.4,30.5 C31.5,30.4 31.6,30.4 31.7,30.5 L31.7,30.5 C31.7,30.5 31.8,30.6 32,30.8 C32.2,31 32.5,31.2 32.8,31.4 C33.1,31.6 33.4,31.8 33.7,31.9 C34,32 34.1,32.1 34.1,32.1 C34.2,32.2 34.3,32.3 34.2,32.4 C34.2,32.5 34,32.5 33.9,32.5 L33.9,32.5 Z" fill="#B24F57"></path>
                    <path d="M28.9,26.3 C28.9,26.3 28.9,26.1 28.8,25.8 C28.7,25.5 28.7,25.1 28.7,24.7 C28.7,24.3 28.7,23.9 28.7,23.6 C28.7,23.3 28.8,23.1 28.8,23.1 C28.8,23 28.9,22.9 29,22.9 C29.1,22.9 29.2,23 29.2,23.1 L29.2,23.1 C29.2,23.1 29.2,23.3 29.2,23.6 C29.2,23.9 29.2,24.2 29.2,24.6 C29.2,25 29.2,25.3 29.3,25.6 C29.3,25.9 29.4,26.1 29.4,26.1 C29.4,26.2 29.3,26.3 29.2,26.4 C29,26.5 28.9,26.5 28.9,26.3 L28.9,26.3 Z" fill="#B24F57"></path>
                    <path d="M31.4,18.9 C31.4,18.9 31.5,18.8 31.8,18.6 C32.1,18.4 32.4,18.3 32.8,18.1 C33.5,17.8 34.3,17.8 34.3,17.8 C34.4,17.8 34.5,17.9 34.5,18 C34.5,18.1 34.4,18.2 34.3,18.2 C34.3,18.2 33.6,18.2 32.9,18.5 C32.6,18.6 32.2,18.8 32,18.9 C31.8,19 31.6,19.2 31.6,19.2 C31.5,19.3 31.4,19.2 31.3,19.2 C31.2,19.1 31.2,19 31.4,18.9 L31.4,18.9 L31.4,18.9 Z" fill="#B24F57"></path>
                    <path d="M39,19.7 C39,19.7 39.1,19.8 39.4,20 C39.5,20 39.5,20.1 39.6,20.1 C39.7,20.2 39.7,20.2 39.8,20.3 C39.9,20.4 40.1,20.5 40.2,20.7 C40.5,20.9 40.7,21.2 40.9,21.4 C41.1,21.6 41.2,21.7 41.2,21.7 C41.3,21.8 41.3,21.9 41.2,22 C41.1,22.1 41,22.1 40.9,22 L40.9,22 C40.9,22 40.8,21.9 40.6,21.7 C40.4,21.5 40.2,21.2 39.9,21 C39.8,20.9 39.6,20.7 39.5,20.6 C39.4,20.5 39.4,20.5 39.3,20.4 C39.2,20.4 39.2,20.3 39.1,20.3 C38.9,20.1 38.7,20 38.7,20 C38.6,19.9 38.6,19.8 38.7,19.7 C38.8,19.6 38.9,19.6 39,19.7 L39,19.7 Z" fill="#B24F57"></path>
                    <path d="M44.1,25.8 C44.1,25.8 44.4,26.5 44.7,27.2 C45,27.9 45.2,28.6 45.2,28.6 C45.2,28.7 45.2,28.8 45.1,28.8 C45,28.8 44.9,28.8 44.9,28.7 L44.9,28.7 C44.9,28.7 44.6,28 44.4,27.3 C44.1,26.6 43.8,25.9 43.8,25.9 C43.8,25.8 43.8,25.7 43.9,25.7 C44,25.7 44.1,25.8 44.1,25.8 L44.1,25.8 Z" fill="#B24F57"></path>
                    <path d="M46.1,33.6 C46.1,33.6 46.1,34.3 46,35.1 C45.9,35.9 45.8,36.6 45.8,36.6 C45.8,36.7 45.7,36.7 45.6,36.7 C45.5,36.7 45.5,36.6 45.5,36.5 C45.5,36.5 45.6,35.8 45.7,35 C45.8,34.3 45.7,33.5 45.7,33.5 C45.7,33.4 45.8,33.4 45.8,33.4 C46,33.4 46.1,33.5 46.1,33.6 L46.1,33.6 L46.1,33.6 Z" fill="#B24F57"></path>
                    <path d="M43.8,41.2 C43.8,41.2 43.3,41.8 42.8,42.3 C42.5,42.5 42.2,42.8 42,42.9 C41.8,43.1 41.6,43.2 41.6,43.2 C41.5,43.2 41.5,43.2 41.4,43.2 C41.4,43.1 41.4,43.1 41.4,43 L41.4,43 C41.4,43 41.6,42.9 41.8,42.7 C42,42.6 42.3,42.3 42.6,42.1 C42.9,41.8 43.1,41.6 43.3,41.4 C43.5,41.2 43.6,41 43.6,41 C43.6,40.9 43.7,40.9 43.8,41 C43.8,41.1 43.8,41.1 43.8,41.2 Z" fill="#B24F57"></path>
                    <path d="M36.7,44.5 C36.7,44.5 36,44.5 35.2,44.4 C34.4,44.3 33.7,44.2 33.7,44.2 C33.7,44.2 33.6,44.1 33.6,44.1 C33.6,44.1 33.7,44 33.7,44 C33.7,44 34.4,44.2 35.2,44.2 C35.9,44.3 36.7,44.3 36.7,44.3 C36.8,44.3 36.8,44.3 36.8,44.4 C36.8,44.5 36.8,44.5 36.7,44.5 L36.7,44.5 Z" fill="#B24F57"></path>
                    <path d="M29,42.5 C29,42.5 28.3,42.2 27.7,41.8 C27.1,41.4 26.4,41 26.4,41 C26.4,41 26.4,40.9 26.4,40.9 C26.4,40.9 26.5,40.9 26.5,40.9 C26.5,40.9 27.1,41.3 27.8,41.7 C28.5,42 29.1,42.4 29.1,42.4 C29.1,42.4 29.2,42.5 29.1,42.5 C29.1,42.5 29.1,42.6 29,42.5 L29,42.5 Z" fill="#B24F57"></path>
                    <path d="M22.3,38.2 C22.3,38.2 21.7,37.7 21.1,37.2 C20.5,36.7 20,36.2 20,36.2 C20,36.2 20,36.2 20,36.1 C20,36.1 20,36.1 20.1,36.1 C20.1,36.1 20.7,36.6 21.2,37.1 C21.8,37.6 22.4,38.1 22.3,38.2 C22.4,38.1 22.4,38.2 22.3,38.2 C22.4,38.2 22.3,38.2 22.3,38.2 L22.3,38.2 Z" fill="#B24F57"></path>
                    <path d="M16.4,32.8 L14.3,30.7 C14.3,30.7 14.3,30.7 14.3,30.7 C14.3,30.7 14.3,30.7 14.3,30.7 L16.4,32.8 C16.5,32.7 16.5,32.7 16.4,32.8 C16.5,32.8 16.5,32.8 16.4,32.8 L16.4,32.8 Z" fill="#B24F57"></path>
                    <path d="M10.8,27.1 L8.7,25 C8.7,25 8.7,25 8.7,25 C8.7,25 8.7,25 8.7,25 L10.8,27.1 C10.9,27 10.9,27.1 10.8,27.1 C10.8,27.1 10.8,27.1 10.8,27.1 L10.8,27.1 Z" fill="#B24F57"></path>
                </g>
                <g transform="translate(232.000000, 110.000000)" fill-rule="nonzero">
                    <path d="M7.2,48.5 C7.4,48 11.6,36.7 11.6,29.8 L9,29.8 C9,36.2 4.8,47.5 4.8,47.6 L7.2,48.5 Z" id="Path" fill="#F99AB6"></path>
                    <path d="M18.1,39.3 L22.3,32.3 C22.5,32 22.5,31.6 22.4,31.3 C22.3,31 22.1,30.7 21.8,30.5 L15.1,27 L13.9,29.2 L19.5,32.1 L16,38 L18.1,39.3 Z" id="Path" fill="#F99AB6"></path>
                    <path d="M6,4.6 C6,4.6 7.7,2.6 8.4,2 C9.8,0.8 10.9,2.1 10.9,2.1 C17.7,1.1 19,10.8 15.9,13.2 C13.4,15.2 11.3,13.8 11.3,13.8 C11.3,13.8 9.9,14.9 7.7,15.2 C6.4,15.4 4.7,14.5 4.7,14.5 C4.7,14.5 2.8,15.9 1.3,13.8 C-0.2,11.8 2,9.7 3.1,9.6 C3.1,9.6 1.7,7.9 3.6,6.9 C4.4,6.5 6,4.6 6,4.6 Z" id="Path" fill="#121F55"></path>
                    <path d="M14.4,16.6 C14.9,16.4 15.2,15.7 14.7,15 C14.2,14.4 13.3,14 12.4,14 L12.2,14 C11.4,14 10.7,14.3 10.2,14.9 C10.6,16.1 13.2,17.1 14.4,16.6 Z" id="Path" fill="#F99AB6"></path>
                    <path d="M13,12.3 L13,13.3 L13,15.2 L11.5,15.2 L11.5,12.8 L11.5,11.9 C12,12.1 12.5,12.3 13,12.3 Z" id="Path" fill="#F99AB6"></path>
                    <path d="M13,12.3 L13,13.3 C12.5,13.2 11.9,13 11.5,12.6 L11.5,11.8 C12,12.1 12.5,12.3 13,12.3 Z" id="Path" fill="#F99AB6"></path>
                    <path d="M13.8,12.3 L13.8,12.3 C12.6,12.9 11.2,12.9 10,12.3 C9.2,11.9 8.5,11.3 8.1,10.4 L7.4,8.9 C6.9,7.8 6.8,6.6 7.2,5.6 C7.6,4.6 8.3,3.8 9.3,3.3 L9.3,3.3 C10,3 10.7,2.8 11.4,2.9 C12.9,3 14.3,3.8 15,5.2 L15.7,6.7 C16.4,8.1 16.3,9.6 15.5,10.8 C15.1,11.4 14.6,11.9 13.8,12.3 Z" id="Path" fill="#F99AB6"></path>
                    <path d="M9.2,7.9 C12.2,8.4 12.6,5.1 12.4,3.8 C12,1 8.4,1.5 7.1,2.9 C6.3,3.8 4.9,6.1 5.5,9 C6.1,11.9 9.1,13.7 9.1,13.7 C12.4,11.3 9,9 9,9 L9.2,7.9 Z" id="Path" fill="#121F55"></path>
                    <circle id="Oval" fill="#F7B75D" transform="translate(11.794200, 27.701800) rotate(-12.827123) translate(-11.794200, -27.701800) " cx="11.7942" cy="27.7018" r="3.999818"></circle>
                    <path d="M13.5,10 C13.8,10.4 14.4,10.6 14.9,10.3 C15.4,10.1 15.6,9.5 15.5,9 L13.5,10 Z" id="Path" fill="#FFFEFF"></path>
                    <path d="M18.7,28.8 C13.4,33.4 6.8,35.6 6.8,35.6 C6.8,35.6 5.7,28.9 8.2,26 C9.4,24.5 15.9,26.7 15.9,26.7 L18.7,28.8 Z" id="Path" fill="#F7B75D"></path>
                    <path d="M16.5,17.3 C16.8,18.1 16,18.8 15.2,18.9 C14.4,19 13.7,18.4 13.6,17.6 C13.5,16.8 14.7,15 15.2,15.7 C15.6,16.4 16.3,16.7 16.5,17.3 Z" id="Path" fill="#F7B75D"></path>
                    <path d="M10.2,14.9 C9.9,15.3 9.6,15.8 9.6,16.4 C9.6,16.4 10,23 8.2,26 C7.4,27.3 15.9,27.3 15.9,27.3 L15.7,17.6 C15.7,16.6 15.4,15.7 14.7,15.1 C14.7,16.6 11.6,14.8 10.2,14.9 Z" id="Path" fill="#F7B75D"></path>
                    <path d="M11.5,17.3 C13,17.3 23.2,16.8 28.8,4.3 L26.5,3.3 C21.2,15 11.8,14.8 11.4,14.8 L11.3,17.3 C11.3,17.3 11.4,17.3 11.5,17.3 Z" id="Path" fill="#F7B75D"></path>
                    <path d="M26.6,1.3 C27.1,1 27.6,0.9 28.1,1 L29.8,3.8 C29.6,4.3 29.3,4.7 28.9,5 C27.9,5.6 26.6,5.3 25.9,4.3 C25.3,3.3 25.6,1.9 26.6,1.3 Z" id="Path" fill="#F99AB6"></path>
                    <g transform="translate(14.000000, 37.000000)" fill="#121F55">
                        <circle id="Oval" transform="translate(2.074170, 2.464490) rotate(-73.458811) translate(-2.074170, -2.464490) " cx="2.07417" cy="2.46449" r="1.59997444"></circle>
                        <path d="M7.6,5.8 L1.7,4 C1.1,3.8 0.7,3.2 0.9,2.5 L0.9,2.5 C1.1,1.9 2.3,0.7 2.9,0.9 L8.1,4.3 C8.7,4.7 8.5,5.6 7.9,5.7 C7.8,5.9 7.7,5.9 7.6,5.8 Z" id="Path"></path>
                    </g>
                    <g transform="translate(3.000000, 46.000000)" fill="#121F55">
                        <circle id="Oval" transform="translate(2.680710, 2.911470) rotate(-52.267224) translate(-2.680710, -2.911470) " cx="2.68071" cy="2.91147" r="1.60005345"></circle>
                        <path d="M6.6,8 L1.7,4.2 C1.2,3.8 1.1,3.1 1.5,2.5 L1.5,2.5 C1.9,2 3.4,1.4 4,1.8 L7.7,6.9 C8.1,7.5 7.6,8.3 7,8.1 C6.8,8.1 6.7,8.1 6.6,8 Z" id="Path"></path>
                    </g>
                    <path d="M13.2,26.5 C13.8,26.5 14.5,26.4 15.3,26.3 L15.2,26 C11.8,26.7 9.1,25.3 9.1,25.3 L8.9,25.6 C9,25.6 10.7,26.5 13.2,26.5 Z" id="Path" fill="#F7A93E"></path>
                </g>
                <path d="M281.3,198.9 C278.4,198.9 275.2,201.1 275.2,204.9 C275.2,210.6 281.3,216.6 281.3,216.6 C281.3,216.6 287.4,210.5 287.4,204.9 C287.4,201.2 284.1,198.9 281.3,198.9 Z M282.8,207.5 C282.4,207.7 281.9,207.9 281.3,207.9 C280.5,207.9 279.8,207.6 279.4,207.2 C277.7,205.6 278.3,202 281.3,202 C284.6,201.9 285.1,206.2 282.8,207.5 Z" id="Shape" fill="#FF6161"></path>
                <g transform="translate(160.000000, 125.000000)" fill-rule="nonzero">
                    <ellipse id="Oval" fill="#B24F57" transform="translate(17.298081, 6.398461) rotate(-89.790765) translate(-17.298081, -6.398461) " cx="17.2980815" cy="6.3984613" rx="3.70002467" ry="2.30001534"></ellipse>
                    <path d="M28.7,11.9 C27.2,11 25.5,8.9 26.2,6.9 C27.7,2.4 24.2,0.8 22.5,0.5 C20.8,0.2 19.3,0.6 18.3,1.4 C16.7,2.6 17.2,4.8 18.1,6.5 C17.2,7 16.7,8.2 17.2,9.1 C18.4,11 17.4,13.5 16.7,15.1 C15.6,17.5 17.1,20.6 19.9,21.9 C22.6,23.3 26.2,23.1 29,21.9 C30.4,21.3 31.6,20.4 32.2,19.2 C33.5,16.7 31.5,13.5 28.7,11.9 Z" id="Path" fill="#B24F57"></path>
                    <path d="M9.8,29 C9.1,29.1 8.5,29.2 7.7,29.2 C7.2,29.2 6.7,28.8 6.7,28.3 C6.7,27.8 7.1,27.3 7.6,27.3 C11,27.2 13.5,26.2 15.1,24.4 C17.5,21.6 17.1,17.6 17.1,17.6 C17,17.1 17.4,16.6 17.9,16.5 C18.4,16.4 18.9,16.8 19,17.3 C19,17.5 19.6,22.1 16.6,25.6 C15,27.4 12.7,28.6 9.8,29 Z" id="Path" fill="#F99AB6"></path>
                    <path d="M17.8,15.7 C16.9,15.8 16.3,16.7 16.4,17.5 C16.4,17.5 16.8,21.2 14.6,23.8 C13.5,25.1 11.9,25.9 9.9,26.3 C10.5,27.3 10.6,28.6 10.1,29.6 C13.1,29.1 15.4,27.9 17.1,26 C20.3,22.3 19.7,17.4 19.7,17.1 C19.5,16.3 18.7,15.6 17.8,15.7 Z" id="Path" fill="#8EDEF2"></path>
                    <path d="M18.1,17.3 C17.6,17.1 17.2,16.3 17.8,15.6 C18.4,14.9 19.3,14.6 20.2,14.5 L20.4,14.5 C21.2,14.5 22,14.8 22.5,15.4 C22.1,16.8 19.4,17.9 18.1,17.3 Z" id="Path" fill="#F99AB6"></path>
                    <path d="M19.7,12.7 L19.7,13.8 L19.7,15.8 L21.3,15.8 L21.3,13.2 L21.3,12.2 C20.8,12.5 20.2,12.7 19.7,12.7 Z" id="Path" fill="#F99AB6"></path>
                    <path d="M19.7,12.9 L19.7,14 C20.3,13.9 20.9,13.7 21.3,13.3 L21.3,12.5 C20.8,12.8 20.2,13 19.7,12.9 Z" id="Path" fill="#F99AB6"></path>
                    <path d="M20.1,13.5 L20.1,13.5 C21.6,13.5 22.9,12.8 23.7,11.7 C24.3,10.9 24.6,10 24.6,9 L24.6,7.2 C24.6,5.9 24,4.7 23.2,3.9 C22.4,3.1 21.3,2.7 20.1,2.7 L20.1,2.7 C19.3,2.7 18.6,2.9 17.9,3.3 C16.5,4.1 15.6,5.6 15.6,7.3 L15.6,9.1 C15.6,10.7 16.5,12.2 17.8,12.9 C18.4,13.3 19.2,13.5 20.1,13.5 Z" id="Path" fill="#F99AB6"></path>
                    <circle id="Oval" fill="#121F55" transform="translate(20.832900, 29.180700) rotate(-77.172877) translate(-20.832900, -29.180700) " cx="20.8329" cy="29.1807" r="4.29980435"></circle>
                    <path d="M19.8,11.1 C19.7,11.7 19.2,12.1 18.6,12.1 C18,12.1 17.5,11.7 17.4,11.1 L19.8,11.1 Z" id="Path" fill="#FFFEFF"></path>
                    <path d="M15.8,18.1 C15.5,18.9 16.3,19.7 17.2,19.8 C18.1,19.9 18.8,19.3 18.9,18.4 C19,17.5 17.7,15.7 17.2,16.4 C16.8,17.1 16,17.4 15.8,18.1 Z" id="Path" fill="#8EDEF2"></path>
                    <path d="M22.6,15.5 C23,15.9 23.2,16.5 23.2,17.1 C23.2,17.1 22.8,24.2 24.7,27.4 L16.5,28.1 L16.7,18.3 C16.7,17.3 17,16.3 17.7,15.6 C17.8,17.2 21,15.4 22.6,15.5 Z" id="Path" fill="#8EDEF2"></path>
                    <g transform="translate(13.000000, 47.000000)" id="Path">
                        <path d="M4,0 C3.2,0 2.9,0.7 2.8,1 C2.4,2.1 2.6,3.3 1.9,5.1 C1.4,6.4 0.9,6.6 0.6,7.7 C0.3,8.6 1.1,8.9 1.9,8.6 C2.2,8.5 4.2,8 4.3,6.4 C4.3,5.2 4.2,4.3 4.6,3.3 C5,2.3 5.3,2.9 5.4,3.2 C5.5,3.4 5.8,4 5.8,4.2 C5.8,4.3 5.9,4.3 6,4.3 L6,4.3 C6.1,4.3 6.1,4.2 6.1,4.1 C6,3.9 5.8,3.1 5.7,2.1 C5.6,0.8 4.7,0 4,0 Z" fill="#B24F57"></path>
                        <path d="M3.2,5.5 C3.6,4.6 4.1,1.7 3.9,1.1 C3.6,0.4 2.1,0.3 2,1 C1.8,2.2 2.3,4.2 1.4,6.3 C1.4,6.8 2.7,6.6 3.2,5.5 Z" fill="#F99AB6"></path>
                    </g>
                    <path d="M22.1,33.1 L12,37.8 L13,35.5 L16.7,47.7 C16.9,48.4 16.5,49.2 15.8,49.4 C15.1,49.6 14.3,49.2 14.1,48.6 L9.5,36.7 C9.2,35.8 9.6,34.9 10.4,34.5 L10.5,34.5 L20.6,29.7 C21.6,29.2 22.7,29.6 23.2,30.6 C23.5,31.5 23.1,32.6 22.1,33.1 C22.2,33.1 22.2,33.1 22.1,33.1 Z" id="Path" fill="#121F55"></path>
                    <g transform="translate(3.000000, 42.000000)" id="Path">
                        <path d="M7.2,1.2 C6.5,0.9 5.8,1.3 5.7,1.5 C4.9,2.3 4.4,3.4 2.9,4.7 C1.9,5.6 1.3,5.6 0.5,6.4 C-0.2,7.1 0.4,7.7 1.3,7.8 C1.6,7.8 3.7,8.3 4.4,6.9 C5,5.9 5.3,5 6.1,4.3 C6.9,3.6 6.9,4.2 6.9,4.6 C6.9,4.8 6.8,5.5 6.8,5.7 C6.8,5.8 6.9,5.8 6.9,5.9 L6.9,5.9 C7,5.9 7.1,5.8 7.1,5.8 C7.1,5.5 7.3,4.8 7.7,3.8 C8.2,2.6 7.8,1.5 7.2,1.2 Z" fill="#B24F57"></path>
                        <path d="M3.9,5.7 C4.7,5.1 6.5,2.8 6.6,2.1 C6.7,1.3 5.3,0.5 4.9,1.1 C4.2,2 3.7,4 1.9,5.5 C1.7,6 3,6.4 3.9,5.7 Z" fill="#F99AB6"></path>
                    </g>
                    <path d="M21.4,33.4 L10.3,32.8 L12.2,31.2 L9.8,43.7 C9.7,44.5 8.9,45 8.2,44.8 C7.5,44.7 7,44 7.1,43.3 L8.6,30.7 C8.7,29.8 9.5,29.1 10.4,29.1 L10.5,29.1 L21.7,29.5 C22.8,29.5 23.6,30.4 23.5,31.5 C23.4,32.6 22.5,33.5 21.4,33.4 C21.5,33.4 21.4,33.4 21.4,33.4 Z" id="Path" fill="#121F55"></path>
                    <path d="M22.2,29.2 C21.7,29.3 21.2,29.3 20.6,29.4 C20.1,29.4 19.6,29 19.6,28.5 C19.6,28 20,27.5 20.5,27.5 C22.3,27.4 24.5,26.9 25.1,25.5 C26,23.2 22.9,19.1 21.7,17.9 C21.3,17.5 21.4,16.9 21.8,16.5 C22.2,16.1 22.8,16.2 23.2,16.6 C23.7,17.2 28.4,22.5 26.9,26.2 C26.3,27.7 24.7,28.7 22.2,29.2 Z" id="Path" fill="#F99AB6"></path>
                    <path d="M23.7,16.1 C23.3,15.7 22.8,15.5 22.2,15.6 C21.8,15.7 21.5,15.9 21.2,16.1 C20.6,16.7 20.7,17.7 21.3,18.4 C22.6,19.9 25.2,23.5 24.5,25.2 C24.4,25.5 24.1,25.7 23.8,25.9 C23.2,26.3 22.9,26.9 23,27.6 C23,27.6 23,27.6 23,27.6 C23.2,28.7 24.4,29.3 25.4,28.7 C26.4,28.1 27.2,27.3 27.6,26.3 C29.2,22.3 24.6,17.1 23.7,16.1 Z" id="Path" fill="#8EDEF2"></path>
                    <path d="M16.6,28.2 C16.6,28.8 16.9,29.3 17.3,29.6 L20.8,29.3 C21.1,28.9 21.3,28.3 21.2,27.8 C21.1,26.5 20,25.6 18.7,25.7 C17.4,25.9 16.5,27 16.6,28.2 Z" id="Path" fill="#F99AB6"></path>
                    <path d="M4.7,28.7 C4.7,29.3 4.9,29.8 5.3,30.2 L8.8,30.1 C9.1,29.7 9.3,29.2 9.3,28.6 C9.3,27.3 8.2,26.3 6.9,26.4 C5.6,26.3 4.6,27.4 4.7,28.7 Z" id="Path" fill="#F99AB6"></path>
                    <ellipse id="Oval" fill="#B24F57" transform="translate(21.144980, 4.817140) rotate(-70.669934) translate(-21.144980, -4.817140) " cx="21.14498" cy="4.81714" rx="2.79991874" ry="4.39987231"></ellipse>
                    <g transform="translate(0.000000, 17.000000)" id="Path">
                        <path d="M22.9,12.6 C22.9,12.3 22.6,12 22.3,12 L1.4,12 C1,12 0.6,12.3 0.6,12.6 C0.6,12.9 1,13.2 1.4,13.2 L22.3,13.2 C22.6,13.1 22.9,12.9 22.9,12.6 L22.9,12.6 Z" fill="#121F55"></path>
                        <path d="M23.7,12.6 C23.7,12.9 23.4,13.2 23.1,13.2 L15.2,13.2 C14.9,13.2 14.6,12.9 14.6,12.6 C14.6,12.3 14.9,12 15.2,12 L23.1,12 C23.4,12 23.7,12.2 23.7,12.6 Z" fill="#FFFFFF"></path>
                        <path d="M0.7,1.2 L0.7,11.7 C0.7,12.2 1.1,12.5 1.5,12.5 L15.4,12.5 C15.9,12.5 16.2,12.1 16.2,11.7 L16.2,1.2 C16.2,0.7 15.8,0.4 15.4,0.4 L1.5,0.4 C1.1,0.3 0.7,0.7 0.7,1.2 Z" fill="#FFFFFF"></path>
                        <path d="M0,1.2 L0,11.7 C0,12.2 0.4,12.5 0.8,12.5 L14.7,12.5 C15.2,12.5 15.5,12.1 15.5,11.7 L15.5,1.2 C15.5,0.7 15.1,0.4 14.7,0.4 L0.8,0.4 C0.4,0.3 0,0.7 0,1.2 Z" fill="#B24F57"></path>
                        <path d="M10.1,6.5 L10.1,6.5 C10.1,6 9.7,5.6 9.2,5.6 L6.4,5.6 C5.9,5.6 5.5,6 5.5,6.5 L5.5,6.5 C5.5,7 5.9,7.4 6.4,7.4 L9.2,7.4 C9.7,7.3 10.1,6.9 10.1,6.5 Z" fill="#FFFFFF"></path>
                    </g>
                </g>
                <path d="M130,105.9 C128.7,105.9 127.4,105.4 126.5,104.5 C125,103.1 122.6,103.1 121.2,104.5 C120.9,104.7 120.6,104.7 120.3,104.5 C120.1,104.2 120.1,103.9 120.3,103.6 C122.2,101.8 125.4,101.8 127.3,103.6 C128.8,105 131.2,105 132.6,103.6 C134.5,101.8 137.7,101.8 139.6,103.6 C141.1,105 143.5,105 144.9,103.6 C146.8,101.8 150,101.8 151.9,103.6 C152.2,103.8 152.2,104.2 151.9,104.5 C151.7,104.8 151.3,104.8 151,104.5 C149.5,103.1 147.1,103.1 145.7,104.5 C143.8,106.3 140.6,106.3 138.7,104.5 C137.2,103.1 134.8,103.1 133.4,104.5 C132.5,105.4 131.3,105.9 130,105.9 Z" id="Path" fill="#FFFFFF" fill-rule="nonzero"></path>
                <path d="M85,191.2 C83.7,191.2 82.4,190.7 81.5,189.8 C80,188.4 77.6,188.4 76.2,189.8 C75.9,190 75.6,190 75.3,189.8 C75.1,189.5 75.1,189.2 75.3,188.9 C77.2,187.1 80.4,187.1 82.3,188.9 C83.8,190.3 86.2,190.3 87.6,188.9 C89.5,187.1 92.7,187.1 94.6,188.9 C96.1,190.3 98.5,190.3 99.9,188.9 C101.8,187.1 105,187.1 106.9,188.9 C107.2,189.1 107.2,189.5 106.9,189.8 C106.7,190.1 106.3,190.1 106,189.8 C104.5,188.4 102.1,188.4 100.7,189.8 C98.8,191.6 95.6,191.6 93.7,189.8 C92.2,188.4 89.8,188.4 88.4,189.8 C87.5,190.7 86.3,191.2 85,191.2 Z" id="Path" fill="#FFFFFF" fill-rule="nonzero"></path>
                <path d="M307.2,226.5 L47.9,226.5 C47.1,226.5 46.4,225.8 46.4,225 C46.4,224.2 47.1,223.5 47.9,223.5 L307.2,223.5 C308,223.5 308.7,224.2 308.7,225 C308.7,225.8 308.1,226.5 307.2,226.5 Z" id="Path" fill="#FF6161" fill-rule="nonzero"></path>
                <g transform="translate(70.000000, 235.000000)" fill="#FF6161" fill-rule="nonzero" id="Path">
                    <path d="M42.3,3.1 L2.3,3.1 C1.5,3.1 0.8,2.4 0.8,1.6 C0.8,0.8 1.5,0.1 2.3,0.1 L42.3,0.1 C43.1,0.1 43.8,0.8 43.8,1.6 C43.8,2.5 43.2,3.1 42.3,3.1 Z"></path>
                    <path d="M64.3,3.1 L54.3,3.1 C53.5,3.1 52.8,2.4 52.8,1.6 C52.8,0.8 53.5,0.1 54.3,0.1 L64.3,0.1 C65.1,0.1 65.8,0.8 65.8,1.6 C65.8,2.5 65.2,3.1 64.3,3.1 Z"></path>
                </g>
                <g transform="translate(73.000000, 196.000000)" fill-rule="nonzero">
                    <path d="M13.3,34.2 C12.8,34.2 12.3,34 12,33.5 L6.3,25.8 C5.9,25.2 5.9,24.4 6.4,23.8 L13.8,14.8 C14.4,14.1 15.4,14 16.1,14.6 C16.8,15.2 16.9,16.2 16.3,16.9 L9.7,24.9 L14.6,31.6 C15.1,32.3 15,33.3 14.2,33.9 C13.9,34.1 13.6,34.2 13.3,34.2 Z" id="Path" fill="#121F55"></path>
                    <path d="M24.1,34.1 C23.8,34.1 23.4,34 23.1,33.8 C22.4,33.3 22.2,32.2 22.7,31.5 L27.6,24.8 L21,16.8 C20.4,16.1 20.5,15.1 21.2,14.5 C21.9,13.9 22.9,14 23.5,14.7 L30.9,23.6 C31.4,24.2 31.4,25 31,25.6 L25.3,33.4 C25.1,33.9 24.6,34.1 24.1,34.1 Z" id="Path" fill="#121F55"></path>
                    <circle id="Oval" fill="#F7B75D" cx="18.9" cy="4.8" r="4.7"></circle>
                    <polygon id="Path" fill="#F99AB6" points="20.6 10.6 20.6 15.1 20.6 18 17.1 18 17.3 10.8 17.3 8.8"></polygon>
                    <path d="M13.7,17.6 C13.7,16.2 14.9,14.8 16.2,14.2 C18.1,13.2 21,13.9 21.9,14.5 C23.5,15.4 24.4,17.3 24.3,19.3 L24.4,29.7 L13.3,29.7 C13.3,29.7 13.7,20.8 13.7,17.6 Z" id="Path" fill="#121F55"></path>
                    <path d="M21.3,14.2 C19.9,13.6 18,13.4 16.5,14.1 L17.7,15.3 C18.4,16 19.6,16 20.3,15.3 C20.6,14.9 21,14.5 21.3,14.2 Z" id="Path" fill="#F99AB6"></path>
                    <path d="M19.7,2.1 L18,2.1 C16.4,2.1 14.9,3.4 15.1,5 C15.2,6.1 15.1,7 15.1,8.7 C15.1,10.1 16.8,12.9 18.2,12.9 L19.5,12.9 C20.9,12.9 22.6,10.1 22.6,8.7 C22.6,7 22.5,6.2 22.6,5 C22.8,3.4 21.3,2.1 19.7,2.1 Z" id="Path" fill="#F99AB6"></path>
                    <path d="M17.4,10.3 C17.5,11 18.1,11.5 18.8,11.5 C19.5,11.5 20.1,11 20.2,10.3 L17.4,10.3 Z" id="Path" fill="#FFFEFF"></path>
                    <path d="M20.6,39.7 L17,39.7 C14.4,39.7 12.5,37.4 13,34.8 L13.2,29.7 L24.3,29.7 L24.5,34.8 C25.1,37.3 23.2,39.7 20.6,39.7 Z" id="Path" fill="#566CD3"></path>
                    <path d="M2.6,33.9 L17.7,32.5 L18.1,37 L3,38.4 C1.8,38.5 0.7,37.6 0.5,36.4 L0.5,36.4 C0.5,35.1 1.4,34 2.6,33.9 Z" id="Path" fill="#B24F57"></path>
                    <path d="M32.9,33.9 L17.8,32.5 L17.4,37 L32.5,38.4 C33.7,38.5 34.8,37.6 35,36.4 L35,36.4 C35,35.1 34.1,34 32.9,33.9 Z" id="Path" fill="#B24F57"></path>
                    <path d="M25.1,37 L12.6,37 C12,37 11.4,36.5 11.4,35.8 L11.4,27.5 C11.4,26.9 11.9,26.3 12.6,26.3 L25.2,26.3 C25.8,26.3 26.4,26.8 26.4,27.5 L26.4,35.8 C26.3,36.5 25.8,37 25.1,37 Z" id="Path" fill="#FFFFFF"></path>
                    <path d="M25.1,37.5 L12.6,37.5 C12,37.5 11.4,37 11.4,36.3 L11.4,28 C11.4,27.4 11.9,26.8 12.6,26.8 L25.2,26.8 C25.8,26.8 26.4,27.3 26.4,28 L26.4,36.3 C26.3,36.9 25.8,37.5 25.1,37.5 Z" id="Path" fill="#E5E9FF"></path>
                    <path d="M20.6,33 L17.2,33 C16.7,33 16.3,32.6 16.3,32.1 L16.3,32.1 C16.3,31.6 16.7,31.2 17.2,31.2 L20.6,31.2 C21.1,31.2 21.5,31.6 21.5,32.1 L21.5,32.1 C21.5,32.6 21.1,33 20.6,33 Z" id="Path" fill="#FFFFFF"></path>
                    <g transform="translate(11.000000, 36.000000)">
                        <path d="M1.9,5.6 L6.3,5.3 L6.3,5.4 C6.3,5.7 6.5,5.9 6.7,5.9 C6.9,5.9 7.1,5.7 7.1,5.6 L7.1,5.3 L7.6,5.3 L7.6,5.4 C7.6,5.7 7.8,5.9 8,5.9 C8.2,5.9 8.4,5.7 8.4,5.6 L8.5,5.3 L11.3,5.1 C11.4,5.1 11.4,5 11.5,5 C11.6,5 11.7,4.9 11.8,4.9 C13.1,4.4 13.7,3 13.3,1.8 C12.8,0.5 11.4,-0.1 10.2,0.3 C10.2,0.3 10.2,0.3 10.2,0.3 C10.2,0.3 10.2,0.3 10.2,0.3 L1.4,3.5 C1.3,3.5 1.1,3.6 1,3.7 C0.2,4.4 0.8,5.7 1.9,5.6 Z" id="Path" fill="#FFFFFF"></path>
                        <g id="_x38_._Right_shoe_118_">
                            <circle id="Oval" fill="#F7B75D" transform="translate(10.920480, 3.206490) rotate(-19.882758) translate(-10.920480, -3.206490) " cx="10.92048" cy="3.20649" r="2.50002521"></circle>
                            <path d="M1.3,4 L10.1,0.8 C11,0.5 12,0.9 12.4,1.9 L12.4,1.9 C12.7,2.8 12.3,5.3 11.3,5.6 L1.9,6.2 C0.9,6.3 0.2,5 0.9,4.3 C1,4.2 1.2,4.1 1.3,4 Z" id="Path" fill="#F7B75D"></path>
                            <path d="M8.2,4.7 L8.2,4.7 C8.5,4.7 8.7,4.9 8.6,5.2 L8.4,6.1 C8.4,6.3 8.2,6.4 8,6.4 L8,6.4 C7.7,6.4 7.5,6.2 7.6,5.9 L7.8,5 C7.8,4.9 8,4.7 8.2,4.7 Z" id="Path" fill="#FFFFFF"></path>
                            <path d="M6.9,4.8 L6.9,4.8 C7.2,4.8 7.4,5 7.3,5.3 L7.1,6.2 C7.1,6.4 6.9,6.5 6.7,6.5 L6.7,6.5 C6.4,6.5 6.2,6.3 6.3,6 L6.5,5.1 C6.5,4.9 6.7,4.8 6.9,4.8 Z" id="Path" fill="#FFFFFF"></path>
                        </g>
                    </g>
                    <path d="M31.9,34.9 L21.7,37.7 C20.7,38 20.1,39 20.4,40 L20.4,40 C20.7,41 21.7,41.6 22.7,41.3 L32.9,38.5 C33.9,38.2 34.5,37.2 34.2,36.2 L34.2,36.2 C33.9,35.2 32.9,34.6 31.9,34.9 Z" id="Path" fill="#F99AB6"></path>
                    <g transform="translate(10.000000, 36.000000)">
                        <path d="M12.6,5.6 L8.2,5.3 L8.2,5.4 C8.2,5.7 8,5.9 7.8,5.9 C7.6,5.9 7.4,5.7 7.4,5.6 L7.4,5.3 L6.9,5.3 L6.9,5.4 C6.9,5.7 6.7,5.9 6.5,5.9 C6.3,5.9 6.1,5.7 6.1,5.6 L6,5.3 L3.2,5.1 C3.1,5.1 3.1,5 3,5 C2.9,5 2.8,4.9 2.7,4.9 C1.4,4.4 0.8,3 1.2,1.8 C1.7,0.5 3.1,-0.1 4.3,0.3 C4.3,0.3 4.3,0.3 4.3,0.3 C4.3,0.3 4.3,0.3 4.3,0.3 L13.1,3.5 C13.2,3.5 13.4,3.6 13.5,3.7 C14.3,4.4 13.6,5.7 12.6,5.6 Z" id="Path" fill="#FFFFFF"></path>
                        <g id="_x38_._Right_shoe_117_">
                            <circle id="Oval" fill="#F7B75D" transform="translate(3.551130, 3.228620) rotate(-70.117242) translate(-3.551130, -3.228620) " cx="3.55113" cy="3.22862" r="2.50002521"></circle>
                            <path d="M13.2,4 L4.4,0.8 C3.5,0.5 2.5,0.9 2.1,1.9 L2.1,1.9 C1.8,2.8 2.2,5.3 3.2,5.6 L12.6,6.2 C13.6,6.3 14.3,5 13.6,4.3 C13.4,4.2 13.3,4.1 13.2,4 Z" id="Path" fill="#F7B75D"></path>
                            <path d="M6.3,4.7 L6.3,4.7 C6,4.7 5.8,4.9 5.9,5.2 L6.1,6.1 C6.1,6.3 6.3,6.4 6.5,6.4 L6.5,6.4 C6.8,6.4 7,6.2 6.9,5.9 L6.7,5 C6.7,4.9 6.5,4.7 6.3,4.7 Z" id="Path" fill="#FFFFFF"></path>
                            <path d="M7.6,4.8 L7.6,4.8 C7.3,4.8 7.1,5 7.2,5.3 L7.4,6.2 C7.4,6.4 7.6,6.5 7.8,6.5 L7.8,6.5 C8.1,6.5 8.3,6.3 8.2,6 L8,5.1 C8,4.9 7.8,4.8 7.6,4.8 Z" id="Path" fill="#FFFFFF"></path>
                        </g>
                    </g>
                    <path d="M3.5,34.9 L13.7,37.7 C14.7,38 15.3,39 15,40 L15,40 C14.7,41 13.7,41.6 12.7,41.3 L2.5,38.5 C1.5,38.2 0.9,37.2 1.2,36.2 L1.2,36.2 C1.5,35.2 2.6,34.6 3.5,34.9 Z" id="Path" fill="#F99AB6"></path>
                    <path d="M18.8,0.1 C15.7,0.1 13,3.4 13,3.4 C16.9,5.8 19.7,4 20.6,3.3 C20.9,3.1 21.4,2.6 21.4,2 L18.8,0.1 Z" id="Path" fill="#F7B75D"></path>
                </g>
                <g transform="translate(263.000000, 131.000000)" fill="#FF6161" fill-rule="nonzero" id="Path">
                    <path d="M1.1,18.5 L4.7,23.7 C4.7,23.9 4.8,24 5,24.1 C5.1,24.2 5.3,24.2 5.4,24.2 C5.5,24.2 5.7,24.2 5.8,24.1 C5.9,24 6,23.8 6.1,23.7 L9.7,18.5 C9.9,18.2 9.8,17.8 9.5,17.6 C9.2,17.4 8.8,17.5 8.6,17.8 L5.4,22.5 L2.2,17.8 C2,17.5 1.6,17.5 1.3,17.6 C1,17.8 0.9,18.2 1.1,18.5 Z"></path>
                    <path d="M1.1,12.9 L4.7,18.1 C4.7,18.3 4.8,18.4 5,18.5 C5.1,18.6 5.3,18.6 5.4,18.6 C5.5,18.6 5.7,18.6 5.8,18.5 C5.9,18.4 6,18.2 6.1,18.1 L9.7,12.9 C9.9,12.6 9.8,12.2 9.5,12 C9.2,11.8 8.8,11.9 8.6,12.2 L5.4,16.9 L2.2,12.2 C2,11.9 1.6,11.9 1.3,12 C1,12.3 0.9,12.7 1.1,12.9 Z"></path>
                    <path d="M0.9,7.4 L4.5,12.6 C4.5,12.8 4.6,12.9 4.8,13 C4.9,13.1 5.1,13.1 5.2,13.1 C5.3,13.1 5.5,13.1 5.6,13 C5.7,12.9 5.8,12.7 5.9,12.6 L9.5,7.4 C9.7,7.1 9.6,6.7 9.3,6.5 C9,6.3 8.6,6.4 8.4,6.7 L5.2,11.4 L2,6.7 C1.8,6.4 1.4,6.4 1.1,6.5 C0.7,6.7 0.7,7.1 0.9,7.4 Z"></path>
                    <path d="M0.9,1.8 L4.5,7 C4.5,7.2 4.6,7.3 4.8,7.4 C4.9,7.5 5.1,7.5 5.2,7.5 C5.3,7.5 5.5,7.5 5.6,7.4 C5.7,7.3 5.8,7.1 5.9,7 L9.5,1.8 C9.7,1.5 9.6,1.1 9.3,0.9 C9,0.7 8.6,0.8 8.4,1.1 L5.2,5.8 L2,1.1 C1.8,0.8 1.4,0.8 1.1,0.9 C0.7,1.2 0.7,1.6 0.9,1.8 Z"></path>
                </g>
                <g id="jumpingarrow" transform="translate(80.000000, 154.000000)" fill="#FF6161" fill-rule="nonzero">
                    <path d="M0.9,18.5 L4.5,23.7 C4.5,23.9 4.6,24 4.8,24.1 C4.9,24.2 5.1,24.2 5.2,24.2 C5.3,24.2 5.5,24.2 5.6,24.1 C5.7,24 5.8,23.8 5.9,23.7 L9.5,18.5 C9.7,18.2 9.6,17.8 9.3,17.6 C9,17.4 8.6,17.5 8.4,17.8 L5.2,22.5 L2,17.8 C1.8,17.5 1.4,17.5 1.1,17.6 C0.8,17.8 0.7,18.2 0.9,18.5 Z" id="Path"></path>
                    <path d="M0.9,12.9 L4.5,18.1 C4.5,18.3 4.6,18.4 4.8,18.5 C4.9,18.6 5.1,18.6 5.2,18.6 C5.3,18.6 5.5,18.6 5.6,18.5 C5.7,18.4 5.8,18.2 5.9,18.1 L9.5,12.9 C9.7,12.6 9.6,12.2 9.3,12 C9,11.8 8.6,11.9 8.4,12.2 L5.2,16.9 L2,12.2 C1.8,11.9 1.4,11.9 1.1,12 C0.8,12.3 0.7,12.7 0.9,12.9 Z" id="Path"></path>
                    <path d="M0.6,7.4 L4.2,12.6 C4.2,12.8 4.3,12.9 4.5,13 C4.6,13.1 4.8,13.1 4.9,13.1 C5,13.1 5.2,13.1 5.3,13 C5.4,12.9 5.5,12.7 5.6,12.6 L9.2,7.4 C9.4,7.1 9.3,6.7 9,6.5 C8.7,6.3 8.3,6.4 8.1,6.7 L4.9,11.4 L1.7,6.7 C1.5,6.4 1.1,6.4 0.8,6.5 C0.5,6.7 0.4,7.1 0.6,7.4 Z" id="Path"></path>
                    <path d="M0.6,1.8 L4.2,7 C4.2,7.2 4.3,7.3 4.5,7.4 C4.6,7.5 4.8,7.5 4.9,7.5 C5,7.5 5.2,7.5 5.3,7.4 C5.4,7.3 5.5,7.1 5.6,7 L9.2,1.8 C9.4,1.5 9.3,1.1 9,0.9 C8.7,0.7 8.3,0.8 8.1,1.1 L4.9,5.8 L1.7,1.1 C1.5,0.8 1.1,0.7 0.8,0.9 C0.5,1.2 0.4,1.6 0.6,1.8 Z" id="Path"></path>
                </g>
                <g transform="translate(191.000000, 166.000000)" fill-rule="nonzero">
                    <g id="_x38_._Right_shoe_120_" transform="translate(0.000000, 48.000000)">
                        <circle id="Oval" fill="#F7B75D" transform="translate(9.688150, 3.404100) rotate(-74.079003) translate(-9.688150, -3.404100) " cx="9.68815" cy="3.4041" r="2.19990655"></circle>
                        <path d="M1.1,3.2 L9.1,5.5 C9.9,5.7 10.8,5.3 11.1,4.4 L11.1,4.4 C11.3,3.6 10.8,1.4 9.9,1.2 L1.5,1.3 C0.6,1.3 0.1,2.5 0.8,3.1 C0.8,3.1 0.9,3.2 1.1,3.2 Z" id="Path" fill="#F7B75D"></path>
                        <path d="M7.2,2.2 L7.2,2.2 C7.4,2.2 7.6,2 7.5,1.7 L7.3,0.9 C7.3,0.7 7.1,0.6 6.9,0.6 L6.9,0.6 C6.7,0.6 6.5,0.8 6.6,1.1 L6.8,1.9 C6.8,2.1 7,2.2 7.2,2.2 Z" id="Path" fill="#FFFFFF"></path>
                        <path d="M6,2.2 L6,2.2 C6.2,2.2 6.4,2 6.3,1.7 L6.1,0.9 C6.1,0.7 5.9,0.6 5.7,0.6 L5.7,0.6 C5.5,0.6 5.3,0.8 5.4,1.1 L5.6,1.9 C5.6,2.1 5.8,2.2 6,2.2 Z" id="Path" fill="#FFFFFF"></path>
                    </g>
                    <path d="M12.1,35.9 L12.1,35.9 L24.1,28.8 L27.7,32.7 L15.1,39.4 L12.2,52.2 L12.1,52.2 L8.7,49.1 L11,37.3 C11.1,36.7 11.5,36.2 12.1,35.9 Z" id="Path" fill="#B24F57"></path>
                    <g id="_x38_._Right_shoe_119_" transform="translate(29.000000, 53.000000)">
                        <circle id="Oval" fill="#F7B75D" transform="translate(9.200513, 2.500498) rotate(-0.126410) translate(-9.200513, -2.500498) " cx="9.20051343" cy="2.5004983" r="2.00000487"></circle>
                        <path d="M1.7,4.5 L9.2,4.5 C10,4.5 10.6,3.9 10.6,3.1 L10.6,3.1 C10.6,2.3 9.6,0.6 8.8,0.6 L1.6,2.8 C0.8,3 0.7,4.2 1.4,4.5 C1.5,4.5 1.6,4.5 1.7,4.5 Z" id="Path" fill="#F7B75D"></path>
                        <path d="M6.7,2.1 L6.7,2.1 C6.9,2 7,1.8 6.9,1.6 L6.5,0.9 C6.4,0.8 6.3,0.7 6.1,0.7 L6.1,0.7 C5.9,0.8 5.8,1 5.9,1.2 L6.3,1.9 C6.4,2.1 6.5,2.2 6.7,2.1 Z" id="Path" fill="#FFFFFF"></path>
                        <path d="M5.7,2.5 L5.7,2.5 C5.9,2.4 6,2.2 5.9,2 L5.5,1.3 C5.4,1.2 5.3,1.1 5.1,1.1 L5.1,1.1 C4.9,1.2 4.8,1.4 4.9,1.6 L5.3,2.3 C5.4,2.5 5.5,2.5 5.7,2.5 Z" id="Path" fill="#FFFFFF"></path>
                    </g>
                    <path d="M22.4,27 L30.3,26.1 C30.8,26.7 31.4,28.4 31.6,29.2 C31.9,30.4 31.6,31.7 31,32.7 C30.4,33.7 29.4,34.5 28.1,34.7 C27.5,34.8 24.5,34.9 23.1,33.5 C21,31.6 22.4,27 22.4,27 Z" id="Path" fill="#B24F57"></path>
                    <path d="M27.3,31.3 L32.4,31.3 L30.4,43.5 L39,53.6 L34.5,54.9 L26.3,45.7 C25.9,45.2 25.7,44.6 25.8,44 L27.3,31.3 Z" id="Path" fill="#B24F57"></path>
                    <path d="M6.5,26.1 L18.3,25.9 C18.8,25.9 19.3,25.6 19.5,25.1 L24.1,15.9 L21.6,14.6 L17.3,23.1 L6.3,23.3 L6.5,26.1 Z" id="Path" fill="#121F55"></path>
                    <polygon id="Path" fill="#F99AB6" points="23.4 7.3 23.7 14.8 27.2 14.6 26.7 7.4 26.5 5.4"></polygon>
                    <path d="M26,9.7 C26,9.7 25.2,11.6 23.6,12.1 L23.5,9.6 L26,9.7 Z" id="Path" fill="#F99AB6"></path>
                    <path d="M22.2,11.8 C22.1,11.8 21.8,11.7 21.7,11.7 C20.4,11.3 19.1,9.2 19.2,8 C19.3,6.5 19.4,5.8 19.3,4.8 C19.2,3.4 20.5,2.4 21.9,2.4 L24.7,2.5 C25.7,2.5 26.5,3.4 26.5,4.5 L26.3,9 C26.2,10.5 23.8,12 22.2,11.8 Z" id="Path" fill="#F99AB6"></path>
                    <path d="M27.9,12.8 C27.5,12.6 27.1,12.4 26.6,12.5 L25.1,12.7 C24.4,12.8 23.7,13.1 23.1,13.5 C24.7,13.8 26.6,13.7 27.9,12.8 Z" id="Path" fill="#F99AB6"></path>
                    <path d="M30.3,15.7 C30.2,14.5 29.2,12.9 27.9,12.7 C25.7,13 23.7,13.1 22.9,13.3 C21.6,14.2 20.8,15.8 21,17.4 L21.2,31.2 C25.4,34.1 33,33 33,33 C33,27.1 30.4,18.1 30.3,15.7 Z" id="Path" fill="#121F55"></path>
                    <path d="M14.8,26 L24.5,26.1 C25.2,26.1 25.8,25.6 25.9,24.9 L27.5,14.3 L24.7,13.9 L23.3,23.3 L14.9,23.2 L14.8,26 Z" id="Path" fill="#121F55"></path>
                    <path d="M23.3,13.2 C23.9,13 25.1,13 26.8,12.8 C25.8,15.1 23.1,17.1 22.3,19.8 C22,19.4 22,14.1 23.3,13.2 Z" id="Path" fill="#F7B75D"></path>
                    <path d="M23.4,13.7 C23.5,13.6 23.9,13.3 23.9,13.2 C24.2,13.2 24.1,13.3 24.5,13.2 C23.4,14.2 24,15.9 23.6,17.4 C23.1,18.2 22.6,19 22.3,19.9 C22.1,19.6 22,17.9 22.2,16.3 C22.3,16.1 22.5,14.7 23.4,13.7 Z" id="Path" fill="#2747B3"></path>
                    <path d="M23.3,13.9 C23.4,14.1 24,14.2 24.2,14 C24.4,13.9 24.5,13.2 24.5,13.2 L23.2,13 C23.2,13.1 23.1,13.8 23.3,13.9 Z" id="Path" fill="#B8B9F1"></path>
                    <path d="M20.9,5.1 C15.6,3.9 19.4,0.5 19.4,0.5 C19.4,0.5 19.5,1.8 20.5,1.4 C22.5,0.6 26.8,0.1 28,2.7 C28.9,4.7 27.2,9.1 26.9,10.3 C26.4,10 26.8,4.8 24.6,5 C23.4,5.1 22.1,5.4 20.9,5.1 Z" id="Path" fill="#121F55"></path>
                    <path d="M21.7,10.6 C20.6,10.6 21.3,8.8 21.7,8.8 C22.1,8.8 22.8,10.7 21.7,10.6 Z" id="Path" fill="#FFFEFF"></path>
                    <polygon id="Path" fill="#FFFFFF" points="25.2 14.5 27.9 12.7 27 11.7 23.8 13.2"></polygon>
                    <polygon id="Path" fill="#FFFFFF" points="22.9 13.8 23.1 13.2 23.6 12.7 23.8 13.2"></polygon>
                    <g transform="translate(1.000000, 10.000000)" id="Path">
                        <path d="M24.4,12.8 C24.4,12.5 24.1,12.2 23.8,12.2 L2.2,12.2 C1.7,12.2 1.4,12.5 1.4,12.8 C1.4,13.1 1.8,13.4 2.2,13.4 L23.8,13.4 C24.1,13.4 24.4,13.1 24.4,12.8 L24.4,12.8 Z" fill="#566CD3"></path>
                        <path d="M25.2,12.8 C25.2,13.1 24.9,13.4 24.6,13.4 L16.4,13.4 C16,13.4 15.8,13.1 15.8,12.8 C15.8,12.5 16.1,12.2 16.4,12.2 L24.6,12.2 C24.9,12.2 25.2,12.4 25.2,12.8 Z" fill="#E5E9FF"></path>
                        <path d="M1.4,1 L1.4,11.9 C1.4,12.4 1.8,12.8 2.3,12.8 L16.7,12.8 C17.2,12.8 17.6,12.4 17.6,11.9 L17.6,1 C17.6,0.5 17.2,0.1 16.7,0.1 L2.3,0.1 C1.8,0.1 1.4,0.5 1.4,1 Z" fill="#E5E9FF"></path>
                        <path d="M0.7,1 L0.7,11.9 C0.7,12.4 1.1,12.8 1.6,12.8 L16,12.8 C16.5,12.8 16.9,12.4 16.9,11.9 L16.9,1 C16.9,0.5 16.5,0.1 16,0.1 L1.6,0.1 C1.1,0.1 0.7,0.5 0.7,1 Z" fill="#FFFFFF"></path>
                        <path d="M11.2,6.4 L11.2,6.4 C11.2,5.9 10.8,5.5 10.3,5.5 L7.4,5.5 C6.9,5.5 6.5,5.9 6.5,6.4 L6.5,6.4 C6.5,6.9 6.9,7.3 7.4,7.3 L10.3,7.3 C10.7,7.4 11.2,6.9 11.2,6.4 Z" fill="#F1E1E1"></path>
                    </g>
                    <path d="M15.7,24.6 C15.8,24 15.7,23.4 15.4,23 L11.8,22.4 C11.4,22.8 11.1,23.3 11,23.8 C10.8,25.1 11.7,26.4 13,26.6 C14.2,26.8 15.5,25.9 15.7,24.6 Z" id="Path" fill="#F99AB6"></path>
                    <path d="M8,23.9 C8,23.3 7.9,22.7 7.6,22.3 L3.9,22 C3.5,22.4 3.2,22.9 3.2,23.5 C3.1,24.8 4.1,26 5.4,26.1 C6.7,26.3 7.9,25.3 8,23.9 Z" id="Path" fill="#F99AB6"></path>
                </g>
                <g transform="translate(82.000000, 93.000000)" fill="#B24F57" fill-rule="nonzero">
                    <g id="XMLID_117_">
                        <g id="Group">
                            <path d="M22.4,0.7 L21.5,1.2 C21.5,1.2 21.4,1.2 21.4,1.2 C21.4,1.2 21.4,1.1 21.4,1.1 C21.4,1.1 21.4,1.1 21.4,1.1 L22.4,0.7 Z" id="Path"></path>
                            <path d="M18.1,3.3 L16.5,4.6 C16.4,4.7 16.1,4.7 16,4.5 C15.9,4.4 15.9,4.1 16.1,4 C16.1,4 16.1,4 16.1,4 L17.8,2.9 C17.9,2.8 18.1,2.9 18.1,3 C18.2,3.1 18.2,3.3 18.1,3.3 Z" id="Path"></path>
                            <path d="M13.5,7.4 L12.1,8.9 C11.9,9.1 11.5,9.1 11.3,8.9 C11.1,8.7 11.1,8.3 11.3,8.1 C11.3,8.1 11.3,8.1 11.3,8.1 L12.8,6.7 C13,6.5 13.3,6.5 13.5,6.7 C13.7,6.9 13.7,7.2 13.5,7.4 Z" id="Path"></path>
                            <path d="M9.7,12 L8.6,13.7 C8.4,14 7.9,14.1 7.6,13.9 C7.3,13.7 7.2,13.2 7.4,12.9 C7.4,12.9 7.4,12.9 7.4,12.9 L8.6,11.2 C8.8,10.9 9.3,10.8 9.6,11.1 C9.8,11.3 9.9,11.7 9.7,12 Z" id="Path"></path>
                            <path d="M6.6,17.2 L5.7,19.1 C5.5,19.5 5,19.7 4.6,19.5 C4.2,19.3 4,18.8 4.2,18.4 C4.2,18.4 4.2,18.4 4.2,18.4 L5.1,16.6 C5.3,16.2 5.8,16 6.2,16.2 C6.6,16.4 6.8,16.8 6.6,17.2 Z" id="Path"></path>
                            <path d="M4.3,22.8 L3.7,24.8 C3.6,25.3 3,25.6 2.5,25.4 C2,25.3 1.7,24.7 1.9,24.2 C1.9,24.2 1.9,24.2 1.9,24.2 L2.5,22.2 C2.7,21.7 3.2,21.5 3.6,21.6 C4.2,21.8 4.5,22.3 4.3,22.8 Z" id="Path"></path>
                            <path d="M2.9,28.6 L2.7,30.6 C2.6,31.1 2.1,31.5 1.6,31.5 C1.1,31.4 0.7,30.9 0.7,30.4 L0.7,30.4 L1,28.4 C1.1,27.9 1.6,27.5 2.1,27.6 C2.6,27.6 3,28.1 2.9,28.6 Z" id="Path"></path>
                            <path d="M2.6,34.5 L2.8,36.5 C2.8,37 2.4,37.5 1.9,37.6 C1.4,37.6 0.9,37.2 0.8,36.7 L0.8,36.7 L0.6,34.7 C0.6,34.2 1,33.7 1.5,33.6 C2.1,33.6 2.6,34 2.6,34.5 Z" id="Path"></path>
                            <path d="M3.6,40.3 L4.3,42.2 C4.5,42.7 4.2,43.3 3.7,43.4 C3.2,43.6 2.6,43.3 2.5,42.8 L1.8,40.9 C1.6,40.4 1.9,39.8 2.4,39.6 C2.8,39.6 3.4,39.8 3.6,40.3 L3.6,40.3 Z" id="Path"></path>
                            <path d="M6.2,45.5 L7.5,47 C7.8,47.4 7.8,48 7.4,48.3 C7,48.6 6.5,48.6 6.1,48.2 L4.7,46.7 C4.3,46.3 4.4,45.7 4.8,45.4 C5.2,45.1 5.8,45.1 6.2,45.5 C6.2,45.5 6.2,45.5 6.2,45.5 Z" id="Path"></path>
                            <path d="M10.5,49.3 C10.5,49.3 11,49.5 11.4,49.7 C11.8,49.9 12.3,50 12.3,50 L12.4,50 C12.8,50.2 13,50.6 12.9,51.1 C12.7,51.5 12.3,51.7 11.9,51.6 C11.9,51.6 11.4,51.4 10.8,51.2 C10.3,51 9.9,50.8 9.9,50.8 C9.5,50.6 9.3,50.1 9.5,49.7 C9.5,49.3 10,49.1 10.5,49.3 C10.5,49.3 10.5,49.3 10.5,49.3 Z" id="Path"></path>
                            <path d="M16,50.5 L18,50.3 C18.4,50.3 18.7,50.5 18.8,50.9 C18.8,51.3 18.6,51.6 18.2,51.7 L16.2,52 C15.8,52.1 15.4,51.8 15.4,51.4 C15.3,50.9 15.6,50.6 16,50.5 C16,50.5 16,50.5 16,50.5 Z" id="Path"></path>
                            <path d="M21.7,49.1 L23.5,48.2 C23.8,48.1 24.1,48.2 24.2,48.4 C24.3,48.6 24.2,48.9 24,49.1 L22.2,50.1 C21.9,50.3 21.6,50.2 21.4,49.9 C21.3,49.6 21.4,49.3 21.7,49.1 C21.7,49.1 21.7,49.1 21.7,49.1 Z" id="Path"></path>
                            <path d="M27,46.1 L28.6,44.8 C28.7,44.7 28.9,44.7 29,44.8 C29.1,44.9 29.1,45.1 29,45.1 L27.5,46.5 C27.4,46.6 27.1,46.6 27,46.5 C26.8,46.4 26.8,46.2 27,46.1 C27,46.1 27,46.1 27,46.1 Z" id="Path"></path>
                            <path d="M31.6,42 L32.3,41.3 L31.6,42 C31.7,42.1 31.6,42.1 31.6,42 C31.6,42.1 31.6,42.1 31.6,42 C31.6,42 31.6,42 31.6,42 Z" id="Path"></path>
                        </g>
                    </g>
                    <g id="XMLID_116_" transform="translate(1.000000, 6.000000)">
                        <g id="Group">
                            <path d="M8.8,0.1 C8.8,0.1 8.7,0.3 8.6,0.6 C8.5,0.8 8.4,1.1 8.4,1.1 C8.3,1.3 8.1,1.3 8,1.2 C7.8,1.1 7.8,0.9 7.9,0.8 C7.9,0.7 8,0.7 8,0.7 C8,0.7 8.2,0.6 8.4,0.4 C8.6,0.2 8.8,0.1 8.8,0.1 Z" id="Path"></path>
                            <path d="M5.8,5.3 C5.8,5.3 5.5,5.8 5.1,6.4 C4.8,6.9 4.4,7.4 4.4,7.4 C4.1,7.8 3.5,7.9 3,7.6 C2.6,7.3 2.5,6.7 2.7,6.3 C2.7,6.3 3,5.8 3.4,5.2 C3.7,4.7 4.1,4.2 4.1,4.2 C4.4,3.8 5,3.7 5.5,4 C6,4.3 6.1,4.9 5.8,5.3 Z" id="Path"></path>
                            <path d="M1.5,11.5 C1.5,11.5 1.3,11.7 1.2,11.9 C1,12.1 0.8,12.3 0.8,12.3 C0.8,12.3 0.8,12 0.9,11.8 C0.9,11.5 1,11.3 1,11.3 C1,11.1 1.2,11 1.4,11 C1.6,11 1.7,11.2 1.7,11.4 C1.6,11.4 1.5,11.5 1.5,11.5 Z" id="Path"></path>
                        </g>
                    </g>
                    <g id="XMLID_115_" transform="translate(7.000000, 6.000000)">
                        <g id="Group">
                            <path d="M12.3,0.3 C12.3,0.3 12.2,0.5 12,0.7 C11.9,0.9 11.7,1.1 11.7,1.1 C11.6,1.2 11.5,1.2 11.4,1.2 C11.3,1.1 11.3,1 11.3,0.9 C11.3,0.9 11.3,0.9 11.4,0.8 C11.4,0.8 11.6,0.7 11.8,0.5 C12,0.5 12.3,0.3 12.3,0.3 Z" id="Path"></path>
                            <path d="M9.2,4.6 C9.2,4.6 8.9,5 8.5,5.4 C8.2,5.8 7.8,6.2 7.8,6.2 C7.5,6.6 6.9,6.7 6.5,6.4 C6.1,6.1 6,5.5 6.3,5.1 C6.3,5.1 6.3,5 6.4,5 C6.4,5 6.8,4.6 7.2,4.2 C7.6,3.8 8,3.4 8,3.4 C8.3,3.1 8.9,3.1 9.2,3.4 C9.4,3.8 9.4,4.3 9.2,4.6 Z" id="Path"></path>
                            <path d="M5.3,9.6 C5.3,9.6 5,10 4.6,10.4 C4.3,10.8 3.9,11.2 3.9,11.2 C3.6,11.6 3.1,11.6 2.7,11.3 C2.4,11 2.3,10.6 2.5,10.2 C2.5,10.2 2.8,9.7 3.1,9.3 C3.4,8.8 3.7,8.4 3.7,8.4 C4,8 4.6,7.8 5,8.1 C5.5,8.4 5.6,9 5.3,9.6 C5.3,9.5 5.3,9.5 5.3,9.6 Z" id="Path"></path>
                            <path d="M1.2,14.5 C1.2,14.5 1,14.7 0.9,14.9 C0.7,15.1 0.5,15.3 0.5,15.3 C0.5,15.3 0.6,15.1 0.6,14.8 C0.7,14.6 0.8,14.3 0.8,14.3 C0.8,14.2 1,14.1 1.1,14.2 C1.2,14.1 1.3,14.3 1.2,14.5 C1.2,14.4 1.2,14.4 1.2,14.5 Z" id="Path"></path>
                        </g>
                    </g>
                </g>
                <path d="M105.6,96.1 C105.6,96.1 113.2,81.3 117.8,88.8 C122.3,96.3 105.6,96.1 105.6,96.1 Z" id="Path" fill="#F7B75D" fill-rule="nonzero"></path>
                <g transform="translate(115.000000, 71.000000)" fill-rule="nonzero">
                    <polygon id="Path" fill="#B24F57" points="4.4 1.6 14.6 2.4 7.5 6.6 5.9 7.7 2.1 1.5"></polygon>
                    <polygon id="Path" fill="#B24F57" points="17.9 23.9 16.9 26 13.2 19.9 14.9 18.9 22 14.6"></polygon>
                    <path d="M18,0.3 C18,0.3 20.4,0.8 22.9,1.4 C25.8,2 27.5,4.9 26.7,7.8 C26,10.2 25.4,12.6 25.4,12.6 L25.5,12.6 L18,0.3 L18,0.3 Z" id="Path" fill="#FFFFFF"></path>
                    <rect id="Rectangle" fill="#B24F57" transform="translate(20.623050, 7.128000) rotate(-31.130799) translate(-20.623050, -7.128000) " x="19.2230325" y="-0.0220893744" width="2.800035" height="14.3001787"></rect>
                    <path d="M23.1,13.9 L9.7,22 C7.1,23.6 4.8,21.2 4.8,21.2 L0.8,14.5 C0.8,14.5 -0.5,11.5 2.4,9.8 L15.8,1.7 L23.1,13.9 Z" id="Path" fill="#FF6161"></path>
                    <circle id="Oval" fill="#FFFFFF" transform="translate(15.306600, 10.310380) rotate(-31.146533) translate(-15.306600, -10.310380) " cx="15.3066" cy="10.31038" r="2.89983974"></circle>
                    <circle id="Oval" fill="#FFFFFF" transform="translate(9.526210, 13.814620) rotate(-31.143570) translate(-9.526210, -13.814620) " cx="9.52621" cy="13.81462" r="2.90008794"></circle>
                </g>
                <g transform="translate(105.000000, 114.000000)" fill-rule="nonzero" id="Path">
                    <g transform="translate(0.000000, 25.000000)">
                        <path d="M5.1,9.2 C5.6,8.7 5.4,7.9 5.3,7.7 C4.8,6.7 4,5.9 3.2,4.1 C2.7,2.9 2.9,2.4 2.4,1.4 C2,0.6 1.2,0.9 0.9,1.7 C0.8,2 -0.3,3.7 0.7,4.9 C1.5,5.7 0.7,7.4 1,7.7 C1.2,7.9 1.9,8.2 2.6,8.9 C3.5,9.7 4.6,9.7 5.1,9.2 Z" fill="#B24F57"></path>
                        <path d="M2,4.8 C2.3,5.7 3.9,8.1 4.5,8.4 C5.2,8.7 6.3,7.7 6,7.2 C5.4,6.3 3.7,5.2 2.9,3 C2.4,2.6 1.6,3.7 2,4.8 Z" fill="#F99AB6"></path>
                    </g>
                    <path d="M32.2,26.9 C32.2,26.9 30.5,26.9 27.9,27.1 C26.6,27.2 25.1,27.2 23.5,27.3 C21.9,27.4 20.2,27.5 18.4,27.6 L17.8,27.6 L17.6,27.6 L17.6,27.6 L17.4,27.6 L17.3,27.6 L17,27.6 L16.4,27.7 L16.4,27.7 L16.2,27.7 L16.2,27.7 L16.1,27.7 L15.9,27.7 L15.6,27.8 C14.8,28 14,28.2 13.2,28.4 C12.4,28.6 11.7,28.8 10.9,29 C10.2,29.2 9.5,29.4 8.9,29.5 C7.6,29.8 6.6,30.1 5.9,30.3 C5.2,30.5 4.8,30.6 4.8,30.6 L5.3,32.9 C5.3,32.9 5.7,32.8 6.5,32.7 C7.2,32.6 8.3,32.4 9.6,32.2 C10.2,32.1 10.9,32 11.7,31.8 C12.4,31.7 13.2,31.5 14,31.4 C14.8,31.2 15.6,31.1 16.4,30.9 L16.7,30.8 L16.9,30.8 L17,30.8 L17,30.8 C17,30.8 16.7,30.8 16.9,30.8 L16.9,30.8 L16.9,30.8 L17.5,30.7 L17.8,30.7 L17.9,30.7 L17.9,30.7 C17.9,30.7 17.6,30.7 17.8,30.7 L17.8,30.7 L17.8,30.7 L18,30.7 L18.6,30.7 C20.3,30.6 22,30.6 23.7,30.5 C25.3,30.4 26.8,30.3 28.1,30.3 C30.7,30.2 32.4,30 32.4,30 L32.2,26.9 Z" fill="#F7B75D"></path>
                    <path d="M27,11.7 C26.6,11.1 27.1,10.1 26.8,8.9 C25.8,5.4 27,3.8 27,3.8 C27,2.5 28.1,1.4 29.7,0.8 C30.5,0.5 31.3,0.4 32.3,0.3 C33.7,0.3 35,0.6 36,1.2 C37,1.8 37.8,2.7 37.7,3.7 C37.6,4.4 36.9,5.3 37.7,6.5 C39.6,9.4 38.8,11.1 37.8,11.6 C36.9,12.1 35.8,12.1 35.3,12.4 C32.4,14.1 28.5,13.8 27,11.7 Z" fill="#FFFFFF"></path>
                    <path d="M18.3,24.6 C17.7,24.5 17,24.4 16.3,24.3 C15.8,24.2 15.5,23.7 15.6,23.2 C15.7,22.7 16.2,22.4 16.7,22.5 C19.9,23.2 22.5,22.9 24.4,21.6 C27.4,19.5 27.9,15.7 27.9,15.7 C28,15.2 28.4,14.8 28.9,14.9 C29.4,15 29.8,15.4 29.7,15.9 C29.7,16.1 29,20.6 25.4,23.1 C23.6,24.4 21.2,25 18.3,24.6 Z" fill="#F99AB6"></path>
                    <path d="M27.6,17 C27.4,17 27.2,17 27.1,17.1 C27.4,16.2 27.5,15.6 27.5,15.6 C27.6,14.9 28.2,14.3 29,14.3 C29.1,14.3 29.1,14.3 29.2,14.3 C30,14.4 30.6,15.1 30.5,16 C30.5,16.1 30.3,17.2 29.8,18.6 C29.4,17.7 28.7,17 27.6,17 Z" fill="#121F55"></path>
                    <path d="M29.3,16.3 C28.8,16.1 28.4,15.3 29,14.7 C29.6,14 30.4,13.7 31.4,13.7 L31.6,13.7 C32.4,13.7 33.2,14 33.7,14.6 C33.3,15.7 30.6,16.8 29.3,16.3 Z" fill="#F99AB6"></path>
                    <path d="M30.9,11.7 L30.9,12.8 L30.9,14.8 L32.4,14.8 L32.4,12.3 L32.4,11.3 C32,11.6 31.5,11.7 30.9,11.7 Z" fill="#F99AB6"></path>
                    <path d="M30.9,12 L30.9,13.1 C31.4,13 32.1,12.8 32.4,12.4 L32.4,11.6 C32,11.8 31.5,12 30.9,12 Z" fill="#F99AB6"></path>
                    <path d="M31.3,12.5 L31.3,12.5 C32.7,12.5 34,11.8 34.8,10.7 C35.3,10 35.7,9 35.7,8 L35.7,6.3 C35.7,5 35.1,3.9 34.3,3.1 C33.5,2.4 32.4,1.9 31.3,1.9 L31.3,1.9 C30.5,1.9 29.8,2.1 29.2,2.5 C27.9,3.3 27,4.7 27,6.4 L27,8.1 C27,9.7 27.9,11.1 29.1,11.8 C29.7,12.3 30.5,12.5 31.3,12.5 Z" fill="#F99AB6"></path>
                    <path d="M26.6,26.8 C26.1,29 28.9,31.3 31.1,31.8 C33.3,32.3 35.6,30.9 36.1,28.7 C36.6,26.5 35.2,24.2 33,23.7 C30.7,23.2 27.1,24.6 26.6,26.8 Z" fill="#F7B75D"></path>
                    <path d="M31,10.2 C30.9,10.7 30.4,11.2 29.9,11.2 C29.3,11.2 28.8,10.8 28.7,10.3 L31,10.2 Z" fill="#FFFEFF"></path>
                    <path d="M26.9,17.3 C26.6,18.1 27.4,19 28.2,19.1 C29,19.2 30,18.1 30.1,17.3 C30.2,16.5 29,14.6 28.5,15.3 C28.1,16 27.1,16.6 26.9,17.3 Z" fill="#121F55"></path>
                    <path d="M33.7,14.5 C34.1,14.9 34.3,15.5 34.3,16.1 C34.3,16.1 32.9,22.6 35.8,26.1 C35.8,26.1 30.6,29.2 26.5,27.1 C26.5,24.1 28.3,22.1 28,17.3 C27.9,16.3 28.3,15.4 29,14.7 C29.1,16.2 32.2,14.3 33.7,14.5 Z" fill="#121F55"></path>
                    <g transform="translate(23.000000, 45.000000)">
                        <path d="M5.1,0.5 C4.4,0.4 3.9,1 3.8,1.2 C3.3,2.2 3.2,3.3 2.2,5 C1.5,6.1 1,6.3 0.5,7.2 C0.1,8 0.8,8.4 1.6,8.3 C1.9,8.2 3.9,8.1 4.2,6.6 C4.4,5.5 6.2,5.1 6.3,4.7 C6.3,4.5 6.2,3.7 6.3,2.7 C6.4,1.5 5.7,0.6 5.1,0.5 Z" fill="#B24F57"></path>
                        <path d="M3.4,5.6 C4,4.8 4.9,2.1 4.8,1.5 C4.7,0.7 3.2,0.4 3,1 C2.6,2.1 2.8,4.1 1.5,6 C1.4,6.6 2.7,6.6 3.4,5.6 Z" fill="#F99AB6"></path>
                    </g>
                    <path d="M22.2,32.8 L22.2,32.8 L32.1,28.2 C33,27.8 34.1,28.2 34.6,29.1 C35,30 34.6,31.1 33.7,31.6 C33.7,31.6 33.7,31.6 33.7,31.6 L25.2,35.4 L28.2,45.7 L25.6,46.6 L21.3,35 C21,34.1 21.4,33.2 22.2,32.8 Z" fill="#F7B75D"></path>
                    <path d="M31.3,27.2 C30.8,27.2 30.3,27.2 29.8,27.1 C29.3,27 28.9,26.6 29,26.1 C29.1,25.6 29.5,25.2 30,25.3 C31.7,25.5 33.9,25.4 34.7,24.1 C35.9,22.1 33.6,17.7 32.7,16.3 C32.4,15.9 32.5,15.3 33,15 C33.4,14.7 34,14.8 34.3,15.3 C34.7,16 38.4,21.8 36.3,25.1 C35.4,26.5 33.7,27.2 31.3,27.2 Z" fill="#F99AB6"></path>
                    <path d="M36.1,6.8 C36.1,6.8 33,7.9 31,6.6 C29.1,5.2 28.2,3.2 29,1.9 C29.8,0.7 32.1,0.8 34.1,2.1 C36.1,3.5 36.1,6.8 36.1,6.8 Z" fill="#FFFFFF"></path>
                    <g transform="translate(9.000000, 17.000000)">
                        <path d="M22.7,11.9 C22.7,11.6 22.4,11.3 22.1,11.3 L1.8,11.3 C1.4,11.3 1,11.6 1,11.9 C1,12.2 1.3,12.5 1.8,12.5 L22.1,12.5 C22.4,12.5 22.7,12.2 22.7,11.9 L22.7,11.9 Z" fill="#121F55"></path>
                        <path d="M23.5,11.9 C23.5,12.2 23.2,12.5 22.9,12.5 L15.2,12.5 C14.9,12.5 14.6,12.2 14.6,11.9 C14.6,11.6 14.9,11.3 15.2,11.3 L22.9,11.3 C23.2,11.4 23.5,11.6 23.5,11.9 Z" fill="#FFFFFF"></path>
                        <path d="M1.1,0.9 L1.1,11.1 C1.1,11.6 1.5,11.9 1.9,11.9 L15.4,11.9 C15.9,11.9 16.2,11.5 16.2,11.1 L16.2,0.9 C16.2,0.4 15.8,0.1 15.4,0.1 L1.9,0.1 C1.5,0.1 1.1,0.4 1.1,0.9 Z" fill="#FFFFFF"></path>
                        <path d="M0.5,0.9 L0.5,11.1 C0.5,11.6 0.9,11.9 1.3,11.9 L14.8,11.9 C15.3,11.9 15.6,11.5 15.6,11.1 L15.6,0.9 C15.6,0.4 15.2,0.1 14.8,0.1 L1.3,0.1 C0.9,0.1 0.5,0.4 0.5,0.9 Z" fill="#FFFFFF"></path>
                        <path d="M10.3,6 L10.3,6 C10.3,5.5 9.9,5.1 9.4,5.1 L6.7,5.1 C6.2,5.1 5.8,5.5 5.8,6 L5.8,6 C5.8,6.5 6.2,6.9 6.7,6.9 L9.4,6.9 C9.9,6.9 10.3,6.5 10.3,6 Z" fill="#F1E1E1"></path>
                    </g>
                    <path d="M35.3,16.9 C34.2,16.9 33.5,17.5 33.2,18.3 C32.9,17.6 32.5,17 32.2,16.6 C31.8,15.9 31.9,15 32.6,14.6 C32.8,14.4 33.1,14.4 33.4,14.4 C33.9,14.4 34.4,14.7 34.6,15.1 C34.8,15.4 35.3,16.2 35.7,17.1 C35.6,16.9 35.4,16.9 35.3,16.9 Z" fill="#121F55"></path>
                    <path d="M25.7,25.4 C25.5,25.9 25.5,26.4 25.6,26.9 L28.7,28.3 C29.2,28.1 29.5,27.7 29.8,27.2 C30.3,26.1 29.8,24.7 28.7,24.2 C27.5,23.8 26.2,24.3 25.7,25.4 Z" fill="#F99AB6"></path>
                </g>
                <g id="XMLID_118_" transform="translate(100.000000, 113.000000)">
                    <g id="XMLID_123_" fill="#FF6161">
                        <path d="M6.5,0.7 C9.6,0.7 12.2,2.9 12.2,5.6 C12.2,7.2 11.3,8.7 9.9,9.6 L10.7,11.6 L8.7,10.1 C8,10.3 7.3,10.5 6.5,10.5 C3.4,10.5 0.8,8.3 0.8,5.6 C0.8,2.9 3.3,0.7 6.5,0.7 Z" id="Path"></path>
                    </g>
                    <g id="XMLID_119_" transform="translate(3.000000, 4.000000)" fill="#FFFFFF">
                        <g id="XMLID_122_" transform="translate(5.000000, 0.000000)">
                            <circle id="Oval" cx="1" cy="1.7" r="1"></circle>
                        </g>
                        <g id="XMLID_121_" transform="translate(2.000000, 0.000000)">
                            <circle id="Oval" cx="1.5" cy="1.7" r="1"></circle>
                        </g>
                        <g id="XMLID_120_">
                            <circle id="Oval" cx="1" cy="1.7" r="1"></circle>
                        </g>
                    </g>
                </g>
            </g>
        </g>
    </g>
</svg>